<svg width="26" height="26" viewBox="0 0 26 26" fill="none" xmlns="http://www.w3.org/2000/svg">
<path d="M18.3886 15.1243C17.3394 14.3703 15.8711 15.1243 15.8711 16.4172C15.8711 17.7101 17.337 18.4641 18.3886 17.7101C19.4401 18.4641 20.906 17.7101 20.906 16.4172C20.906 15.1243 19.4401 14.3703 18.3886 15.1243ZM18.8646 17.1712C19.1132 16.7127 19.1251 16.143 18.8646 15.6608C19.459 15.3063 20.1955 15.7388 20.1955 16.4148C20.1955 17.0908 19.4614 17.5258 18.8646 17.1688V17.1712ZM17.9125 17.1712C17.3157 17.5281 16.5816 17.0885 16.5816 16.4148C16.5816 15.7412 17.3134 15.3016 17.9125 15.6585C18.488 16.0036 18.488 16.8238 17.9125 17.1688V17.1712Z" fill="#E74526"/>
<path d="M15.2369 10.2582C15.379 10.4615 15.6821 10.4567 15.8194 10.2582C16.8402 8.81164 19.2369 8.76436 20.2955 10.2582C20.3926 10.3976 20.5678 10.4402 20.7123 10.3882C20.961 10.2936 21.553 9.14964 23.1161 9.14964C24.556 9.14964 25.3209 10.2133 25.3517 10.2558C25.5672 10.5678 26.0622 10.3645 25.9935 9.98873C25.9746 9.88945 24.0042 0 12.9988 0C1.99351 0 0.0254831 9.89182 0.00653696 9.99109C-0.0621427 10.3645 0.428088 10.5702 0.645969 10.2582C0.676756 10.2133 1.44407 9.14964 2.88398 9.14964C4.32389 9.14964 5.08884 10.2133 5.12199 10.2558C5.26882 10.4662 5.56959 10.4496 5.70458 10.2558C6.10956 9.68145 6.96213 9.14727 7.9426 9.14727C9.3825 9.14727 10.1475 10.2109 10.1806 10.2535C10.2967 10.4189 10.5074 10.4425 10.6566 10.3527C10.8366 10.244 11.0853 9.70036 11.9734 9.34582V13.5247H4.54887C3.90944 13.5247 3.39079 14.0424 3.39079 14.6805V24.8442C3.39079 25.4824 3.90944 26 4.54887 26H21.4536C22.093 26 22.6116 25.4824 22.6116 24.8442V14.6805C22.6116 14.0424 22.093 13.5247 21.4536 13.5247H14.0314V9.34582C14.8058 9.65545 15.2179 10.2227 15.2392 10.2558L15.2369 10.2582ZM21.8988 14.6829V18.5545H4.10127V14.6829C4.10127 14.4371 4.30257 14.2362 4.54887 14.2362H21.4536C21.6999 14.2362 21.9012 14.4371 21.9012 14.6829H21.8988ZM21.8988 24.8465C21.8988 25.0924 21.6975 25.2933 21.4512 25.2933H4.54887C4.30257 25.2933 4.10127 25.0924 4.10127 24.8465V20.9749H21.9012V24.8465H21.8988ZM4.10837 20.2658V19.2613H21.8941V20.2658H4.10837ZM13.3209 13.5271H12.6839V9.17091C12.897 9.14727 13.0865 9.14255 13.3138 9.17091C13.3375 9.17327 13.3209 9.17564 13.3209 13.5295V13.5271ZM10.5335 0.898182C6.79636 2.98764 5.54117 7.54473 5.18593 9.30327C3.95207 8.24909 2.29191 8.19 1.03436 8.97473C2.47427 4.77927 5.72353 1.64745 10.5335 0.898182ZM24.9704 8.97473C23.7129 8.18764 22.0527 8.24909 20.8189 9.30327C20.4636 7.54473 19.2061 2.98764 15.4689 0.898182C20.2505 1.64273 23.5187 4.74855 24.9704 8.97473ZM10.138 9.21582C8.86148 8.20418 7.17054 8.22073 5.96273 9.05982C6.43164 7.00109 7.90944 2.47709 11.9947 1.00691C10.5311 3.28782 10.209 7.43364 10.138 9.21582ZM15.8644 9.21582C15.7934 7.43364 15.4689 3.28782 14.0054 1.00691C18.093 2.47709 19.5708 7.00109 20.0397 9.05982C18.7679 8.19473 17.1007 8.23254 15.8644 9.21582ZM13.0012 0.853273C14.685 2.66855 15.064 7.25164 15.1492 9.18036C13.8775 8.20418 12.1344 8.19709 10.8532 9.18036C10.9385 7.25164 11.3174 2.67091 12.9988 0.853273H13.0012Z" fill="#E74526"/>
<path d="M8.66124 15.0664H5.45461C5.25804 15.0664 5.09937 15.2248 5.09937 15.421V17.4135C5.09937 17.6097 5.25804 17.768 5.45461 17.768H8.66124C8.8578 17.768 9.01648 17.6097 9.01648 17.4135V15.421C9.01648 15.2248 8.8578 15.0664 8.66124 15.0664ZM8.306 17.059H5.80985V15.7755H8.306V17.059Z" fill="#E74526"/>
<path d="M5.91141 23.6903V22.6362C5.91141 22.1682 5.20093 22.1682 5.20093 22.6362V23.6903C5.20093 24.1583 5.91141 24.1583 5.91141 23.6903Z" fill="#E74526"/>
<path d="M7.42874 23.6903V22.6362C7.42874 22.1682 6.71826 22.1682 6.71826 22.6362V23.6903C6.71826 24.1583 7.42874 24.1583 7.42874 23.6903Z" fill="#E74526"/>
<path d="M8.93704 23.6903V22.6362C8.93704 22.1682 8.22656 22.1682 8.22656 22.6362V23.6903C8.22656 24.1583 8.93704 24.1583 8.93704 23.6903Z" fill="#E74526"/>
</svg>
