<svg width="40" height="40" viewBox="0 0 40 40" fill="none" xmlns="http://www.w3.org/2000/svg">
<path fill-rule="evenodd" clip-rule="evenodd" d="M32.1274 4.96269C32.4398 4.9515 32.7439 5.06488 32.9727 5.27789C33.2016 5.4909 33.3364 5.7861 33.3476 6.09853L33.8538 20.2348C33.865 20.5472 33.7517 20.8513 33.5386 21.0801C33.3256 21.309 33.0304 21.4438 32.718 21.455C32.4056 21.4662 32.1015 21.3528 31.8727 21.1398C31.6438 20.9268 31.509 20.6316 31.4978 20.3192L31.0934 9.02664L8.04512 33.7895C7.93952 33.9029 7.8126 33.9944 7.67162 34.0588C7.53064 34.1232 7.37835 34.1592 7.22345 34.1648C7.06856 34.1703 6.91409 34.1453 6.76886 34.0912C6.62363 34.037 6.49049 33.9548 6.37704 33.8492C6.26359 33.7436 6.17206 33.6167 6.10766 33.4757C6.04325 33.3347 6.00725 33.1824 6.00171 33.0275C5.99616 32.8726 6.02118 32.7182 6.07533 32.5729C6.12948 32.4277 6.2117 32.2946 6.31731 32.1811L29.368 7.42057L18.0755 7.82497C17.7631 7.83616 17.459 7.72278 17.2302 7.50977C17.0013 7.29676 16.8665 7.00156 16.8553 6.68913C16.8441 6.3767 16.9575 6.07262 17.1705 5.84379C17.3835 5.61496 17.6787 5.48011 17.9911 5.46893L32.1274 4.96269Z" fill="white"/>
</svg>
