<svg width="47" height="59" viewBox="0 0 47 59" fill="none" xmlns="http://www.w3.org/2000/svg">
<path d="M25.092 3.01524C25.3091 2.49051 25.5112 1.89744 25.8143 1.41685C26.0458 1.05019 26.4822 0.701321 26.9136 0.611612C27.1565 0.561773 27.1816 0.644361 27.3707 0.768246C27.8695 1.66178 27.4883 2.48767 27.2396 3.40256L29.8251 4.8201C30.4679 4.09389 31.2497 3.46379 32.0516 2.92056C32.5654 3.27512 33.0161 3.69518 33.479 4.11098C32.9824 4.91408 32.3912 5.67306 31.8366 6.43772C32.4242 7.17177 33.0935 7.83461 33.747 8.51028C34.3404 8.13222 35.0247 7.75701 35.7528 7.78621C36.2257 7.80543 36.4658 7.9585 36.7718 8.29883C36.852 8.70038 36.8857 8.97377 36.6772 9.35112C36.2716 10.0823 35.3336 10.3992 34.6041 10.7025L35.034 13.1994C36.058 13.2421 37.0749 13.4806 38.0803 13.6721C38.081 14.2865 38.0423 14.9024 38.0158 15.5161C36.9832 15.5361 35.9506 15.5795 34.9194 15.645C34.7761 16.5072 34.5754 17.3295 34.3418 18.1711C35.2218 18.8681 36.1734 19.4284 37.1358 20.0044C36.7037 20.653 36.1992 21.1792 35.656 21.7324C34.938 21.2304 34.2329 20.8154 33.4432 20.433C32.8893 21.1137 32.3325 21.6156 31.6144 22.1133C32.1411 23.1435 32.6721 24.1367 33.3335 25.0872C32.8534 25.5657 32.3332 25.948 31.7871 26.3467C31.0849 25.5685 30.3539 24.8188 29.5936 24.0954C29.0805 24.4763 28.4886 24.7633 27.9275 25.0701C27.6961 25.9138 28.3159 27.3043 27.8294 28.0661C27.2704 28.274 26.69 28.4371 26.1203 28.6158C25.7756 27.7087 25.5499 26.7326 25.2382 25.8077C24.3761 25.8035 23.5878 25.8768 22.7379 26.0228C22.4757 26.9554 22.1561 27.8041 21.7512 28.6855C21.2424 28.5289 20.7601 28.561 20.3639 28.1651C20.2127 27.8305 20.1259 27.6076 20.1331 27.2388C20.1453 26.5995 20.1037 25.9644 20.0708 25.3257L18.1568 24.3802C17.3456 25.0744 16.5673 25.8141 15.7777 26.5318L14.3588 25.3222C14.9543 24.4707 15.4745 23.6305 15.9446 22.7042C15.2724 21.9325 14.6304 21.1507 14.0077 20.3391C13.1922 20.6893 12.4118 21.1137 11.6264 21.5259C11.3677 21.2952 10.9112 20.9328 10.7729 20.6117C10.6783 20.3917 10.6425 20.2088 10.7178 19.9809C10.9736 19.1992 12.2577 18.641 12.9292 18.2316C12.6963 17.3794 12.5178 16.5058 12.3186 15.645C11.4172 15.5909 10.5143 15.4855 9.61492 15.4029L9.55615 13.6265C10.4462 13.3652 11.4014 13.2328 12.315 13.0598C12.6318 12.3663 12.8977 11.6565 13.1657 10.9438C12.3953 10.2368 11.6035 9.56044 10.8016 8.88834C11.0202 8.34723 11.3111 7.84031 11.587 7.32698L13.9009 8.41274C14.6246 7.59112 15.4516 6.84283 16.2377 6.07888C15.8593 5.70794 15.496 5.32632 15.1664 4.91195C14.8504 4.51609 14.6755 4.2014 14.74 3.67881C14.9987 3.25447 15.3283 3.12845 15.759 2.92197C16.4319 2.99317 17.5326 4.08107 18.1037 4.52107C18.7881 4.12308 19.5763 3.84896 20.3073 3.5421C20.3137 2.59304 20.1847 1.65181 20.1926 0.6999C20.6211 0.681389 21.2976 0.580294 21.6731 0.783918C22.3589 1.15486 22.5172 2.35453 22.7136 3.04657C23.5061 3.02379 24.2987 3.01311 25.092 3.01524Z" fill="#EC621A"/>
<path d="M22.4844 6.06102C24.5389 5.91862 26.4228 6.2141 28.195 7.33119C28.3139 7.40523 28.4307 7.48142 28.5454 7.56116C28.6601 7.6409 28.7726 7.72277 28.8829 7.80821C28.994 7.89293 29.1022 7.98122 29.2075 8.07164C29.3136 8.16277 29.4175 8.25605 29.5193 8.35145C29.6203 8.44757 29.7192 8.54582 29.8152 8.64692C29.9112 8.74731 30.0051 8.85054 30.0961 8.95591C30.1871 9.06128 30.2753 9.16951 30.3613 9.27915C30.4465 9.38951 30.5289 9.50129 30.6085 9.61592C30.6887 9.72984 30.7654 9.84589 30.8392 9.96408C30.913 10.0823 30.984 10.2019 31.0513 10.3236C31.1194 10.4454 31.1839 10.5685 31.2448 10.6931C31.3064 10.8177 31.3652 10.9445 31.4197 11.0719C31.4748 11.2001 31.5264 11.3289 31.5752 11.4592C31.6232 11.5895 31.6683 11.7212 31.7099 11.8537C31.7514 11.9868 31.7901 12.1199 31.8245 12.2552C31.8597 12.3898 31.8912 12.5251 31.9191 12.661C31.9464 12.8027 31.97 12.9451 31.9901 13.0882C32.0101 13.2313 32.0266 13.3744 32.0395 13.5183C32.0524 13.6621 32.0617 13.8066 32.0675 13.9504C32.0732 14.095 32.0754 14.2395 32.0739 14.384C32.0725 14.5278 32.0675 14.6724 32.0589 14.8162C32.0503 14.9607 32.0381 15.1045 32.0223 15.2477C32.0066 15.3915 31.9872 15.5346 31.9643 15.677C31.9413 15.8201 31.9148 15.9618 31.8847 16.1027C31.8546 16.2444 31.8217 16.3847 31.7844 16.5242C31.7479 16.6638 31.707 16.8026 31.6633 16.94C31.6196 17.0781 31.5723 17.2141 31.5214 17.3494C31.4713 17.4847 31.4168 17.6192 31.3595 17.7517C31.3021 17.8841 31.242 18.0158 31.1782 18.1454C31.1144 18.275 31.047 18.4031 30.9768 18.5299C30.9066 18.6559 30.8335 18.7805 30.7568 18.9037C30.6801 19.0261 30.6013 19.1471 30.5182 19.266C29.0685 21.3272 27.1 22.2478 24.6758 22.6785C24.4665 22.7035 24.2566 22.7205 24.0466 22.7291C23.8359 22.7383 23.626 22.7384 23.4153 22.7312C23.2046 22.7234 22.9946 22.7077 22.7854 22.6842C22.5761 22.66 22.3683 22.628 22.1619 22.5881C21.9549 22.5483 21.7499 22.5005 21.5471 22.4443C21.3443 22.3888 21.1437 22.3247 20.9459 22.2535C20.7474 22.1823 20.5532 22.1033 20.3612 22.0164C20.1698 21.9303 19.9813 21.8363 19.7972 21.7352C17.757 20.6181 16.1461 18.6253 15.5428 16.384C14.9752 14.2744 15.3966 11.8935 16.5123 10.0232C17.8667 7.75125 19.9964 6.65979 22.4844 6.06102Z" fill="white"/>
<path d="M22.6698 7.67571C24.0428 7.58173 25.3742 7.79246 26.6218 8.38625C28.2098 9.14237 29.4588 10.4503 30.0192 12.1213C30.5975 13.845 30.5158 15.9724 29.6551 17.5914C28.6218 19.5358 26.8217 20.4422 24.798 21.0509C23.2832 21.1705 21.8908 21.0395 20.5286 20.3069C20.4268 20.2535 20.3272 20.1972 20.2283 20.1389C20.1301 20.0805 20.0334 20.0192 19.9381 19.9559C19.8428 19.8925 19.7489 19.8263 19.6572 19.7579C19.5655 19.6896 19.4752 19.6191 19.387 19.5465C19.2989 19.4731 19.2129 19.3977 19.1283 19.3201C19.0445 19.2432 18.9621 19.1634 18.8818 19.0823C18.8016 19.0004 18.7235 18.9171 18.6475 18.8309C18.5723 18.7455 18.4985 18.6579 18.4275 18.5682C18.3566 18.4792 18.2878 18.3881 18.2211 18.2948C18.1545 18.2023 18.0907 18.1076 18.0291 18.0108C17.9675 17.9146 17.9087 17.8171 17.8521 17.7181C17.7955 17.6185 17.7417 17.5181 17.6901 17.4163C17.6392 17.3137 17.5905 17.2105 17.5447 17.1058C17.4995 17.0012 17.4565 16.8958 17.4157 16.789C17.3755 16.6822 17.3383 16.5747 17.3032 16.4658C17.2688 16.3568 17.2365 16.2479 17.2079 16.1375C17.1792 16.0243 17.1541 15.9111 17.1319 15.7972C17.109 15.6833 17.0896 15.5694 17.0731 15.454C17.0567 15.3394 17.043 15.2241 17.0323 15.1087C17.0216 14.9927 17.0144 14.8773 17.0094 14.7613C17.0051 14.6452 17.0029 14.5292 17.0043 14.4131C17.0058 14.2971 17.0108 14.181 17.018 14.065C17.0251 13.9496 17.0359 13.8336 17.0488 13.719C17.0624 13.6036 17.0789 13.4883 17.0982 13.3736C17.1176 13.259 17.1398 13.1458 17.1649 13.0319C17.19 12.9187 17.2179 12.8062 17.2494 12.6944C17.2802 12.5826 17.3139 12.4716 17.3505 12.3612C17.387 12.2509 17.4264 12.1419 17.4694 12.0337C17.5117 11.9255 17.5569 11.8187 17.6049 11.7126C17.6529 11.6065 17.703 11.5019 17.7568 11.3986C17.8098 11.2954 17.8657 11.1936 17.9245 11.0932C17.9832 10.9928 18.0441 10.8938 18.1079 10.797C19.19 9.13738 20.7543 8.12212 22.6698 7.67571Z" fill="#F27416"/>
<path d="M22.6969 10.6285C23.4486 10.5516 24.2691 10.4997 24.9929 10.7496C25.9603 11.0828 26.7428 11.7606 27.1814 12.6833C27.6171 13.5996 27.6937 14.6797 27.3362 15.6337C26.8525 16.9238 25.8678 17.6273 24.6547 18.1826C23.9531 18.3271 23.2931 18.3948 22.5923 18.199C22.4719 18.1662 22.3529 18.1271 22.2361 18.0822C22.12 18.0366 22.0061 17.9861 21.8943 17.9291C21.7833 17.8729 21.675 17.8102 21.5704 17.7426C21.4658 17.6743 21.3648 17.6016 21.2673 17.5233C21.1698 17.445 21.0774 17.3617 20.9885 17.2741C20.9004 17.1865 20.8166 17.094 20.7377 16.9979C20.6582 16.901 20.5844 16.8014 20.5163 16.6974C20.4475 16.5928 20.3844 16.486 20.3271 16.3756C20.2619 16.2531 20.2039 16.1285 20.1516 16.0004C20.1 15.8722 20.0548 15.7419 20.0161 15.6088C19.9782 15.4764 19.9466 15.3418 19.9222 15.2058C19.8986 15.0698 19.8814 14.9331 19.8714 14.7957C19.8613 14.6583 19.8585 14.5202 19.8628 14.3821C19.8678 14.244 19.8793 14.1065 19.8979 13.9698C19.9172 13.8331 19.943 13.6979 19.976 13.564C20.009 13.4294 20.0491 13.2977 20.0957 13.1674C20.5822 11.8538 21.4579 11.1974 22.6969 10.6285Z" fill="white"/>
<path d="M6.46547 30.5506L38.971 30.5513C38.9094 31.3565 38.9459 32.1604 38.9667 32.9663C41.0111 33.3344 42.9438 34.0428 44.463 35.5059C44.5612 35.6021 44.6565 35.7003 44.7503 35.8007C44.8435 35.9011 44.9338 36.0043 45.0219 36.109C45.1101 36.2144 45.1953 36.3212 45.2785 36.4301C45.3616 36.5397 45.4412 36.6501 45.5185 36.7633C45.5959 36.8765 45.6705 36.9911 45.7421 37.1079C45.8145 37.2247 45.8833 37.3429 45.9492 37.4625C46.0144 37.5828 46.0775 37.7045 46.1377 37.827C46.1972 37.9502 46.2545 38.0748 46.3075 38.2008C46.3612 38.3268 46.4121 38.4535 46.4601 38.5824C46.5074 38.7106 46.5519 38.8394 46.5927 38.9697C46.6336 39.1007 46.6715 39.2317 46.7059 39.3641C46.7411 39.4966 46.7719 39.6297 46.7998 39.7636C46.8285 39.8974 46.8528 40.032 46.8743 40.1665C46.8958 40.3018 46.9137 40.4371 46.9288 40.5731C46.9431 40.7091 46.9546 40.8451 46.9625 40.9818C46.9704 41.1177 46.9754 41.2544 46.9768 41.3911C46.9947 43.7492 45.965 46.1714 44.3096 47.8552C41.9098 50.2965 39.0083 50.3742 35.8323 50.4318C34.8104 52.2224 33.5994 53.692 32.2479 55.2362C36.6729 55.5267 41.2139 55.3494 45.6525 55.3665L45.6382 58.0628L45.5895 58.3803C44.8514 58.915 8.98645 58.2507 4.13437 58.5932C3.16123 57.3216 2.02901 56.1248 0.977051 54.9144C5.66574 55.0525 10.3759 54.9073 15.0668 54.8503C13.8865 53.9739 12.7127 53.0789 11.6923 52.0195C6.07276 46.1856 6.25765 38.0491 6.46547 30.5506Z" fill="#29324C"/>
<path d="M38.8893 36.2522C40.2802 36.3911 41.5994 36.9436 42.5769 37.956C42.6922 38.0756 42.8019 38.2002 42.9051 38.3305C43.0083 38.4608 43.105 38.5954 43.1946 38.7356C43.2841 38.8752 43.3666 39.019 43.4425 39.1664C43.517 39.3144 43.5851 39.4661 43.6453 39.6206C43.7048 39.7751 43.7571 39.9324 43.8015 40.0919C43.846 40.2521 43.8818 40.4138 43.9097 40.5768C43.9377 40.7405 43.9577 40.905 43.9692 41.0702C43.9807 41.2354 43.9843 41.4013 43.9785 41.5664C43.9362 43.3791 43.0226 44.7397 41.7435 45.9394C40.3067 46.8998 39.0526 46.9611 37.3794 46.9746C38.8828 43.4532 38.8986 40.0072 38.8893 36.2522Z" fill="white"/>
<path d="M22.7739 33.6565C27.0714 33.6757 31.3867 33.6194 35.6805 33.7725C35.8905 39.8321 35.7479 46.2008 31.3229 50.8991C29.2828 53.0642 26.2487 54.8748 23.1953 54.9638C23.0942 54.9666 22.9932 54.9673 22.8922 54.9688C22.7288 50.143 22.8055 45.2944 22.8205 40.4651C22.8277 38.2387 23.0075 35.8671 22.7739 33.6565Z" fill="#EC621A"/>
<path d="M9.44724 33.6529L22.7738 33.6565C23.0074 35.8671 22.8275 38.2387 22.8204 40.4651C22.8053 45.2944 22.7286 50.143 22.892 54.9688C19.7777 54.6135 16.5767 52.9631 14.3839 50.7474C9.69877 46.0135 9.37343 39.8884 9.44724 33.6529Z" fill="#F27416"/>
</svg>
