<svg width="46" height="48" viewBox="0 0 46 48" fill="none" xmlns="http://www.w3.org/2000/svg">
<path d="M14.2915 4.15625C14.711 3.4015 15.1837 2.72441 15.8099 2.12868C15.9027 2.03985 15.998 1.95288 16.0945 1.86902C16.1917 1.78454 16.2913 1.70316 16.3921 1.62365C16.4936 1.54476 16.5963 1.46836 16.7015 1.39444C16.8067 1.32052 16.9131 1.24908 17.022 1.18013C17.1309 1.11179 17.2411 1.04593 17.3531 0.983188C17.4644 0.919826 17.5783 0.860206 17.6928 0.802435C17.8078 0.745285 17.9242 0.691246 18.0417 0.639687C18.1593 0.588128 18.2781 0.53966 18.3981 0.494313C18.5182 0.448966 18.6394 0.406725 18.7613 0.366968C18.8838 0.327833 19.007 0.291814 19.1307 0.25889C19.2545 0.225346 19.3795 0.195529 19.5051 0.168817C19.6307 0.142106 19.7563 0.118486 19.8831 0.0979867C20.01 0.0774875 20.1368 0.0601134 20.2643 0.0464473C20.3923 0.0321598 20.5198 0.0215797 20.6479 0.0141258C20.776 0.00605011 20.904 0.00171614 21.0321 0.00109529C21.1608 -0.000147343 21.2889 0.00171614 21.417 0.00730705C23.556 0.0824714 25.5335 1.04096 26.9943 2.59519C23.3629 1.45654 20.2271 0.853378 16.6978 2.68341C15.8557 3.12011 15.1151 3.70775 14.2915 4.15625Z" fill="#F27416"/>
<path d="M14.2915 4.15653C15.1151 3.70802 15.8557 3.12039 16.6978 2.68369C20.2271 0.853655 23.3629 1.45681 26.9943 2.59546C28.7813 3.80555 30.5125 5.0523 31.7989 6.81897C33.3674 10.2032 34.087 13.6229 32.7759 17.2414C32.7091 17.4215 32.6379 17.5992 32.5624 17.7756C32.4869 17.9526 32.4071 18.1265 32.323 18.2992C32.2395 18.4719 32.151 18.6422 32.0588 18.8099C31.966 18.9782 31.8694 19.1441 31.7692 19.3074C31.6684 19.4702 31.5638 19.6311 31.4555 19.7895C31.3472 19.9473 31.2346 20.1026 31.1183 20.2554C31.0026 20.4076 30.8825 20.5573 30.7594 20.7039C30.6357 20.8505 30.5088 20.994 30.3783 21.1344C30.2477 21.2748 30.1141 21.4121 29.9767 21.5456C29.8393 21.6792 29.6989 21.8096 29.5553 21.9363C29.4118 22.0631 29.2645 22.1861 29.1148 22.3053C28.9651 22.4246 28.8128 22.5401 28.6575 22.652C28.5022 22.7638 28.3438 22.8719 28.183 22.9762C28.0221 23.08 27.8594 23.18 27.6935 23.2763C27.5277 23.3719 27.36 23.4638 27.1899 23.5514C27.0197 23.639 26.8471 23.7223 26.6732 23.8018C26.3224 23.9614 25.9679 24.1124 25.6102 24.2546C22.7838 24.8584 20.5625 24.8131 17.8035 23.9254C17.4904 23.7925 17.1841 23.6471 16.8841 23.4875C16.5846 23.3291 16.2919 23.157 16.0067 22.9725C15.7208 22.788 15.4442 22.5917 15.1757 22.383C14.9078 22.1749 14.6485 21.955 14.3992 21.7239C12.1049 19.5715 10.6453 16.3773 10.5611 13.2204C10.4658 9.67895 11.9019 6.68106 14.2915 4.15653Z" fill="#29324C"/>
<path d="M20.027 2.0465C22.5551 1.81976 25.157 2.27943 27.3269 3.65289C27.4723 3.74607 27.6153 3.84235 27.7557 3.94174C27.8962 4.04176 28.0341 4.14489 28.1703 4.25174C28.3058 4.35796 28.4388 4.46791 28.5694 4.58097C28.6993 4.6934 28.8274 4.80957 28.9517 4.92884C29.0767 5.04811 29.1986 5.16986 29.3174 5.29534C29.4362 5.4202 29.5519 5.54815 29.6645 5.67922C29.7772 5.80967 29.8867 5.94324 29.9931 6.07928C30.0989 6.21532 30.2022 6.35384 30.3018 6.49485C30.4008 6.63586 30.4974 6.77936 30.5896 6.92534C30.6824 7.0707 30.7715 7.21854 30.8569 7.36887C30.9422 7.51919 31.0245 7.67139 31.1025 7.82544C31.1805 7.97888 31.2547 8.13482 31.3252 8.2926C31.3958 8.45038 31.4626 8.61003 31.5257 8.77092C31.5888 8.93181 31.6476 9.09393 31.7027 9.25793C31.7577 9.4213 31.8091 9.58653 31.8561 9.75301C31.9032 9.91887 31.9465 10.0866 31.9855 10.2549C32.6376 13.1435 32.1859 16.132 30.5896 18.6342C28.9208 21.2488 26.616 22.5763 23.6435 23.2354C23.5204 23.2584 23.3966 23.2801 23.2723 23.3006C20.556 23.7392 18.0253 23.0652 15.8003 21.4501C13.3216 19.6511 11.7222 16.7004 11.2612 13.6883C10.859 11.0656 11.5891 8.18636 13.1558 6.0538C14.8549 3.7411 17.2265 2.45586 20.027 2.0465Z" fill="#EC621A"/>
<path d="M22.058 5.01126C22.1434 5.0243 22.23 5.033 22.3148 5.04977C23.2528 5.23799 22.6885 6.0735 23.1327 6.64003C23.5659 7.19351 24.3752 7.29352 24.8392 7.98304C25.1851 8.49677 25.3293 9.18443 25.1498 9.78761C25.0508 10.1175 24.937 10.2168 24.6487 10.3821C24.4401 10.3684 24.3393 10.3386 24.1636 10.2094C23.853 9.98081 23.7218 9.76835 23.6803 9.39128C23.6512 9.1279 23.6005 8.93534 23.4984 8.68686C23.2911 8.49491 23.1235 8.35389 22.8543 8.25637C22.4991 8.12778 22.2535 8.15823 21.9194 8.34273C21.49 8.58002 21.1905 9.22667 21.0686 9.68014C20.5253 11.7071 24.2619 12.0854 25.122 13.6067C25.5477 14.3596 25.552 15.3852 25.3212 16.2014C25.0094 17.3034 24.085 17.8054 23.1495 18.3011L22.9156 19.5093C22.8023 19.577 22.7671 19.605 22.6266 19.6491C22.2882 19.7559 22.0871 19.759 21.8 19.5739C21.7393 19.3161 21.6812 19.0533 21.5958 18.8024C21.4856 18.4762 21.3087 18.2501 20.9857 18.1135C20.7128 17.9979 20.547 17.9911 20.3292 17.7668C19.9369 17.3643 19.4995 16.1101 19.5397 15.5473C19.5552 15.338 19.5805 15.3846 19.7569 15.215C21.2425 15.0149 20.8749 16.3673 21.6725 16.7593C22.4546 16.7394 23.0777 16.7152 23.7379 16.2623C23.9402 15.9741 23.9798 15.7573 23.9823 15.4125C23.9947 13.5173 21.4695 13.5005 20.4109 12.3861C19.8565 11.8028 19.6752 11.0666 19.7228 10.2765C19.7804 9.32109 19.984 8.18617 20.7054 7.50285C20.9399 7.28109 21.2833 7.07858 21.4838 6.83073C21.6564 6.61828 21.6459 6.40646 21.6317 6.15239C21.6273 6.07722 21.6137 5.94119 21.6168 5.8654C21.6323 5.42311 21.7746 5.31067 22.058 5.01126Z" fill="white"/>
<path d="M35.2076 23.643C36.7978 23.9953 38.2871 24.3941 39.6898 25.2513C39.5877 25.9949 39.399 26.6304 39.8699 27.2882C40.1805 27.4677 40.423 27.5149 40.7726 27.4317C41.2212 27.3236 41.6661 27.1286 42.0874 26.9416C43.2878 28.0131 44.2172 29.3922 44.8817 30.8576C44.5104 31.4154 43.8837 32.1366 44.0278 32.8448C44.0792 33.0958 44.3069 33.3076 44.5234 33.4331C44.9231 33.6654 45.3909 33.7051 45.8401 33.7623C45.9261 35.3308 46.2615 37.5037 45.5908 38.953C44.8817 39.3692 43.862 39.312 43.4815 40.1053C43.578 40.8352 44.1652 41.2266 44.6961 41.6595C44.0959 43.0491 42.3684 45.4942 40.9836 46.1303C40.8382 46.1973 40.6946 46.2247 40.5387 46.2545C40.014 46.006 39.5995 45.6221 39.1577 45.2525C38.7035 45.5556 38.1522 45.8221 38.0477 46.4079C38.0217 46.557 38.0149 46.7049 38.005 46.8552L37.9672 47.4546C34.9663 48.3082 32.711 48.1069 29.733 47.2186L29.7008 45.6091C29.1643 45.4531 28.6297 45.2817 28.0791 45.1829L26.9566 46.0197C25.3665 44.7183 24.2119 43.1709 23.0753 41.4694C23.5826 40.9998 24.1537 40.5923 24.1983 39.8419C24.2131 39.5941 24.1463 39.33 23.9625 39.1586C23.7027 38.9163 23.3704 38.8182 23.0171 38.8269C22.7133 38.8343 22.4015 38.9213 22.1069 38.9933C22.1793 37.9224 22.1143 34.8637 22.821 34.2033C22.8804 33.6722 22.9224 33.1933 22.7622 32.6764C22.6038 32.1658 22.3222 31.4949 22.4311 30.97C22.6279 30.7209 22.751 30.6296 23.0437 30.5078C23.1316 30.3643 23.199 30.1737 23.2677 30.0184C23.3234 29.7643 23.402 29.5344 23.514 29.2996C23.9198 28.4517 24.4266 27.2665 25.4321 27.0186C26.0409 26.8683 26.6467 27.2745 27.1664 27.5454C27.6237 27.4025 28.0401 27.1702 28.4658 26.9521C28.3395 26.3806 28.1867 25.8129 28.0463 25.2451C28.5456 25.0041 29.0431 24.7587 29.5381 24.5077C30.5225 24.1238 31.4518 23.9213 32.5031 23.8157C32.7957 24.3717 33.0562 25.0792 33.7034 25.2836C33.8959 25.3439 34.0809 25.3085 34.2585 25.2091C34.7788 24.9177 35.0028 24.1586 35.2076 23.643Z" fill="#1C2847"/>
<path d="M22.821 34.2031C22.8804 33.672 22.9224 33.1931 22.7622 32.6762C22.6038 32.1656 22.3222 31.4947 22.4311 30.9698C22.6279 30.7207 22.751 30.6294 23.0437 30.5076C23.6427 31.2406 24.3029 31.9718 24.7985 32.7781C24.1358 33.1738 23.4706 33.9 22.821 34.2031Z" fill="white"/>
<path d="M32.8354 28.8404C34.4974 28.7646 35.9564 28.869 37.455 29.6728C39.2178 30.6182 40.3977 32.2358 40.954 34.1423C41.5047 36.0301 41.3828 38.085 40.4089 39.8188C39.3415 41.7171 37.6746 42.8179 35.6241 43.4298C33.7889 43.6534 32.0373 43.4788 30.4409 42.4439C28.675 41.2991 27.5674 39.433 27.1634 37.3868C26.7773 35.4275 27.1745 33.4925 28.2802 31.8414C29.3822 30.1983 30.9056 29.2119 32.8354 28.8404Z" fill="white"/>
<path d="M33.8887 30.0299C35.0501 30.0764 36.0809 30.3019 37.0944 30.9057C37.181 30.9567 37.2664 31.0095 37.35 31.0648C37.4341 31.1201 37.5164 31.1778 37.5975 31.2375C37.6779 31.2971 37.7571 31.3586 37.8344 31.4226C37.9124 31.4859 37.9879 31.5518 38.0621 31.6195C38.1364 31.6872 38.2088 31.7574 38.2787 31.8288C38.3492 31.9003 38.4179 31.9736 38.4847 32.0487C38.5516 32.1239 38.6159 32.2009 38.679 32.2798C38.7415 32.3581 38.8015 32.4382 38.8603 32.5202C38.9185 32.6022 38.9748 32.6855 39.0292 32.7699C39.0831 32.8551 39.135 32.9408 39.1845 33.0284C39.234 33.116 39.2817 33.2048 39.3262 33.2949C39.3714 33.3849 39.4141 33.4756 39.4543 33.5682C39.4939 33.6601 39.5317 33.7539 39.5675 33.8477C39.6028 33.9421 39.6356 34.0372 39.6659 34.1328C39.6962 34.2291 39.7241 34.326 39.7495 34.423C39.7742 34.5205 39.7971 34.6186 39.8175 34.7174C40.1826 36.4319 39.9277 38.293 38.9191 39.7478C37.8437 41.2996 36.3365 41.9164 34.547 42.209C33.1672 42.1512 31.8877 41.8512 30.7541 41.0126C29.4498 40.0466 28.6281 38.5359 28.419 36.9319C28.1962 35.2237 28.6294 33.4564 29.7276 32.1183C30.8358 30.7678 32.1915 30.169 33.8887 30.0299Z" fill="#1C2847"/>
<path d="M35.7784 32.6754C36.274 33.1712 36.7009 33.8973 37.1161 34.4719C37.1471 35.6876 37.4317 39.0185 37.0679 39.9782L36.7857 40.0764L35.0309 40.0801C35.0303 37.8171 34.5947 34.6459 35.7784 32.6754Z" fill="white"/>
<path d="M32.1281 32.8586C32.2995 32.8878 32.4443 32.8785 32.5817 32.9984C32.9789 33.3456 33.115 33.9836 33.1862 34.483C33.3136 35.3769 33.5048 39.5439 33.0791 40.108L32.4845 40.1191C32.0471 40.0912 31.6239 40.0458 31.192 39.9719C30.9946 39.1755 30.9253 35.29 31.1833 34.5253C31.3714 33.9681 31.8503 33.3897 32.1281 32.8586Z" fill="white"/>
<mask id="mask0_504_33452" style="mask-type:luminance" maskUnits="userSpaceOnUse" x="0" y="6" width="36" height="42">
<path d="M31.7988 6.81908C33.9737 8.74167 34.8598 10.6922 35.0287 13.5901C35.205 16.6141 34.3146 19.5989 32.2685 21.8663C31.4152 22.8111 30.4128 23.5957 29.5379 24.5088C29.0429 24.7598 28.5455 25.0051 28.0461 25.2462C28.1866 25.8139 28.3394 26.3817 28.4657 26.9532C28.04 27.1712 27.6235 27.4036 27.1663 27.5464C26.6465 27.2756 26.0408 26.8693 25.4319 27.0197C24.4265 27.2675 23.9197 28.4528 23.5138 29.3007C23.4018 29.5355 23.3233 29.7654 23.2676 30.0194C23.1989 30.1747 23.1314 30.3654 23.0436 30.5089C22.7509 30.6307 22.6278 30.722 22.431 30.9711C22.3221 31.496 22.6037 32.1669 22.7621 32.6775C22.9223 33.1943 22.8802 33.6733 22.8208 34.2044C22.1142 34.8647 22.1792 37.9235 22.1068 38.9944C22.0907 39.743 22.5337 40.6045 22.376 41.2711C21.9255 43.1701 19.3528 45.3325 17.7638 46.2965C17.3437 45.7847 16.9075 45.1511 16.1693 45.1467C15.8637 45.1455 15.4968 45.3498 15.2938 45.5791C15.1088 45.789 15.128 45.9866 15.1323 46.2487C15.1373 46.537 15.1261 46.7774 15.0803 47.0619C14.925 47.2644 14.8161 47.3719 14.5835 47.4905C13.2117 48.1912 9.99055 47.9086 8.58785 47.3613C8.26487 47.2358 8.02851 47.1091 7.8763 46.7842C7.8831 46.4661 7.91157 46.1027 7.8138 45.7965C7.6288 45.2169 6.86217 44.9399 6.36717 44.679L5.45639 45.9319C3.77773 44.8374 2.3441 43.0328 1.3077 41.3369L2.30573 40.3822C2.20797 39.9219 2.12815 39.0839 1.81259 38.7174C1.44444 38.2888 0.634506 38.3496 0.119711 38.3254C-0.0244569 36.6407 -0.0591067 35.0026 0.132086 33.3211C0.529939 33.2291 1.14311 33.1484 1.47723 32.9117C1.81444 32.6725 2.11825 32.3241 2.13744 31.8892C2.17085 31.1196 1.61893 30.594 1.12269 30.0933C2.11887 28.2211 3.62365 26.5768 5.18042 25.1617C5.68902 25.4729 6.18712 25.8046 6.68892 26.1264L8.29333 25.0586C8.38058 24.6001 8.42883 24.1734 8.81183 23.8547C10.2696 22.639 13.2507 23.1161 15.0426 23.2211C15.037 23.6621 14.9764 24.1995 15.1725 24.6082C15.5394 25.371 16.5041 25.5574 17.236 25.8108C17.4922 25.1716 17.7094 24.6138 17.8034 23.9255C20.5624 24.8132 22.7837 24.8585 25.6101 24.2547C25.9678 24.1125 26.3223 23.9615 26.6732 23.8019C26.847 23.7224 27.0196 23.6391 27.1898 23.5515C27.36 23.4639 27.5276 23.372 27.6935 23.2764C27.8593 23.1801 28.022 23.0801 28.1829 22.9763C28.3438 22.872 28.5022 22.7639 28.6575 22.6521C28.8128 22.5403 28.965 22.4247 29.1147 22.3054C29.2645 22.1862 29.4117 22.0632 29.5553 21.9364C29.6988 21.8097 29.8393 21.6793 29.9766 21.5457C30.114 21.4122 30.2476 21.2749 30.3782 21.1345C30.5087 20.9941 30.6356 20.8506 30.7593 20.704C30.8825 20.5574 31.0025 20.4077 31.1182 20.2555C31.2345 20.1027 31.3471 19.9474 31.4554 19.7896C31.5637 19.6312 31.6683 19.4703 31.7691 19.3075C31.8694 19.1442 31.9659 18.9783 32.0587 18.81C32.1509 18.6423 32.2394 18.472 32.3229 18.2993C32.4071 18.1267 32.4869 17.9527 32.5624 17.7757C32.6378 17.5993 32.709 17.4216 32.7758 17.2415C34.0869 13.623 33.3673 10.2033 31.7988 6.81908Z" fill="white"/>
</mask>
<g mask="url(#mask0_504_33452)">
<path d="M31.7988 6.81908C33.9737 8.74167 34.8598 10.6922 35.0287 13.5901C35.205 16.6141 34.3146 19.5989 32.2685 21.8663C31.4152 22.8111 30.4128 23.5957 29.5379 24.5088C29.0429 24.7598 28.5455 25.0051 28.0461 25.2462C28.1866 25.8139 28.3394 26.3817 28.4657 26.9532C28.04 27.1712 27.6235 27.4036 27.1663 27.5464C26.6465 27.2756 26.0408 26.8693 25.4319 27.0197C24.4265 27.2675 23.9197 28.4528 23.5138 29.3007C23.4018 29.5355 23.3233 29.7654 23.2676 30.0194C23.1989 30.1747 23.1314 30.3654 23.0436 30.5089C22.7509 30.6307 22.6278 30.722 22.431 30.9711C22.3221 31.496 22.6037 32.1669 22.7621 32.6775C22.9223 33.1943 22.8802 33.6733 22.8208 34.2044C22.1142 34.8647 22.1792 37.9235 22.1068 38.9944C22.0907 39.743 22.5337 40.6045 22.376 41.2711C21.9255 43.1701 19.3528 45.3325 17.7638 46.2965C17.3437 45.7847 16.9075 45.1511 16.1693 45.1467C15.8637 45.1455 15.4968 45.3498 15.2938 45.5791C15.1088 45.789 15.128 45.9866 15.1323 46.2487C15.1373 46.537 15.1261 46.7774 15.0803 47.0619C14.925 47.2644 14.8161 47.3719 14.5835 47.4905C13.2117 48.1912 9.99055 47.9086 8.58785 47.3613C8.26487 47.2358 8.02851 47.1091 7.8763 46.7842C7.8831 46.4661 7.91157 46.1027 7.8138 45.7965C7.6288 45.2169 6.86217 44.9399 6.36717 44.679L5.45639 45.9319C3.77773 44.8374 2.3441 43.0328 1.3077 41.3369L2.30573 40.3822C2.20797 39.9219 2.12815 39.0839 1.81259 38.7174C1.44444 38.2888 0.634506 38.3496 0.119711 38.3254C-0.0244569 36.6407 -0.0591067 35.0026 0.132086 33.3211C0.529939 33.2291 1.14311 33.1484 1.47723 32.9117C1.81444 32.6725 2.11825 32.3241 2.13744 31.8892C2.17085 31.1196 1.61893 30.594 1.12269 30.0933C2.11887 28.2211 3.62365 26.5768 5.18042 25.1617C5.68902 25.4729 6.18712 25.8046 6.68892 26.1264L8.29333 25.0586C8.38058 24.6001 8.42883 24.1734 8.81183 23.8547C10.2696 22.639 13.2507 23.1161 15.0426 23.2211C15.037 23.6621 14.9764 24.1995 15.1725 24.6082C15.5394 25.371 16.5041 25.5574 17.236 25.8108C17.4922 25.1716 17.7094 24.6138 17.8034 23.9255C20.5624 24.8132 22.7837 24.8585 25.6101 24.2547C25.9678 24.1125 26.3223 23.9615 26.6732 23.8019C26.847 23.7224 27.0196 23.6391 27.1898 23.5515C27.36 23.4639 27.5276 23.372 27.6935 23.2764C27.8593 23.1801 28.022 23.0801 28.1829 22.9763C28.3438 22.872 28.5022 22.7639 28.6575 22.6521C28.8128 22.5403 28.965 22.4247 29.1147 22.3054C29.2645 22.1862 29.4117 22.0632 29.5553 21.9364C29.6988 21.8097 29.8393 21.6793 29.9766 21.5457C30.114 21.4122 30.2476 21.2749 30.3782 21.1345C30.5087 20.9941 30.6356 20.8506 30.7593 20.704C30.8825 20.5574 31.0025 20.4077 31.1182 20.2555C31.2345 20.1027 31.3471 19.9474 31.4554 19.7896C31.5637 19.6312 31.6683 19.4703 31.7691 19.3075C31.8694 19.1442 31.9659 18.9783 32.0587 18.81C32.1509 18.6423 32.2394 18.472 32.3229 18.2993C32.4071 18.1267 32.4869 17.9527 32.5624 17.7757C32.6378 17.5993 32.709 17.4216 32.7758 17.2415C34.0869 13.623 33.3673 10.2033 31.7988 6.81908Z" fill="url(#paint0_linear_504_33452)"/>
</g>
<path d="M25.5568 26.2035C26.4144 25.9482 27.2237 25.5985 28.046 25.2463C28.1864 25.814 28.3393 26.3818 28.4655 26.9533C28.0398 27.1713 27.6234 27.4037 27.1661 27.5465C26.6464 27.2757 26.0406 26.8694 25.4318 27.0198C24.4263 27.2676 23.9196 28.4529 23.5137 29.3008C23.4017 29.5356 23.3231 29.7655 23.2674 30.0195C22.4358 28.7281 21.5213 27.5217 20.5518 26.3327C22.202 26.3433 23.9227 26.4352 25.5568 26.2035Z" fill="white"/>
<path d="M31.7987 6.81878C33.9736 8.74137 34.8596 10.6919 35.0286 13.5898C35.2049 16.6138 34.3145 19.5986 32.2683 21.866C31.4151 22.8108 30.4127 23.5953 29.5378 24.5085C29.0428 24.7595 28.5453 25.0048 28.046 25.2459C27.2237 25.5981 26.4144 25.9478 25.5568 26.2031L25.1484 26.036L25.2029 26.1957L25.3508 25.9304C25.7758 26.0037 27.7156 25.1396 28.2787 24.9247C30.1504 24.211 33.1358 20.6745 33.9748 18.7569C35.0137 16.3821 35.1931 12.976 34.239 10.5577C34.1945 10.7615 34.1376 10.9621 34.0837 11.1634L33.8845 11.2777L33.6543 11.1392L33.6141 10.7404C33.4823 11.4374 33.7224 12.1598 33.7236 12.8661C33.7292 15.3503 33.1284 17.6437 31.7882 19.7371C30.4938 21.7597 28.2044 23.8867 25.7938 24.4085L25.61 24.2544C25.9677 24.1122 26.3222 23.9612 26.673 23.8016C26.8469 23.7221 27.0195 23.6388 27.1897 23.5512C27.3598 23.4636 27.5275 23.3717 27.6933 23.2761C27.8592 23.1798 28.0219 23.0798 28.1828 22.976C28.3436 22.8717 28.502 22.7636 28.6573 22.6518C28.8126 22.54 28.9649 22.4244 29.1146 22.3051C29.2643 22.1859 29.4116 22.0629 29.5551 21.9361C29.6987 21.8094 29.8391 21.679 29.9765 21.5454C30.1139 21.4119 30.2475 21.2746 30.3781 21.1342C30.5086 20.9938 30.6355 20.8503 30.7592 20.7037C30.8823 20.5571 31.0024 20.4074 31.1181 20.2552C31.2344 20.1024 31.347 19.9471 31.4553 19.7893C31.5636 19.6309 31.6682 19.47 31.769 19.3072C31.8692 19.1439 31.9658 18.978 32.0586 18.8097C32.1508 18.642 32.2393 18.4717 32.3228 18.299C32.4069 18.1264 32.4867 17.9524 32.5622 17.7754C32.6377 17.599 32.7089 17.4213 32.7757 17.2412C34.0868 13.6227 33.3672 10.203 31.7987 6.81878Z" fill="#EC621A"/>
<path d="M10.78 28.0684C12.4141 27.9032 14.0371 27.9858 15.5264 28.7623C15.631 28.8182 15.7349 28.876 15.8376 28.9369C15.9397 28.9971 16.04 29.0605 16.1396 29.1263C16.2386 29.1916 16.3357 29.2599 16.4316 29.3301C16.5275 29.4009 16.621 29.4742 16.7132 29.5494C16.8053 29.6245 16.8957 29.7022 16.9836 29.7817C17.072 29.8618 17.158 29.9438 17.2422 30.0277C17.3263 30.1122 17.408 30.1985 17.4878 30.2867C17.5676 30.3749 17.6456 30.465 17.7205 30.5569C17.796 30.6495 17.869 30.7433 17.9395 30.8396C18.01 30.9353 18.0781 31.0328 18.1437 31.1322C18.2099 31.2316 18.273 31.3322 18.3336 31.4347C18.3943 31.5372 18.4524 31.6409 18.5081 31.7465C18.5638 31.8521 18.6164 31.9584 18.6665 32.0665C18.7167 32.1745 18.7643 32.2839 18.8088 32.3944C18.854 32.505 18.8955 32.6162 18.9351 32.7286C18.974 32.8417 19.0106 32.9547 19.044 33.069C19.6231 35.1078 19.3509 37.4603 18.2879 39.2928C17.1772 41.2079 15.4719 42.3963 13.3534 42.9491C11.7725 43.2063 10.2411 43.1082 8.7858 42.3876C8.6769 42.3317 8.56923 42.2739 8.4628 42.213C8.35638 42.1521 8.25182 42.0894 8.14849 42.0236C8.04516 41.9577 7.94368 41.8888 7.84344 41.818C7.74382 41.7471 7.64544 41.6738 7.54954 41.598C7.45301 41.5223 7.35835 41.444 7.26616 41.3639C7.17335 41.2837 7.08301 41.2011 6.99453 41.116C6.90605 41.0315 6.82004 40.9446 6.73527 40.8551C6.65112 40.7663 6.56945 40.675 6.48964 40.5818C6.40982 40.4886 6.33247 40.3935 6.25761 40.2966C6.18212 40.1997 6.10972 40.101 6.03918 40.0003C5.96927 39.8997 5.9012 39.7978 5.83623 39.6935C5.77064 39.5897 5.70816 39.4841 5.64814 39.3773C5.58812 39.2704 5.53058 39.1617 5.47551 39.0524C5.42106 38.9424 5.36846 38.8312 5.31896 38.7188C5.27008 38.6064 5.22306 38.4927 5.17975 38.3784C5.13581 38.2635 5.09498 38.1479 5.05661 38.0311C4.40384 36.0806 4.53935 33.8375 5.49346 32.008C6.63318 29.8239 8.51725 28.7685 10.78 28.0684Z" fill="white"/>
<path d="M11.4432 29.3582C12.6331 29.3005 13.5792 29.3607 14.6712 29.8869C14.7603 29.9291 14.8482 29.9732 14.9354 30.0198C15.0221 30.0664 15.1081 30.1149 15.1922 30.1658C15.2764 30.2167 15.3599 30.2695 15.4416 30.3248C15.5232 30.3801 15.6031 30.4379 15.6817 30.4969C15.7602 30.5565 15.8376 30.618 15.9131 30.6814C15.9886 30.7447 16.0628 30.81 16.1346 30.8771C16.207 30.9448 16.2775 31.0137 16.3456 31.0845C16.4142 31.1553 16.4811 31.228 16.546 31.3019C16.611 31.3765 16.6741 31.4529 16.7348 31.5306C16.796 31.6082 16.8548 31.6871 16.9117 31.7678C16.9686 31.8486 17.0231 31.9306 17.0757 32.0145C17.1283 32.0977 17.179 32.1828 17.2267 32.2685C17.2749 32.3549 17.3213 32.4425 17.3653 32.5313C17.4086 32.6195 17.45 32.709 17.4896 32.7997C17.5286 32.891 17.5651 32.9823 17.5998 33.0748C17.6338 33.1674 17.666 33.2612 17.6957 33.355C18.1975 34.9856 18.0304 36.9418 17.1982 38.4351C16.2459 40.1434 14.6855 41.0889 12.8496 41.569C11.6177 41.7262 10.4087 41.5728 9.29434 40.9944C9.20462 40.9472 9.11615 40.8981 9.02953 40.846C8.94228 40.7944 8.85627 40.7404 8.77212 40.6844C8.68735 40.6285 8.60445 40.5701 8.52277 40.5105C8.44172 40.4496 8.36189 40.3875 8.28331 40.3235C8.20473 40.2596 8.12801 40.1931 8.05314 40.1254C7.97765 40.057 7.90465 39.9869 7.83287 39.9154C7.7611 39.8434 7.69117 39.7701 7.62373 39.6943C7.55567 39.6191 7.48946 39.5421 7.42573 39.4638C7.36138 39.3849 7.29951 39.3048 7.23949 39.2228C7.17947 39.1414 7.12132 39.0582 7.06501 38.9737C7.00932 38.8886 6.95549 38.8029 6.90414 38.7153C6.85216 38.6277 6.80266 38.5389 6.75564 38.4494C6.70861 38.3593 6.66344 38.2686 6.62075 38.1767C6.57805 38.0841 6.53784 37.991 6.50009 37.8972C6.46173 37.8027 6.42646 37.7077 6.39304 37.612C6.35963 37.5158 6.32869 37.4188 6.30023 37.3213C6.27239 37.2238 6.24765 37.125 6.22413 37.0256C6.20124 36.9268 6.18082 36.8268 6.16349 36.7268C6.14555 36.6262 6.13008 36.5256 6.11709 36.4249C6.10409 36.3237 6.09357 36.2224 6.08615 36.1212C6.07811 36.0193 6.07254 35.918 6.07006 35.8162C6.06759 35.7143 6.06697 35.6124 6.06945 35.5105C6.07192 35.4087 6.07688 35.3068 6.0843 35.2055C6.09172 35.1043 6.10162 35.003 6.11399 34.9018C6.12637 34.8005 6.14122 34.6999 6.15917 34.5992C6.17649 34.4992 6.19629 34.3992 6.21856 34.3004C6.24146 34.2011 6.2662 34.1023 6.29404 34.0041C6.32127 33.906 6.35097 33.8085 6.38315 33.7122C6.41532 33.6159 6.44998 33.5202 6.4871 33.4252C6.52423 33.3302 6.5632 33.2363 6.60528 33.1438C6.64673 33.0506 6.69129 32.9593 6.73708 32.8686C6.78348 32.7779 6.83174 32.6885 6.8831 32.6002C7.90774 30.8168 9.53009 29.8937 11.4432 29.3582Z" fill="#F8A42C"/>
<path d="M12.1971 31.0924C12.2329 31.1166 12.2719 31.1365 12.3041 31.1651C12.7917 31.5856 12.8337 32.7311 12.9296 33.3405C13.2378 33.484 13.5614 33.6256 13.8435 33.8163C14.5291 34.2797 15.4702 35.4855 15.5537 36.3197C15.5618 36.4048 15.5593 36.5459 15.5519 36.6322C15.4492 37.882 13.9042 37.2472 13.2477 37.8212C12.6815 38.3162 12.8857 39.2468 12.3746 39.8127C11.9595 39.9307 11.7274 39.8394 11.3389 39.7059C11.0635 39.089 10.9534 38.4821 10.8352 37.8237C10.8005 37.8075 10.7659 37.7913 10.7306 37.7758C10.6718 37.7503 10.6118 37.728 10.5543 37.7006C9.71279 37.3081 8.65288 37.7354 7.96051 37.2447C7.84109 37.1608 7.82438 37.1546 7.82809 37.0161C7.85284 36.006 10.5085 34.076 11.118 33.1461C11.6458 32.341 11.3438 31.8061 12.1971 31.0924Z" fill="white"/>
<defs>
<linearGradient id="paint0_linear_504_33452" x1="38.6954" y1="17.4614" x2="1.68046" y2="41.4795" gradientUnits="userSpaceOnUse">
<stop stop-color="#F46D16"/>
<stop offset="1" stop-color="#F5A427"/>
</linearGradient>
</defs>
</svg>
