<svg width="48" height="48" viewBox="0 0 48 48" fill="none" xmlns="http://www.w3.org/2000/svg">
<path d="M23.2192 0.0137362C23.7664 0.00669956 24.3167 -0.0131264 24.8639 0.0156603L25.3039 3.86988C25.3332 4.40403 25.3785 4.94138 25.3626 5.47681C25.103 6.19712 24.8683 7.28397 24.3033 7.80469C23.8499 7.49123 23.3908 6.2886 23.0171 5.76341C22.7664 5.10835 22.621 4.56267 22.5713 3.85836C22.8111 2.58087 23.0273 1.29954 23.2192 0.0137362Z" fill="#0D0E1F"/>
<path d="M42.7989 22.9549C43.2835 22.8276 43.6617 22.8628 44.1559 22.9184C44.8255 23.5562 47.1047 24.3124 48.0001 24.7064C47.3069 24.9815 44.4014 25.8227 44.0558 26.2257C43.5896 26.4381 43.2568 26.5648 42.7415 26.582C42.1121 25.5412 40.5669 24.7793 39.498 24.2842C40.5815 23.7974 41.6899 23.379 42.7989 22.9549Z" fill="#0D0E1F"/>
<path d="M5.33642 22.1986C6.24453 23.2222 7.57543 23.7186 8.62894 24.5713C7.36435 24.9193 6.25536 25.3837 5.11512 26.0317L4.78032 26.0586C3.17009 25.6076 1.58345 24.9801 0 24.4376C1.34303 23.7998 2.70009 23.1934 4.07119 22.6176L5.33642 22.1986Z" fill="#0D0E1F"/>
<path d="M4.78017 26.0589L5.11498 26.0321C5.15643 26.9264 5.44149 27.8117 5.6749 28.6721C6.67356 32.3511 8.25445 35.7339 11.1159 38.3266C14.5277 41.417 18.6205 42.8135 22.9742 43.9988L23.1324 44.9609C19.1058 44.7997 15.057 43.5568 11.8123 41.1278C7.34061 37.7803 4.71704 33.0247 3.92627 27.5136C4.21898 27.0332 4.50404 26.5483 4.78017 26.0589Z" fill="#F27416"/>
<path d="M44.0556 26.2252C44.1646 30.6085 41.9065 35.3551 38.9507 38.4979C35.6256 42.0336 30.8753 44.5425 25.9623 44.6448C25.755 44.6487 25.5484 44.6493 25.3418 44.6474L25.4572 43.4889C28.0891 42.8665 30.6967 42.2664 33.069 40.9096C38.9417 37.5505 41.0264 32.8589 42.7413 26.5815C43.2565 26.5642 43.5894 26.4376 44.0556 26.2252Z" fill="#F27416"/>
<path d="M4.07129 22.6172C4.28747 18.621 5.50232 15.0706 7.96582 11.8861C11.6907 7.07237 16.6101 4.61654 22.5714 3.85658C22.6212 4.56089 22.7666 5.10656 23.0172 5.76162C17.802 6.148 13.3105 8.14004 9.87259 12.1715C7.36126 15.1167 6.23889 18.4981 5.33652 22.1982L4.07129 22.6172Z" fill="#F27416"/>
<path d="M25.3037 3.87017C31.0629 4.4248 36.0358 6.93178 39.7231 11.4142C41.7931 13.9308 42.9838 16.6342 43.7733 19.7898C44.0009 20.7021 44.2796 21.8094 44.1769 22.7523C44.1705 22.8086 44.1629 22.8643 44.1559 22.9206C43.6617 22.8649 43.2835 22.8297 42.7988 22.957C41.8512 18.7401 40.6306 14.994 37.7232 11.6906C34.886 8.46709 29.665 5.75538 25.3624 5.47711C25.3783 4.94167 25.333 4.40433 25.3037 3.87017Z" fill="#F27416"/>
<path d="M25.3622 5.47629C29.6649 5.75456 34.8859 8.46627 37.7231 11.6897C40.6305 14.9932 41.8511 18.7393 42.7987 22.9562C41.6897 23.3803 40.5813 23.7987 39.4979 24.2855C40.5667 24.7807 42.1119 25.5425 42.7413 26.5833C41.0265 32.8608 38.9418 37.5524 33.069 40.9114C30.6967 42.2683 28.0891 42.8683 25.4573 43.4907L25.3418 44.6492C24.9681 45.7809 24.5543 46.8984 24.1002 48C23.7628 46.9912 23.4261 45.9843 23.1322 44.9614L22.974 43.9993C18.6203 42.8139 14.5274 41.4175 11.1157 38.327C8.25422 35.7343 6.67333 32.3515 5.67467 28.6726C5.44126 27.8122 5.1562 26.9269 5.11475 26.0325C6.25498 25.3845 7.36397 24.9201 8.62856 24.5721C7.57506 23.7194 6.24415 23.223 5.33604 22.1994C6.23841 18.4994 7.36078 15.1179 9.87211 12.1727C13.31 8.1413 17.8015 6.14926 23.0167 5.76288C23.3904 6.28808 23.8496 7.49071 24.303 7.80416C24.868 7.28344 25.1027 6.19659 25.3622 5.47629Z" fill="white"/>
<path d="M22.4775 41.8876C23.5126 41.3125 24.5074 40.6575 25.5105 40.028C25.5073 41.1814 25.4767 42.3367 25.4576 43.4907L25.3422 44.6492C24.9685 45.7809 24.5546 46.8984 24.1005 48C23.7632 46.9912 23.4265 45.9843 23.1325 44.9614L22.9743 43.9993L22.4775 41.8876Z" fill="#0D0E1F"/>
<path d="M12.1865 29.8087C13.0002 30.4017 13.8624 30.9128 14.7731 31.3414C17.484 32.6074 21.2389 33.1185 24.0602 31.9389C25.5429 31.319 26.9905 30.2993 28.382 29.4773C30.1421 28.4372 31.9443 27.4533 33.6871 26.3856C34.6392 25.8028 35.819 24.6834 36.8464 24.345C36.9006 24.3277 36.9554 24.3117 37.0096 24.2951C36.928 28.0866 35.5716 31.603 32.7975 34.238C32.6432 34.3864 32.485 34.5303 32.3243 34.6704C32.1623 34.8112 31.9978 34.9474 31.8295 35.0792C31.6617 35.211 31.4902 35.3389 31.3155 35.463C31.1414 35.5865 30.9641 35.7055 30.7836 35.8206C30.6031 35.9351 30.4201 36.0452 30.2345 36.1514C30.0483 36.2569 29.8602 36.358 29.6695 36.4539C29.4788 36.5505 29.2863 36.642 29.0905 36.729C28.8953 36.816 28.6983 36.8979 28.4987 36.9747C28.2997 37.0521 28.0982 37.1237 27.896 37.1909C27.6926 37.258 27.4885 37.3201 27.2825 37.377C27.0766 37.434 26.8693 37.4858 26.6608 37.5318C26.4529 37.5792 26.2431 37.6201 26.0326 37.6566C25.8222 37.6931 25.6111 37.7238 25.3987 37.7493C25.187 37.7749 24.974 37.7954 24.761 37.8107C24.548 37.8261 24.335 37.8363 24.1214 37.8408C23.9078 37.8453 23.6948 37.8447 23.4811 37.8389C20.2791 37.7289 16.9197 36.1923 14.7355 33.8382C13.673 32.6931 12.7043 31.2915 12.1865 29.8087Z" fill="#0D0E1F"/>
<path d="M12.1863 29.8111C11.9025 29.1483 11.6691 28.4683 11.4867 27.771C11.3037 27.0738 11.1736 26.3663 11.0964 25.6498C10.6915 22.0323 11.7871 18.6873 14.0593 15.861C16.1574 13.2498 19.5226 11.3511 22.8649 11.0345C26.2103 10.7178 29.6597 11.9607 32.2093 14.1133C35.3928 16.8007 36.6663 20.2308 37.0094 24.2974C36.9552 24.3141 36.9004 24.3301 36.8462 24.3473C35.8188 24.6857 34.639 25.8052 33.6869 26.388C31.944 27.4557 30.1419 28.4395 28.3818 29.4797C26.9903 30.3017 25.5426 31.3214 24.06 31.9413C21.2387 33.1209 17.4838 32.6098 14.7729 31.3438C13.8622 30.9152 13 30.4041 12.1863 29.8111Z" fill="#FB8500"/>
<path d="M24.572 14.5473L25.1376 14.5223L25.313 14.7155C25.3672 15.0545 25.3965 15.3245 25.3506 15.6661C25.2741 16.2418 25.2339 16.8182 25.1886 17.3965C26.0445 17.4221 26.9086 17.5244 27.7618 17.598C27.8096 18.7303 27.8454 19.8626 27.8696 20.9955C26.8563 20.65 24.6619 19.6272 23.6906 20.1575C23.3628 20.3366 23.2512 20.4984 23.1333 20.8439C23.3029 22.5864 26.2817 23.0233 27.1955 24.9348C27.5807 25.7395 27.5737 26.6485 27.2402 27.4699C26.6254 28.9835 25.3041 29.7601 23.8679 30.3396C22.8406 30.6333 21.6423 30.6038 20.6589 30.1509C20.3024 29.9859 19.9549 29.7121 19.8605 29.3091C19.7814 28.9739 19.8879 28.5088 20.0665 28.2196C20.7641 27.088 22.5217 27.9312 23.5261 27.4834C23.7244 27.3951 23.8526 27.2863 23.9087 27.0771C24.271 25.7338 21.0511 24.432 20.1424 22.8672C19.6488 22.0177 19.4096 21.0511 19.71 20.0935C20.1787 18.5972 21.4561 17.962 22.7366 17.2813C22.5829 16.522 22.5089 15.7633 22.4337 14.9931C23.146 14.7833 23.8399 14.6586 24.572 14.5473Z" fill="white"/>
</svg>
