<svg width="37" height="32" viewBox="0 0 37 32" fill="none" xmlns="http://www.w3.org/2000/svg">
<path d="M7.77512 28.3156H6.25864C5.93827 28.3156 5.67868 28.5808 5.67868 28.9082C5.67868 29.2355 5.93827 29.5007 6.25864 29.5007H9.18167C9.26254 29.5007 9.33943 29.4837 9.40935 29.4531C9.41685 29.4498 9.42358 29.4447 9.43099 29.4411C9.45858 29.4276 9.48564 29.4133 9.51059 29.3957C9.52104 29.3883 9.53027 29.3788 9.54035 29.3706C9.56116 29.3537 9.58164 29.3366 9.6 29.317C9.60267 29.3142 9.6059 29.3123 9.60852 29.3094C9.61145 29.3061 9.61213 29.3018 9.61496 29.2985C9.66105 29.2451 9.69796 29.184 9.72295 29.1162C9.72581 29.1084 9.72746 29.1009 9.72996 29.0931C9.74886 29.0346 9.76163 28.9732 9.76163 28.9082C9.76163 28.9023 9.7601 28.8969 9.75993 28.891C9.75972 28.8837 9.75828 28.8769 9.75783 28.8696C9.75325 28.7981 9.73794 28.7298 9.71073 28.6674C9.70872 28.6628 9.70584 28.6588 9.70372 28.6543C9.67264 28.5877 9.63049 28.528 9.57858 28.478C9.57676 28.4762 9.57619 28.4737 9.57435 28.472C6.83596 25.8979 4.97903 22.5461 3.89745 18.2251C3.89431 18.2125 3.88848 18.2015 3.88461 18.1893C3.87775 18.1678 3.87104 18.1463 3.86189 18.1259C3.85462 18.1097 3.84582 18.0948 3.83728 18.0795C3.82722 18.0616 3.81733 18.0436 3.80553 18.0269C3.79506 18.012 3.7833 17.9986 3.7716 17.9849C3.75879 17.9698 3.74616 17.9548 3.73193 17.9412C3.71916 17.9289 3.70541 17.9182 3.69165 17.9072C3.676 17.8947 3.6605 17.8823 3.64362 17.8715C3.6289 17.862 3.61347 17.8542 3.59798 17.8461C3.5805 17.837 3.5632 17.8279 3.54472 17.8206C3.52702 17.8135 3.5088 17.8086 3.49045 17.8034C3.47301 17.7984 3.45585 17.7931 3.4378 17.7898C3.41637 17.7858 3.39456 17.7846 3.37264 17.7831C3.36016 17.7823 3.34831 17.7793 3.33561 17.7793H1.61121C1.29084 17.7793 1.03125 18.0445 1.03125 18.3719C1.03125 18.6992 1.29084 18.9645 1.61121 18.9645H2.89208C3.90208 22.7573 5.50584 25.835 7.77512 28.3156Z" fill="white"/>
<path d="M17.9903 31.9713C18.0485 31.9904 18.1089 32 18.1691 32C18.2293 32 18.2897 31.9904 18.3479 31.9713C31.4297 27.642 32.5252 15.7508 32.5252 4.94502C32.5252 4.70505 32.5252 4.46046 32.5205 4.22049C32.5175 4.05748 32.4488 3.90316 32.3308 3.7936C32.2128 3.68384 32.0538 3.62828 31.8969 3.6412C31.3162 3.68615 30.7149 3.70891 30.1098 3.70891C25.6012 3.70891 21.3791 2.40278 18.5261 0.125579C18.3162 -0.0418596 18.022 -0.0418596 17.8121 0.125579C14.9591 2.40278 10.737 3.70891 6.22836 3.70891C5.62329 3.70891 5.022 3.68615 4.44128 3.6412C4.28156 3.62847 4.12525 3.68384 4.00744 3.7936C3.88945 3.90316 3.82073 4.05748 3.81771 4.22049C3.81299 4.46046 3.81299 4.70505 3.81299 4.94502C3.81299 15.7508 4.90853 27.642 17.9903 31.9713ZM4.97291 4.86246C5.38636 4.88349 5.8066 4.8941 6.22836 4.8941C10.8082 4.8941 15.1294 3.60127 18.1691 1.33507C21.2088 3.60127 25.53 4.8941 30.1098 4.8941C30.5316 4.8941 30.9518 4.88349 31.3653 4.86246C31.3653 4.89005 31.3653 4.91763 31.3653 4.94502C31.3653 15.7575 30.3434 26.6532 18.1691 30.7838C5.99483 26.6532 4.97291 15.7575 4.97291 4.94502C4.97291 4.91763 4.97291 4.89005 4.97291 4.86246Z" fill="white"/>
<path d="M17.9622 28.0362C18.0292 28.0624 18.0996 28.0755 18.1703 28.0755C18.2409 28.0755 18.3113 28.0624 18.3783 28.0362C24.9081 25.4718 27.8882 20.6961 28.6641 11.5522C28.6917 11.2262 28.4555 10.939 28.1363 10.9106C27.8168 10.8871 27.5359 11.124 27.5083 11.45C26.7855 19.97 24.075 24.4502 18.1703 26.8468C10.7637 23.8365 8.9847 17.58 8.6581 8.49337C12.1362 8.18453 15.4073 7.22466 18.1703 5.70054C21.0808 7.30606 24.5553 8.28561 28.2418 8.53735C28.5608 8.5576 28.8378 8.31204 28.8591 7.98565C28.8805 7.65907 28.6388 7.37666 28.3192 7.35487C24.6831 7.1066 21.2717 6.12184 18.454 4.50745C18.2777 4.40637 18.0628 4.40637 17.8865 4.50745C15.0688 6.12184 11.6574 7.1066 8.02131 7.35487C7.71 7.37608 7.47099 7.64518 7.48024 7.96385C7.77098 17.9287 9.62602 24.7625 17.9622 28.0362Z" fill="white"/>
<path d="M35.1848 17.7793H33.008C32.9964 17.7793 32.9856 17.7821 32.9741 17.7828C32.9503 17.7842 32.9268 17.7857 32.9037 17.79C32.888 17.7929 32.8733 17.7976 32.8581 17.8018C32.8371 17.8076 32.8162 17.8133 32.7961 17.8215C32.7804 17.8278 32.7657 17.8357 32.7507 17.8434C32.7325 17.8526 32.7145 17.8618 32.6973 17.873C32.6828 17.8824 32.6695 17.8932 32.656 17.9039C32.6401 17.9164 32.6244 17.9287 32.6097 17.9429C32.5971 17.9551 32.586 17.9685 32.5745 17.9818C32.5615 17.9969 32.5486 18.0117 32.537 18.0282C32.526 18.044 32.5169 18.0608 32.5074 18.0777C32.4983 18.0938 32.489 18.1095 32.4813 18.1267C32.4725 18.1466 32.466 18.1676 32.4593 18.1886C32.4552 18.2012 32.4493 18.2126 32.446 18.2257C32.0137 19.96 31.44 21.5717 30.7411 23.0148C30.423 23.6688 30.095 24.2648 29.7393 24.8362C29.3969 25.384 29.0284 25.9141 28.6447 26.4103C28.0716 27.1483 27.4406 27.8418 26.7697 28.4718C26.7679 28.4735 26.7674 28.4758 26.7657 28.4775C26.7136 28.5275 26.6713 28.5872 26.6401 28.6539C26.638 28.6585 26.6351 28.6625 26.6331 28.6672C26.6059 28.7294 26.5906 28.7974 26.5859 28.8687C26.5854 28.8763 26.5839 28.8834 26.5837 28.891C26.5836 28.8968 26.582 28.9023 26.582 28.9082C26.582 28.9729 26.5947 29.0341 26.6135 29.0924C26.616 29.1004 26.6178 29.1081 26.6206 29.116C26.6457 29.184 26.6827 29.2452 26.7289 29.2987C26.7316 29.3018 26.7322 29.3059 26.735 29.309C26.7375 29.3118 26.7405 29.3136 26.7431 29.3163C26.7619 29.3365 26.7829 29.3541 26.8043 29.3714C26.814 29.3792 26.8228 29.3884 26.8329 29.3955C26.8575 29.4129 26.8841 29.427 26.9112 29.4403C26.9191 29.4442 26.9263 29.4497 26.9343 29.4532C27.0043 29.4837 27.0811 29.5007 27.162 29.5007H30.085C30.4054 29.5007 30.665 29.2355 30.665 28.9082C30.665 28.5808 30.4054 28.3156 30.085 28.3156H28.5678C28.9108 27.9399 29.2407 27.5495 29.5541 27.146C29.9625 26.6176 30.3537 26.0551 30.7175 25.4732C31.0958 24.8655 31.4434 24.234 31.7802 23.5413C32.4541 22.1498 33.0101 20.6085 33.4475 18.9645H35.1848C35.5052 18.9645 35.7647 18.6992 35.7647 18.3719C35.7647 18.0445 35.5052 17.7793 35.1848 17.7793Z" fill="white"/>
<path d="M2.78767 16.3358C2.78899 16.3358 2.79019 16.3354 2.79149 16.3354C2.82269 16.3352 2.85395 16.3328 2.88565 16.3273C2.88874 16.3268 2.89143 16.3254 2.8945 16.3248C2.91649 16.3206 2.93714 16.3134 2.95819 16.3068C2.97405 16.3018 2.99047 16.298 3.00565 16.2917C3.02455 16.2839 3.04185 16.2734 3.05971 16.2636C3.07524 16.2551 3.0914 16.2478 3.10596 16.238C3.12206 16.2271 3.13626 16.2139 3.1512 16.2015C3.16515 16.19 3.17983 16.1794 3.19262 16.1666C3.20692 16.1523 3.21893 16.136 3.23175 16.1202C3.24253 16.1069 3.25431 16.0946 3.26391 16.0804C3.27562 16.0632 3.28463 16.0442 3.29454 16.0257C3.30254 16.0108 3.3116 15.9966 3.31833 15.9809C3.32595 15.9632 3.33077 15.9443 3.33669 15.9257C3.34256 15.9073 3.34938 15.8894 3.35349 15.8704C3.3571 15.8536 3.35802 15.836 3.36019 15.8187C3.36298 15.7967 3.36638 15.775 3.36671 15.7525C3.36675 15.7493 3.36763 15.7464 3.36763 15.7432C3.36763 15.7262 3.36411 15.7102 3.36274 15.6936C3.36135 15.6767 3.36218 15.6601 3.35932 15.6431C2.96966 13.3204 2.75482 10.7718 2.68308 7.62284C2.68265 7.6037 2.67854 7.58571 2.67642 7.56705C2.67427 7.54845 2.67354 7.52945 2.66977 7.51144C2.66368 7.4819 2.65405 7.45401 2.6439 7.4263C2.64119 7.41902 2.63972 7.41118 2.63673 7.40402C2.55376 7.20174 2.36558 7.05969 2.13887 7.04761C2.12688 7.04686 2.11548 7.04395 2.1033 7.04395H0.579961C0.259585 7.04395 0 7.30918 0 7.63654C0 7.96389 0.259585 8.22913 0.579961 8.22913H1.54045C1.61738 10.8713 1.79987 13.1051 2.10767 15.1506H0.966602C0.646226 15.1506 0.386641 15.4159 0.386641 15.7432C0.386641 16.0706 0.646226 16.3358 0.966602 16.3358H2.78767Z" fill="white"/>
<path d="M35.8126 8.22913C36.133 8.22913 36.3926 7.96389 36.3926 7.63654C36.3926 7.30918 36.133 7.04395 35.8126 7.04395H34.2409C34.2313 7.04395 34.2224 7.04636 34.2129 7.04684C33.9399 7.05595 33.7266 7.25197 33.6742 7.51245C33.6708 7.52842 33.6704 7.54527 33.6684 7.56167C33.6659 7.582 33.6616 7.60174 33.6612 7.62265C33.5887 10.8011 33.3725 13.3491 32.9813 15.6414C32.9785 15.6579 32.9793 15.674 32.9779 15.6904C32.9763 15.7081 32.9727 15.7251 32.9727 15.7432C32.9727 15.7462 32.9735 15.7489 32.9735 15.7518C32.9738 15.7745 32.9773 15.7964 32.9801 15.8186C32.9822 15.8356 32.983 15.8529 32.9865 15.8695C32.9907 15.8891 32.9978 15.9076 33.0039 15.9266C33.0096 15.9445 33.0141 15.9628 33.0214 15.9799C33.0285 15.9964 33.038 16.0114 33.0465 16.0271C33.056 16.0447 33.0644 16.0629 33.0756 16.0794C33.0858 16.0946 33.0984 16.1078 33.11 16.122C33.1221 16.1368 33.1332 16.1523 33.1467 16.1658C33.16 16.1792 33.1754 16.1902 33.19 16.2023C33.2044 16.2142 33.2179 16.227 33.2334 16.2375C33.248 16.2473 33.2642 16.2546 33.2797 16.2631C33.2975 16.2729 33.3149 16.2836 33.3338 16.2915C33.3484 16.2975 33.3642 16.301 33.3793 16.3059C33.4011 16.3129 33.4225 16.3204 33.4454 16.3248C33.448 16.3253 33.4503 16.3265 33.4529 16.3269C33.4867 16.3329 33.5201 16.336 33.5534 16.336C33.5538 16.336 33.5541 16.3358 33.5544 16.3358H35.716C36.0363 16.3358 36.2959 16.0706 36.2959 15.7432C36.2959 15.4159 36.0363 15.1506 35.716 15.1506H34.2343C34.5432 13.1263 34.7264 10.892 34.8038 8.22913H35.8126Z" fill="white"/>
<path d="M16.3616 20.6886H19.987C20.3073 20.6886 20.5669 20.4234 20.5669 20.096V17.6373H22.9689C23.2893 17.6373 23.5489 17.3721 23.5489 17.0447V13.3404C23.5489 13.0131 23.2893 12.7479 22.9689 12.7479H20.5669V10.2938C20.5669 9.96641 20.3073 9.70117 19.987 9.70117H16.3616C16.0413 9.70117 15.7817 9.96641 15.7817 10.2938V12.7479H13.3754C13.055 12.7479 12.7954 13.0131 12.7954 13.3404V17.0447C12.7954 17.3721 13.055 17.6373 13.3754 17.6373H15.7817V20.096C15.7817 20.4234 16.0413 20.6886 16.3616 20.6886ZM13.9553 16.4521V13.933H16.3616C16.682 13.933 16.9416 13.6678 16.9416 13.3404V10.8864H19.407V13.3404C19.407 13.6678 19.6666 13.933 19.987 13.933H22.3889V16.4521H19.987C19.6666 16.4521 19.407 16.7174 19.407 17.0447V19.5034H16.9416V17.0447C16.9416 16.7174 16.682 16.4521 16.3616 16.4521H13.9553Z" fill="white"/>
</svg>
