<svg width="40" height="40" viewBox="0 0 40 40" fill="none" xmlns="http://www.w3.org/2000/svg">
<path fill-rule="evenodd" clip-rule="evenodd" d="M32.1274 4.96464C32.4398 4.95346 32.7439 5.06684 32.9727 5.27985C33.2016 5.49286 33.3364 5.78805 33.3476 6.10048L33.8538 20.2367C33.865 20.5492 33.7517 20.8532 33.5386 21.0821C33.3256 21.3109 33.0304 21.4458 32.718 21.4569C32.4056 21.4681 32.1015 21.3547 31.8727 21.1417C31.6438 20.9287 31.509 20.6335 31.4978 20.3211L31.0934 9.0286L8.04512 33.7914C7.93952 33.9049 7.8126 33.9964 7.67162 34.0608C7.53064 34.1252 7.37835 34.1612 7.22345 34.1667C7.06856 34.1723 6.91409 34.1473 6.76886 34.0931C6.62363 34.039 6.49049 33.9567 6.37704 33.8511C6.26359 33.7455 6.17206 33.6186 6.10766 33.4776C6.04325 33.3367 6.00725 33.1844 6.00171 33.0295C5.99616 32.8746 6.02118 32.7201 6.07533 32.5749C6.12948 32.4297 6.2117 32.2965 6.31731 32.1831L29.368 7.42252L18.0755 7.82692C17.7631 7.83811 17.459 7.72473 17.2302 7.51172C17.0013 7.29871 16.8665 7.00352 16.8553 6.69109C16.8441 6.37866 16.9575 6.07458 17.1705 5.84574C17.3835 5.61691 17.6787 5.48207 17.9911 5.47088L32.1274 4.96464Z" fill="white"/>
</svg>
