<svg width="30" height="32" viewBox="0 0 30 32" fill="none" xmlns="http://www.w3.org/2000/svg">
<path d="M14.1855 4.90647C14.0932 4.83723 13.9809 4.7998 13.8655 4.7998C13.7501 4.7998 13.6378 4.83723 13.5455 4.90647L7.14546 9.70649C7.07922 9.75617 7.02546 9.82058 6.98844 9.89464C6.95141 9.9687 6.93213 10.0504 6.93213 10.1332V19.1999C6.93213 19.3413 6.98832 19.477 7.08834 19.577C7.18836 19.677 7.32402 19.7332 7.46547 19.7332H20.2655C20.407 19.7332 20.5426 19.677 20.6427 19.577C20.7427 19.477 20.7989 19.3413 20.7989 19.1999V10.1332C20.7989 10.0504 20.7796 9.9687 20.7426 9.89464C20.7055 9.82058 20.6518 9.75617 20.5855 9.70649L14.1855 4.90647ZM7.9988 10.3998L13.8655 5.99981L19.7322 10.3998V11.7332L14.1855 7.57315C14.0932 7.50391 13.9809 7.46648 13.8655 7.46648C13.7501 7.46648 13.6378 7.50391 13.5455 7.57315L7.9988 11.7332V10.3998ZM12.2655 18.6665V14.9332C12.2655 14.5088 12.4341 14.1019 12.7341 13.8018C13.0342 13.5017 13.4412 13.3332 13.8655 13.3332C14.2899 13.3332 14.6968 13.5017 14.9969 13.8018C15.2969 14.1019 15.4655 14.5088 15.4655 14.9332V18.6665H12.2655ZM19.7322 18.6665H16.5322V14.9332C16.5322 14.2259 16.2512 13.5476 15.7511 13.0475C15.251 12.5474 14.5728 12.2665 13.8655 12.2665C13.1583 12.2665 12.48 12.5474 11.9799 13.0475C11.4798 13.5476 11.1988 14.2259 11.1988 14.9332V18.6665H7.9988V13.0665L13.8655 8.66648L19.7322 13.0665V18.6665Z" fill="white"/>
<path d="M4.80003 26.6665C4.37568 26.6665 3.96871 26.498 3.66865 26.1979C3.36859 25.8979 3.20002 25.4909 3.20002 25.0665C3.20002 24.9251 3.14383 24.7894 3.04381 24.6894C2.94379 24.5894 2.80813 24.5332 2.66668 24.5332C2.52523 24.5332 2.38958 24.5894 2.28956 24.6894C2.18954 24.7894 2.13335 24.9251 2.13335 25.0665C2.13335 25.4909 1.96477 25.8979 1.66471 26.1979C1.36465 26.498 0.957685 26.6665 0.533336 26.6665C0.391887 26.6665 0.256231 26.7227 0.156211 26.8228C0.0561907 26.9228 0 27.0584 0 27.1999C0 27.3413 0.0561907 27.477 0.156211 27.577C0.256231 27.677 0.391887 27.7332 0.533336 27.7332C0.957685 27.7332 1.36465 27.9018 1.66471 28.2018C1.96477 28.5019 2.13335 28.9089 2.13335 29.3332C2.13335 29.4747 2.18954 29.6103 2.28956 29.7103C2.38958 29.8104 2.52523 29.8666 2.66668 29.8666C2.80813 29.8666 2.94379 29.8104 3.04381 29.7103C3.14383 29.6103 3.20002 29.4747 3.20002 29.3332C3.20002 28.9089 3.36859 28.5019 3.66865 28.2018C3.96871 27.9018 4.37568 27.7332 4.80003 27.7332C4.94148 27.7332 5.07713 27.677 5.17715 27.577C5.27717 27.477 5.33336 27.3413 5.33336 27.1999C5.33336 27.0584 5.27717 26.9228 5.17715 26.8228C5.07713 26.7227 4.94148 26.6665 4.80003 26.6665ZM2.66668 27.7497C2.51131 27.5405 2.32605 27.3552 2.11681 27.1999C2.32605 27.0445 2.51131 26.8592 2.66668 26.65C2.82205 26.8592 3.00732 27.0445 3.21655 27.1999C3.00732 27.3552 2.82205 27.5405 2.66668 27.7497Z" fill="white"/>
<path d="M29.3332 2.13334C28.9089 2.13334 28.5019 1.96477 28.2019 1.66471C27.9018 1.36465 27.7332 0.957683 27.7332 0.533335C27.7332 0.391886 27.677 0.25623 27.577 0.15621C27.477 0.0561905 27.3413 0 27.1999 0C27.0584 0 26.9228 0.0561905 26.8228 0.15621C26.7227 0.25623 26.6665 0.391886 26.6665 0.533335C26.6665 0.957683 26.498 1.36465 26.1979 1.66471C25.8979 1.96477 25.4909 2.13334 25.0665 2.13334C24.9251 2.13334 24.7894 2.18953 24.6894 2.28955C24.5894 2.38957 24.5332 2.52523 24.5332 2.66668C24.5332 2.80813 24.5894 2.94378 24.6894 3.0438C24.7894 3.14382 24.9251 3.20001 25.0665 3.20001C25.4909 3.20001 25.8979 3.36858 26.1979 3.66864C26.498 3.9687 26.6665 4.37567 26.6665 4.80002C26.6665 4.94147 26.7227 5.07712 26.8228 5.17714C26.9228 5.27716 27.0584 5.33335 27.1999 5.33335C27.3413 5.33335 27.477 5.27716 27.577 5.17714C27.677 5.07712 27.7332 4.94147 27.7332 4.80002C27.7332 4.37567 27.9018 3.9687 28.2019 3.66864C28.5019 3.36858 28.9089 3.20001 29.3332 3.20001C29.4747 3.20001 29.6103 3.14382 29.7104 3.0438C29.8104 2.94378 29.8666 2.80813 29.8666 2.66668C29.8666 2.52523 29.8104 2.38957 29.7104 2.28955C29.6103 2.18953 29.4747 2.13334 29.3332 2.13334ZM27.1999 3.21654C27.0445 3.00731 26.8593 2.82204 26.65 2.66668C26.8593 2.51131 27.0445 2.32604 27.1999 2.11681C27.3553 2.32604 27.5405 2.51131 27.7498 2.66668C27.5405 2.82204 27.3553 3.00731 27.1999 3.21654Z" fill="white"/>
<path d="M24.5344 12.2666H23.4678V18.1333H24.5344V12.2666Z" fill="white"/>
<path d="M17.4705 2.33592C17.4205 2.27288 17.357 2.22196 17.2846 2.18695C17.2122 2.15195 17.1328 2.13377 17.0523 2.13379H10.6875V3.20046H16.7974C18.5146 5.3145 20.8463 6.84274 23.47 7.57381V10.1338H24.5366V7.16314C24.5367 7.04363 24.4966 6.92757 24.4228 6.83356C24.349 6.73956 24.2458 6.67306 24.1297 6.64474C21.4887 5.99794 19.1427 4.47998 17.4705 2.33592Z" fill="white"/>
<path d="M26.1361 4.80002C24.6085 4.67986 23.1299 4.20483 21.8181 3.41274C20.5063 2.62065 19.3975 1.53334 18.5798 0.237334C18.5311 0.164312 18.4651 0.104444 18.3877 0.0630429C18.3103 0.0216416 18.2239 -1.31303e-05 18.1361 5.97303e-09H9.60272C9.51493 -1.31303e-05 9.4285 0.0216416 9.3511 0.0630429C9.27369 0.104444 9.2077 0.164312 9.15898 0.237334C6.16643 4.72695 1.78667 4.80002 1.60267 4.80002C1.46122 4.80002 1.32557 4.85621 1.22555 4.95623C1.12553 5.05625 1.06934 5.1919 1.06934 5.33335V19.2001C1.06937 19.3415 1.12558 19.4771 1.2256 19.5771L13.4923 31.8438C13.5924 31.9438 13.728 32 13.8694 32C14.0108 32 14.1465 31.9438 14.2465 31.8438L26.5132 19.5771C26.6132 19.4771 26.6695 19.3415 26.6695 19.2001V5.33335C26.6695 5.1919 26.6133 5.05625 26.5133 4.95623C26.4132 4.85621 26.2776 4.80002 26.1361 4.80002ZM25.6028 18.9793L13.8694 30.7126L9.82352 26.6668L13.7131 22.7771L12.959 22.023L9.06938 25.9126L8.22351 25.0668L11.0465 22.2438L10.2923 21.4897L7.46937 24.3126L2.13601 18.9793V5.83309C3.69386 5.64095 5.19212 5.11583 6.52907 4.29341C7.86601 3.47098 9.01033 2.37049 9.88432 1.06667H17.8545C18.7285 2.37049 19.8728 3.47098 21.2098 4.29341C22.5467 5.11583 24.045 5.64095 25.6028 5.83309V18.9793Z" fill="white"/>
</svg>
