<svg width="34" height="34" viewBox="0 0 34 34" fill="none" xmlns="http://www.w3.org/2000/svg">
<path d="M23.9638 19.7394C22.608 18.765 20.7104 19.7394 20.7104 21.4102C20.7104 23.081 22.6049 24.0554 23.9638 23.081C25.3227 24.0554 27.2171 23.081 27.2171 21.4102C27.2171 19.7394 25.3227 18.765 23.9638 19.7394ZM24.579 22.3846C24.9003 21.792 24.9156 21.0559 24.579 20.4327C25.3471 19.9746 26.299 20.5335 26.299 21.4071C26.299 22.2807 25.3502 22.8428 24.579 22.3815V22.3846ZM23.3486 22.3846C22.5774 22.8458 21.6286 22.2777 21.6286 21.4071C21.6286 20.5366 22.5743 19.9684 23.3486 20.4297C24.0923 20.8756 24.0923 21.9356 23.3486 22.3815V22.3846Z" fill="white"/>
<path d="M19.8904 13.452C20.074 13.7147 20.4658 13.7086 20.6433 13.452C21.9624 11.5827 25.0596 11.5216 26.4277 13.452C26.5532 13.6323 26.7797 13.6872 26.9664 13.62C27.2877 13.4979 28.0528 12.0195 30.0728 12.0195C31.9336 12.0195 32.9221 13.394 32.9619 13.449C33.2404 13.8522 33.8801 13.5895 33.7913 13.1038C33.7668 12.9755 31.2205 0.195312 16.9982 0.195312C2.77594 0.195312 0.232639 12.9786 0.208155 13.1069C0.119399 13.5895 0.752929 13.8552 1.0345 13.452C1.07428 13.394 2.0659 12.0195 3.9267 12.0195C5.7875 12.0195 6.77605 13.394 6.8189 13.449C7.00865 13.7208 7.39733 13.6995 7.57178 13.449C8.09514 12.7067 9.19693 12.0164 10.464 12.0164C12.3248 12.0164 13.3133 13.3909 13.3562 13.4459C13.5061 13.6597 13.7785 13.6903 13.9713 13.5742C14.2039 13.4337 14.5253 12.7312 15.673 12.273V17.6734H6.07825C5.2519 17.6734 4.58165 18.3424 4.58165 19.1671V32.3016C4.58165 33.1264 5.2519 33.7953 6.07825 33.7953H27.9243C28.7506 33.7953 29.4209 33.1264 29.4209 32.3016V19.1671C29.4209 18.3424 28.7506 17.6734 27.9243 17.6734H18.3326V12.273C19.3334 12.6731 19.8659 13.4062 19.8935 13.449L19.8904 13.452ZM28.4997 19.1701V24.1735H5.49981V19.1701C5.49981 18.8525 5.75995 18.5928 6.07825 18.5928H27.9243C28.2426 18.5928 28.5027 18.8525 28.5027 19.1701H28.4997ZM28.4997 32.3047C28.4997 32.6224 28.2395 32.882 27.9212 32.882H6.07825C5.75995 32.882 5.49981 32.6224 5.49981 32.3047V27.3013H28.5027V32.3047H28.4997ZM5.50899 26.385V25.0868H28.4936V26.385H5.50899ZM17.4144 17.6765H16.5912V12.0469C16.8666 12.0164 17.1115 12.0103 17.4053 12.0469C17.4359 12.05 17.4144 12.0531 17.4144 17.6795V17.6765ZM13.8122 1.35604C8.98269 4.05626 7.36061 9.94542 6.90153 12.218C5.30699 10.8557 3.16156 10.7793 1.53642 11.7934C3.39722 6.3716 7.59627 2.32433 13.8122 1.35604ZM32.4692 11.7934C30.844 10.7763 28.6986 10.8557 27.1041 12.218C26.645 9.94542 25.0199 4.05626 20.1903 1.35604C26.3695 2.31822 30.5931 6.33189 32.4692 11.7934ZM13.3011 12.105C11.6515 10.7976 9.46625 10.819 7.90538 11.9034C8.51137 9.24288 10.4211 3.39648 15.7005 1.49655C13.8091 4.44418 13.3929 9.80186 13.3011 12.105ZM20.7015 12.105C20.6096 9.80186 20.1903 4.44418 18.2989 1.49655C23.5814 3.39648 25.4912 9.24288 26.0972 11.9034C24.4537 10.7854 22.299 10.8343 20.7015 12.105ZM17.0013 1.298C19.1773 3.64389 19.667 9.56666 19.7772 12.0592C18.1337 10.7976 15.8811 10.7885 14.2254 12.0592C14.3356 9.56666 14.8252 3.64695 16.9982 1.298H17.0013Z" fill="white"/>
<path d="M11.3921 19.6641H7.24814C6.99412 19.6641 6.78906 19.8687 6.78906 20.1222V22.6972C6.78906 22.9508 6.99412 23.1554 7.24814 23.1554H11.3921C11.6461 23.1554 11.8512 22.9508 11.8512 22.6972V20.1222C11.8512 19.8687 11.6461 19.6641 11.3921 19.6641ZM10.933 22.239H7.70722V20.5804H10.933V22.239Z" fill="white"/>
<path d="M7.83955 30.8159V29.4536C7.83955 28.8488 6.92139 28.8488 6.92139 29.4536V30.8159C6.92139 31.4207 7.83955 31.4207 7.83955 30.8159Z" fill="white"/>
<path d="M9.79999 30.8159V29.4536C9.79999 28.8488 8.88184 28.8488 8.88184 29.4536V30.8159C8.88184 31.4207 9.79999 31.4207 9.79999 30.8159Z" fill="white"/>
<path d="M11.7492 30.8159V29.4536C11.7492 28.8488 10.8311 28.8488 10.8311 29.4536V30.8159C10.8311 31.4207 11.7492 31.4207 11.7492 30.8159Z" fill="white"/>
</svg>
