<svg width="33" height="32" viewBox="0 0 33 32" fill="none" xmlns="http://www.w3.org/2000/svg">
<path d="M5.83333 24.0013L12.5 16.0013M27.1667 24.0013L20.5 16.0013M4.5 10.668L14.1333 17.0901C14.9887 17.6604 15.4163 17.9456 15.8785 18.0562C16.2871 18.1542 16.7129 18.1542 17.1215 18.0562C17.5837 17.9456 18.0113 17.6604 18.8667 17.0901L28.5 10.668M8.76667 25.3346H24.2333C25.7268 25.3346 26.4736 25.3346 27.044 25.044C27.5457 24.7884 27.9537 24.3804 28.2093 23.8786C28.5 23.3082 28.5 22.5614 28.5 21.068V10.9346C28.5 9.44117 28.5 8.69442 28.2093 8.124C27.9537 7.62222 27.5457 7.21428 27.044 6.95862C26.4736 6.66797 25.7268 6.66797 24.2333 6.66797H8.76667C7.2732 6.66797 6.52645 6.66797 5.95603 6.95862C5.45425 7.21428 5.04631 7.62222 4.79065 8.124C4.5 8.69442 4.5 9.44116 4.5 10.9346V21.068C4.5 22.5614 4.5 23.3082 4.79065 23.8786C5.04631 24.3804 5.45425 24.7884 5.95603 25.044C6.52645 25.3346 7.27319 25.3346 8.76667 25.3346Z" stroke="#10343B" stroke-width="2" stroke-linecap="round" stroke-linejoin="round"/>
</svg>
