<svg width="20" height="20" viewBox="0 0 20 20" fill="none" xmlns="http://www.w3.org/2000/svg">
<path d="M3.33333 15.0052L7.5 10.0052M16.6667 15.0052L12.5 10.0052M2.5 6.67188L8.52083 10.6857C9.05542 11.0421 9.32267 11.2204 9.61158 11.2895C9.86692 11.3508 10.1331 11.3508 10.3884 11.2895C10.6773 11.2204 10.9446 11.0421 11.4792 10.6857L17.5 6.67188M5.16667 15.8385H14.8333C15.7667 15.8385 16.2335 15.8385 16.59 15.6569C16.9036 15.4971 17.1586 15.2421 17.3183 14.9285C17.5 14.572 17.5 14.1053 17.5 13.1719V6.83854C17.5 5.90512 17.5 5.43841 17.3183 5.08189C17.1586 4.76828 16.9036 4.51332 16.59 4.35353C16.2335 4.17187 15.7667 4.17188 14.8333 4.17188H5.16667C4.23325 4.17188 3.76653 4.17187 3.41002 4.35353C3.09641 4.51332 2.84144 4.76828 2.68166 5.08189C2.5 5.43841 2.5 5.90512 2.5 6.83854V13.1719C2.5 14.1053 2.5 14.572 2.68166 14.9285C2.84144 15.2421 3.09641 15.4971 3.41002 15.6569C3.76653 15.8385 4.23324 15.8385 5.16667 15.8385Z" stroke="#0D0E1F" stroke-width="1.2" stroke-linecap="round" stroke-linejoin="round"/>
</svg>
