<svg width="18" height="18" viewBox="0 0 18 18" fill="none" xmlns="http://www.w3.org/2000/svg">
<path d="M9.7875 5.25C10.5201 5.39293 11.1933 5.7512 11.7211 6.27896C12.2488 6.80671 12.6071 7.47994 12.75 8.2125M9.7875 2.25C11.3095 2.41908 12.7287 3.10063 13.8122 4.18276C14.8957 5.26488 15.5791 6.68326 15.75 8.205M13.125 16.5C6.70469 16.5 1.5 11.2953 1.5 4.875C1.5 4.58533 1.5106 4.29814 1.53142 4.0138C1.55531 3.68746 1.56726 3.5243 1.65278 3.37577C1.72361 3.25276 1.84912 3.1361 1.97698 3.07444C2.13136 3 2.31141 3 2.67151 3H4.78449C5.08731 3 5.23872 3 5.36852 3.04984C5.48317 3.09386 5.58526 3.16537 5.66582 3.25807C5.75701 3.36302 5.80875 3.50532 5.91224 3.78991L6.78682 6.19504C6.9072 6.52615 6.96743 6.6917 6.95723 6.84877C6.94823 6.98728 6.9009 7.12056 6.82065 7.23379C6.72965 7.36221 6.57859 7.45285 6.27647 7.63411L5.25 8.25C6.15143 10.2367 7.76258 11.8499 9.75 12.75L10.3659 11.7236C10.5472 11.4214 10.6378 11.2703 10.7662 11.1793C10.8794 11.0991 11.0127 11.0518 11.1512 11.0428C11.3083 11.0326 11.4739 11.0928 11.805 11.2132L14.2101 12.0877C14.4947 12.1912 14.637 12.243 14.7419 12.3342C14.8346 12.4147 14.9062 12.5168 14.9501 12.6315C15 12.7613 15 12.9127 15 13.2155V15.3285C15 15.6886 15 15.8687 14.9255 16.023C14.8639 16.1509 14.7473 16.2764 14.6243 16.3472C14.4757 16.4327 14.3126 16.4446 13.9862 16.4686C13.7018 16.4894 13.4147 16.5 13.125 16.5Z" stroke="#0D0E1F" stroke-width="1.2" stroke-linecap="round" stroke-linejoin="round"/>
</svg>
