<svg width="45" height="45" viewBox="0 0 45 45" fill="none" xmlns="http://www.w3.org/2000/svg">
<path fill-rule="evenodd" clip-rule="evenodd" d="M36.6447 6.08058C36.9962 6.068 37.3382 6.19555 37.5957 6.43519C37.8531 6.67482 38.0048 7.00691 38.0174 7.3584L38.5869 23.2617C38.5995 23.6132 38.472 23.9553 38.2323 24.2127C37.9927 24.4701 37.6606 24.6218 37.3091 24.6344C36.9576 24.647 36.6155 24.5195 36.3581 24.2798C36.1007 24.0402 35.949 23.7081 35.9364 23.3566L35.4814 10.6525L9.55211 38.5107C9.4333 38.6383 9.29052 38.7413 9.13191 38.8138C8.97331 38.8862 8.80199 38.9267 8.62773 38.9329C8.45347 38.9392 8.27969 38.911 8.11631 38.8501C7.95293 38.7892 7.80315 38.6967 7.67552 38.5779C7.54789 38.4591 7.44491 38.3163 7.37245 38.1577C7.3 37.9991 7.2595 37.8278 7.25326 37.6535C7.24702 37.4793 7.27516 37.3055 7.33608 37.1421C7.397 36.9787 7.48951 36.8289 7.60831 36.7013L33.5404 8.8457L20.8363 9.30065C20.4848 9.31323 20.1427 9.18568 19.8853 8.94604C19.6279 8.70641 19.4762 8.37432 19.4636 8.02283C19.451 7.67135 19.5785 7.32926 19.8182 7.07182C20.0578 6.81438 20.3899 6.66269 20.7414 6.6501L36.6447 6.08058Z" fill="#10343B"/>
</svg>
