<svg width="46" height="40" viewBox="0 0 46 40" fill="none" xmlns="http://www.w3.org/2000/svg">
<path d="M16.1435 25.6406H14.4441V27.3428H16.1435V25.6406Z" fill="#86B03C"/>
<path d="M31.4376 25.6406H29.7383V27.3428H31.4376V25.6406Z" fill="#86B03C"/>
<path d="M22.0912 19.6816V21.1906C21.3994 21.2428 20.7528 21.5544 20.2803 22.0632C19.8078 22.5719 19.5442 23.2404 19.5421 23.9353V24.5736C19.543 25.3069 19.8342 26.0099 20.3519 26.5284C20.8696 27.0469 21.5715 27.3386 22.3036 27.3395H23.5781C23.8599 27.34 24.1301 27.4524 24.3292 27.6522C24.5284 27.852 24.6402 28.1227 24.6402 28.405V29.0433C24.6398 29.3253 24.5277 29.5957 24.3286 29.7951C24.1295 29.9945 23.8597 30.1067 23.5781 30.1072H22.3036C22.022 30.1067 21.7521 29.9945 21.5531 29.7951C21.354 29.5957 21.2419 29.3253 21.2415 29.0433H19.5421C19.5444 29.7381 19.8081 30.4065 20.2805 30.9152C20.753 31.4239 21.3995 31.7356 22.0912 31.788V33.2987H23.7905V31.788C24.4822 31.7356 25.1287 31.4239 25.6012 30.9152C26.0736 30.4065 26.3373 29.7381 26.3396 29.0433V28.405C26.3387 27.6717 26.0474 26.9687 25.5298 26.4502C25.0121 25.9317 24.3102 25.64 23.5781 25.6391H22.3036C22.022 25.6386 21.7521 25.5264 21.5531 25.327C21.354 25.1276 21.2419 24.8573 21.2415 24.5753V23.937C21.2419 23.655 21.354 23.3846 21.5531 23.1852C21.7521 22.9858 22.022 22.8736 22.3036 22.8731H23.5781C23.8597 22.8736 24.1295 22.9858 24.3286 23.1852C24.5277 23.3846 24.6398 23.655 24.6402 23.937H26.3396C26.3379 23.2418 26.0745 22.5729 25.602 22.0638C25.1294 21.5547 24.4826 21.2429 23.7905 21.1906V19.6816H22.0912Z" fill="#86B03C"/>
<path d="M0.0972363 29.44C0.169249 29.5773 0.277365 29.6923 0.409897 29.7726C0.542429 29.8528 0.694338 29.8953 0.849205 29.8953H0.86365L3.06772 29.8579C3.72878 32.274 6.52338 40 15.2318 40C15.5983 40 15.9758 39.9858 16.3644 39.9574C16.5731 39.9414 16.7685 39.8488 16.9132 39.6973C17.0579 39.5459 17.1418 39.3462 17.1486 39.1367C17.1554 38.9272 17.0848 38.7225 16.9503 38.5619C16.8158 38.4013 16.6268 38.2961 16.4196 38.2664C13.8051 37.7536 11.4736 36.287 9.87708 34.1506H13.84C15.3425 35.9534 17.346 37.2683 19.596 37.9284C21.8461 38.5884 24.2412 38.5639 26.4773 37.8579C26.9217 38.211 27.4718 38.4041 28.039 38.406H42.4836C43.1597 38.406 43.808 38.137 44.2861 37.6581C44.7641 37.1793 45.0327 36.5299 45.0327 35.8528V35.0017C45.0327 34.3246 44.7641 33.6751 44.2861 33.1963C43.808 32.7175 43.1597 32.4485 42.4836 32.4485H41.4776C41.5782 32.176 41.6311 31.888 41.6339 31.5974V30.7464C41.6317 30.1163 41.3955 29.5095 40.9712 29.0443C41.3955 28.579 41.6317 27.9723 41.6339 27.3421V26.4911C41.6317 25.8609 41.3955 25.2542 40.9712 24.7889C41.3955 24.3237 41.6317 23.7169 41.6339 23.0868V22.2357C41.6339 21.5586 41.3654 20.9092 40.8873 20.4304C40.4093 19.9515 39.7609 19.6826 39.0849 19.6826H32.6893C31.6757 18.2271 30.3501 17.017 28.8094 16.1409C27.2687 15.2647 25.5519 14.7446 23.7847 14.6187C23.7847 14.6043 23.7906 14.5906 23.7906 14.5762V13.7251C23.7883 13.1356 23.5803 12.5654 23.2026 12.1132L28.9278 6.38298L35.1305 11.817C35.2977 11.9645 35.5161 12.0403 35.7386 12.0281C35.9611 12.0158 36.1699 11.9165 36.32 11.7515L44.183 3.14894V5.10638H45.8824V0.851064C45.8824 0.625348 45.7928 0.408876 45.6335 0.249271C45.4741 0.0896656 45.258 0 45.0327 0H40.7843V1.70213H43.1999L35.6207 9.98298L29.4478 4.57362C29.2855 4.43165 29.0755 4.35671 28.8602 4.36398C28.6449 4.37125 28.4403 4.46018 28.288 4.61277L23.7583 9.14979C23.6942 8.63535 23.4742 8.15297 23.1279 7.76766C23.5522 7.30241 23.7884 6.69566 23.7906 6.06553V5.21447C23.7906 4.53732 23.5221 3.88791 23.044 3.40909C22.566 2.93027 21.9176 2.66128 21.2416 2.66128H6.79698C6.12093 2.66128 5.47257 2.93027 4.99453 3.40909C4.51649 3.88791 4.24793 4.53732 4.24793 5.21447V6.06553C4.25014 6.69566 4.48639 7.30241 4.91068 7.76766C4.48639 8.23291 4.25014 8.83966 4.24793 9.46979V10.3209C4.25014 10.951 4.48639 11.5577 4.91068 12.023C4.48639 12.4882 4.25014 13.095 4.24793 13.7251V14.5762C4.25014 15.2063 4.48639 15.8131 4.91068 16.2783C4.48639 16.7435 4.25014 17.3503 4.24793 17.9804V18.8315C4.25014 19.4616 4.48639 20.0684 4.91068 20.5336C4.48639 20.9989 4.25014 21.6056 4.24793 22.2357V22.8145L0.158413 28.5498C0.066953 28.678 0.0128074 28.829 0.00200612 28.9862C-0.00879513 29.1434 0.024172 29.3005 0.0972363 29.44ZM8.82517 32.4485C8.41644 31.6333 8.09379 30.7776 7.86248 29.8953H11.5467C11.813 30.7871 12.1838 31.6441 12.6513 32.4485H8.82517ZM5.9473 22.2357C5.9473 22.01 6.03682 21.7936 6.19616 21.634C6.35551 21.4743 6.57163 21.3847 6.79698 21.3847H12.2095C11.8188 22.1991 11.5229 23.0558 11.3275 23.9379H6.94397L5.9473 22.7728V22.2357ZM5.9473 18.8315V17.9804C5.9473 17.7547 6.03682 17.5382 6.19616 17.3786C6.35551 17.219 6.57163 17.1294 6.79698 17.1294H15.6065C14.681 17.857 13.8676 18.7173 13.1925 19.6826H6.79698C6.57163 19.6826 6.35551 19.5929 6.19616 19.4333C6.03682 19.2737 5.9473 19.0572 5.9473 18.8315ZM5.9473 14.5762V13.7251C5.9473 13.4994 6.03682 13.2829 6.19616 13.1233C6.35551 12.9637 6.57163 12.874 6.79698 12.874H21.2416C21.4669 12.874 21.683 12.9637 21.8424 13.1233C22.0017 13.2829 22.0913 13.4994 22.0913 13.7251V14.5762C22.0913 14.5906 22.0862 14.6051 22.0853 14.6196C20.8729 14.7048 19.6808 14.9773 18.5515 15.4272H6.79698C6.6854 15.4272 6.57491 15.4052 6.47182 15.3625C6.36873 15.3197 6.27506 15.257 6.19616 15.178C6.11726 15.0989 6.05468 15.0051 6.01198 14.9019C5.96927 14.7986 5.9473 14.6879 5.9473 14.5762ZM5.9473 10.3209V9.46979C5.9473 9.24407 6.03682 9.0276 6.19616 8.86799C6.35551 8.70839 6.57163 8.61872 6.79698 8.61872H21.2416C21.4669 8.61872 21.683 8.70839 21.8424 8.86799C22.0017 9.0276 22.0913 9.24407 22.0913 9.46979V10.3209C22.0913 10.5466 22.0017 10.763 21.8424 10.9226C21.683 11.0822 21.4669 11.1719 21.2416 11.1719H6.79698C6.6854 11.1719 6.57491 11.1499 6.47182 11.1071C6.36873 11.0644 6.27506 11.0017 6.19616 10.9226C6.11726 10.8436 6.05468 10.7498 6.01198 10.6465C5.96927 10.5433 5.9473 10.4326 5.9473 10.3209ZM11.0887 25.64C11.0683 25.9226 11.0454 26.2034 11.0454 26.4911C11.0497 27.061 11.0951 27.6298 11.1813 28.1932H10.5866L8.40203 25.64H11.0887ZM43.3333 35.0017V35.8528C43.3333 36.0785 43.2438 36.295 43.0844 36.4546C42.9251 36.6142 42.709 36.7038 42.4836 36.7038H28.039C27.8137 36.7038 27.5976 36.6142 27.4382 36.4546C27.2789 36.295 27.1893 36.0785 27.1893 35.8528V35.0017C27.1893 34.776 27.2789 34.5595 27.4382 34.3999C27.5976 34.2403 27.8137 34.1506 28.039 34.1506H42.4836C42.709 34.1506 42.9251 34.2403 43.0844 34.3999C43.2438 34.5595 43.3333 34.776 43.3333 35.0017ZM33.2365 32.4485C33.705 31.6446 34.0759 30.7874 34.3411 29.8953H39.0849C39.3102 29.8953 39.5264 29.985 39.6857 30.1446C39.8451 30.3042 39.9346 30.5207 39.9346 30.7464V31.5974C39.9346 31.8232 39.8451 32.0396 39.6857 32.1992C39.5264 32.3588 39.3102 32.4485 39.0849 32.4485H33.2365ZM34.7932 25.64H39.0849C39.3102 25.64 39.5264 25.7297 39.6857 25.8893C39.8451 26.0489 39.9346 26.2653 39.9346 26.4911V27.3421C39.9346 27.5678 39.8451 27.7843 39.6857 27.9439C39.5264 28.1035 39.3102 28.1932 39.0849 28.1932H34.709C34.7914 27.6295 34.834 27.0607 34.8365 26.4911C34.8365 26.2034 34.8135 25.9226 34.7932 25.64ZM39.0849 21.3847C39.3102 21.3847 39.5264 21.4743 39.6857 21.634C39.8451 21.7936 39.9346 22.01 39.9346 22.2357V23.0868C39.9346 23.3125 39.8451 23.529 39.6857 23.6886C39.5264 23.8482 39.3102 23.9379 39.0849 23.9379H34.5544C34.359 23.0558 34.0631 22.1991 33.6724 21.3847H39.0849ZM33.1371 26.4911C33.1419 28.6309 32.468 30.7171 31.2126 32.4485H28.039C27.363 32.4485 26.7146 32.7175 26.2366 33.1963C25.7585 33.6751 25.49 34.3246 25.49 35.0017V35.8528C25.4901 36.0243 25.5075 36.1954 25.5418 36.3634C23.4834 36.9073 21.3066 36.7923 19.3168 36.0343C17.3269 35.2764 15.6239 33.9137 14.4464 32.1372C13.2689 30.3608 12.6761 28.2597 12.7511 26.1287C12.8261 23.9977 13.5651 21.9437 14.8646 20.2547C16.164 18.5657 17.9587 17.3264 19.9968 16.7107C22.035 16.095 24.2145 16.1338 26.2296 16.8215C28.2446 17.5093 29.9943 18.8115 31.2331 20.5456C32.4718 22.2797 33.1377 24.3587 33.1371 26.4911ZM5.9473 5.21447C5.9473 4.98875 6.03682 4.77228 6.19616 4.61268C6.35551 4.45307 6.57163 4.36341 6.79698 4.36341H21.2416C21.4669 4.36341 21.683 4.45307 21.8424 4.61268C22.0017 4.77228 22.0913 4.98875 22.0913 5.21447V6.06553C22.0913 6.29125 22.0017 6.50772 21.8424 6.66732C21.683 6.82693 21.4669 6.9166 21.2416 6.9166H6.79698C6.57163 6.9166 6.35551 6.82693 6.19616 6.66732C6.03682 6.50772 5.9473 6.29125 5.9473 6.06553V5.21447ZM5.15794 24.4655L8.3485 28.1932H6.79698C6.67177 28.1933 6.54813 28.2211 6.4349 28.2746C6.32168 28.3282 6.22166 28.4061 6.14202 28.5029C6.06238 28.5997 6.00507 28.7129 5.9742 28.8344C5.94332 28.956 5.93965 29.0828 5.96344 29.206C6.4798 32.345 8.09743 35.1965 10.5254 37.2477C5.72893 34.8511 4.62689 29.1626 4.56996 28.8443C4.5347 28.6478 4.43165 28.4701 4.27882 28.3421C4.12599 28.214 3.93311 28.1439 3.73388 28.1438H3.71943L2.52053 28.1651L5.15794 24.4655Z" fill="#86B03C"/>
</svg>
