<svg width="40" height="40" viewBox="0 0 40 40" fill="none" xmlns="http://www.w3.org/2000/svg">
<path d="M19.9993 13.3359C27.3631 13.3359 33.3327 11.0974 33.3327 8.33594C33.3327 5.57451 27.3631 3.33594 19.9993 3.33594C12.6356 3.33594 6.66602 5.57451 6.66602 8.33594C6.66602 11.0974 12.6356 13.3359 19.9993 13.3359Z" stroke="#10343B" stroke-width="2.5"/>
<path d="M33.3327 20C33.3327 22.7615 27.3632 25 19.9993 25C12.6355 25 6.66602 22.7615 6.66602 20" stroke="#10343B" stroke-width="2.5"/>
<path d="M33.3327 8.33594V31.6693C33.3327 34.4308 27.3632 36.6693 19.9993 36.6693C12.6355 36.6693 6.66602 34.4308 6.66602 31.6693V8.33594" stroke="#10343B" stroke-width="2.5"/>
<path d="M13.334 13.3359V17.5026" stroke="#10343B" stroke-width="2.5"/>
<path d="M13.334 25V29.1667" stroke="#10343B" stroke-width="2.5"/>
</svg>
