<svg width="40" height="40" viewBox="0 0 40 40" fill="none" xmlns="http://www.w3.org/2000/svg">
<path d="M28.2903 23.2663C26.6762 22.1063 24.4172 23.2663 24.4172 25.2554C24.4172 27.2445 26.6726 28.4045 28.2903 27.2445C29.908 28.4045 32.1633 27.2445 32.1633 25.2554C32.1633 23.2663 29.908 22.1063 28.2903 23.2663ZM29.0226 26.4154C29.4052 25.71 29.4234 24.8336 29.0226 24.0918C29.9371 23.5463 31.0702 24.2118 31.0702 25.2518C31.0702 26.2918 29.9408 26.9609 29.0226 26.4118V26.4154ZM27.5579 26.4154C26.6398 26.9645 25.5103 26.2882 25.5103 25.2518C25.5103 24.2154 26.6361 23.5391 27.5579 24.0882C28.4433 24.6191 28.4433 25.8809 27.5579 26.4118V26.4154Z" fill="#86B03C"/>
<path d="M23.4406 15.7818C23.6592 16.0945 24.1256 16.0873 24.3369 15.7818C25.9072 13.5564 29.5944 13.4836 31.2231 15.7818C31.3725 15.9964 31.6421 16.0618 31.8643 15.9818C32.2469 15.8364 33.1578 14.0764 35.5625 14.0764C37.7777 14.0764 38.9545 15.7127 39.0019 15.7782C39.3335 16.2582 40.095 15.9455 39.9893 15.3673C39.9601 15.2145 36.9288 0 19.9975 0C3.06621 0 0.0384723 15.2182 0.00932444 15.3709C-0.0963366 15.9455 0.657865 16.2618 0.993066 15.7818C1.04043 15.7127 2.22092 14.0764 4.43616 14.0764C6.6514 14.0764 7.82825 15.7127 7.87925 15.7782C8.10515 16.1018 8.56787 16.0764 8.77555 15.7782C9.39859 14.8945 10.7102 14.0727 12.2186 14.0727C14.4339 14.0727 15.6107 15.7091 15.6617 15.7745C15.8403 16.0291 16.1645 16.0655 16.3941 15.9273C16.671 15.76 17.0536 14.9236 18.4199 14.3782V20.8073H6.99753C6.01379 20.8073 5.21587 21.6036 5.21587 22.5855V38.2218C5.21587 39.2036 6.01379 40 6.99753 40H33.0047C33.9885 40 34.7864 39.2036 34.7864 38.2218V22.5855C34.7864 21.6036 33.9885 20.8073 33.0047 20.8073H21.586V14.3782C22.7775 14.8545 23.4114 15.7273 23.4442 15.7782L23.4406 15.7818ZM33.6897 22.5891V28.5455H6.30891V22.5891C6.30891 22.2109 6.61861 21.9018 6.99753 21.9018H33.0047C33.3837 21.9018 33.6934 22.2109 33.6934 22.5891H33.6897ZM33.6897 38.2255C33.6897 38.6036 33.38 38.9127 33.0011 38.9127H6.99753C6.61861 38.9127 6.30891 38.6036 6.30891 38.2255V32.2691H33.6934V38.2255H33.6897ZM6.31984 31.1782V29.6327H33.6824V31.1782H6.31984ZM20.493 20.8109H19.5129V14.1091C19.8408 14.0727 20.1323 14.0655 20.4821 14.1091C20.5185 14.1127 20.493 14.1164 20.493 20.8145V20.8109ZM16.2046 1.38182C10.4552 4.59636 8.52415 11.6073 7.97763 14.3127C6.07937 12.6909 3.52529 12.6 1.5906 13.8073C3.80584 7.35273 8.8047 2.53455 16.2046 1.38182ZM38.4153 13.8073C36.4806 12.5964 33.9265 12.6909 32.0283 14.3127C31.4818 11.6073 29.5471 4.59636 23.7976 1.38182C31.1538 2.52727 36.1819 7.30546 38.4153 13.8073ZM15.5962 14.1782C13.6323 12.6218 11.0309 12.6473 9.17269 13.9382C9.8941 10.7709 12.1676 3.81091 18.4527 1.54909C16.201 5.05818 15.7055 11.4364 15.5962 14.1782ZM24.4061 14.1782C24.2968 11.4364 23.7976 5.05818 21.546 1.54909C27.8346 3.81091 30.1082 10.7709 30.8296 13.9382C28.873 12.6073 26.308 12.6655 24.4061 14.1782ZM20.0011 1.31273C22.5917 4.10545 23.1746 11.1564 23.3058 14.1236C21.3492 12.6218 18.6676 12.6109 16.6965 14.1236C16.8277 11.1564 17.4106 4.10909 19.9975 1.31273H20.0011Z" fill="#86B03C"/>
<path d="M13.3228 23.1777H8.38954C8.08713 23.1777 7.84302 23.4214 7.84302 23.7232V26.7886C7.84302 27.0905 8.08713 27.3341 8.38954 27.3341H13.3228C13.6252 27.3341 13.8693 27.0905 13.8693 26.7886V23.7232C13.8693 23.4214 13.6252 23.1777 13.3228 23.1777ZM12.7763 26.2432H8.93606V24.2686H12.7763V26.2432Z" fill="#86B03C"/>
<path d="M9.09427 36.4431V34.8213C9.09427 34.1012 8.00122 34.1012 8.00122 34.8213V36.4431C8.00122 37.1631 9.09427 37.1631 9.09427 36.4431Z" fill="#86B03C"/>
<path d="M11.4262 36.4431V34.8213C11.4262 34.1012 10.3331 34.1012 10.3331 34.8213V36.4431C10.3331 37.1631 11.4262 37.1631 11.4262 36.4431Z" fill="#86B03C"/>
<path d="M13.7486 36.4431V34.8213C13.7486 34.1012 12.6555 34.1012 12.6555 34.8213V36.4431C12.6555 37.1631 13.7486 37.1631 13.7486 36.4431Z" fill="#86B03C"/>
</svg>
