<svg width="48" height="48" viewBox="0 0 48 48" fill="none" xmlns="http://www.w3.org/2000/svg">
<path d="M33.9494 27.929C32.0125 26.537 29.3018 27.929 29.3018 30.3159C29.3018 32.7028 32.0081 34.0948 33.9494 32.7028C35.8906 34.0948 38.597 32.7028 38.597 30.3159C38.597 27.929 35.8906 26.537 33.9494 27.929ZM34.8282 31.7079C35.2873 30.8614 35.3091 29.8097 34.8282 28.9195C35.9256 28.265 37.2854 29.0635 37.2854 30.3115C37.2854 31.5595 35.93 32.3624 34.8282 31.7035V31.7079ZM33.0706 31.7079C31.9688 32.3668 30.6134 31.5552 30.6134 30.3115C30.6134 29.0679 31.9644 28.2563 33.0706 28.9152C34.133 29.5523 34.133 31.0664 33.0706 31.7035V31.7079Z" fill="white"/>
<path d="M28.1296 18.9382C28.3919 19.3135 28.9515 19.3047 29.2051 18.9382C31.0895 16.2676 35.5142 16.1804 37.4686 18.9382C37.6478 19.1956 37.9714 19.2742 38.2381 19.1782C38.6971 19.0036 39.7902 16.8916 42.6758 16.8916C45.3341 16.8916 46.7463 18.8553 46.8032 18.9338C47.201 19.5098 48.1148 19.1345 47.988 18.4407C47.9531 18.2575 44.3154 0 23.9979 0C3.68033 0 0.0470457 18.2618 0.0120682 18.4451C-0.114725 19.1345 0.790317 19.5142 1.19256 18.9382C1.2494 18.8553 2.66598 16.8916 5.32427 16.8916C7.98256 16.8916 9.39477 18.8553 9.45598 18.9338C9.72706 19.3222 10.2823 19.2916 10.5315 18.9338C11.2792 17.8735 12.8532 16.8873 14.6633 16.8873C17.3215 16.8873 18.7338 18.8509 18.795 18.9295C19.0092 19.2349 19.3983 19.2785 19.6738 19.1127C20.0061 18.912 20.4651 17.9084 22.1047 17.2538V24.9687H8.39791C7.21743 24.9687 6.25992 25.9244 6.25992 27.1025V45.8662C6.25992 47.0444 7.21743 48 8.39791 48H39.6066C40.7871 48 41.7446 47.0444 41.7446 45.8662V27.1025C41.7446 25.9244 40.7871 24.9687 39.6066 24.9687H25.9041V17.2538C27.3338 17.8255 28.0946 18.8727 28.1339 18.9338L28.1296 18.9382ZM40.4285 27.1069V34.2545H7.57157V27.1069C7.57157 26.6531 7.94321 26.2822 8.39791 26.2822H39.6066C40.0613 26.2822 40.4329 26.6531 40.4329 27.1069H40.4285ZM40.4285 45.8705C40.4285 46.3244 40.0569 46.6953 39.6022 46.6953H8.39791C7.94321 46.6953 7.57157 46.3244 7.57157 45.8705V38.7229H40.4329V45.8705H40.4285ZM7.58469 37.4138V35.5593H40.4198V37.4138H7.58469ZM24.5925 24.9731H23.4164V16.9309C23.8099 16.8873 24.1596 16.8785 24.5794 16.9309C24.6231 16.9353 24.5925 16.9396 24.5925 24.9775V24.9731ZM19.4464 1.65818C12.5471 5.51564 10.2299 13.9287 9.57403 17.1753C7.29612 15.2291 4.23123 15.12 1.9096 16.5687C4.56788 8.82327 10.5665 3.04145 19.4464 1.65818ZM46.0993 16.5687C43.7776 15.1156 40.7127 15.2291 38.4348 17.1753C37.779 13.9287 35.4574 5.51564 28.5581 1.65818C37.3855 3.03273 43.4191 8.76655 46.0993 16.5687ZM18.7163 17.0138C16.3597 15.1462 13.2379 15.1767 11.0081 16.7258C11.8738 12.9251 14.602 4.57309 22.1441 1.85891C19.442 6.06982 18.8474 13.7236 18.7163 17.0138ZM29.2882 17.0138C29.157 13.7236 28.5581 6.06982 25.856 1.85891C33.4024 4.57309 36.1307 12.9251 36.9964 16.7258C34.6485 15.1287 31.5705 15.1985 29.2882 17.0138ZM24.0022 1.57527C27.1109 4.92655 27.8104 13.3876 27.9678 16.9484C25.6199 15.1462 22.402 15.1331 20.0367 16.9484C20.1941 13.3876 20.8936 4.93091 23.9979 1.57527H24.0022Z" fill="white"/>
<path d="M15.9888 27.8184H10.0689C9.70602 27.8184 9.41309 28.1107 9.41309 28.4729V32.1515C9.41309 32.5136 9.70602 32.806 10.0689 32.806H15.9888C16.3517 32.806 16.6447 32.5136 16.6447 32.1515V28.4729C16.6447 28.1107 16.3517 27.8184 15.9888 27.8184ZM15.333 31.4969H10.7247V29.1275H15.333V31.4969Z" fill="white"/>
<path d="M10.9142 43.7377V41.7916C10.9142 40.9276 9.60254 40.9276 9.60254 41.7916V43.7377C9.60254 44.6017 10.9142 44.6017 10.9142 43.7377Z" fill="white"/>
<path d="M13.715 43.7377V41.7916C13.715 40.9276 12.4033 40.9276 12.4033 41.7916V43.7377C12.4033 44.6017 13.715 44.6017 13.715 43.7377Z" fill="white"/>
<path d="M16.4992 43.7377V41.7916C16.4992 40.9276 15.1875 40.9276 15.1875 41.7916V43.7377C15.1875 44.6017 16.4992 44.6017 16.4992 43.7377Z" fill="white"/>
</svg>
