<svg width="40" height="40" viewBox="0 0 40 40" fill="none" xmlns="http://www.w3.org/2000/svg">
<path d="M33.3332 20V24H37.3332V20H33.3332ZM35.9999 22.6667H34.6665V21.3333H35.9999V22.6667Z" fill="#86B03C"/>
<path d="M27.9999 2.66602H11.9999V3.99935H27.9999V2.66602Z" fill="#86B03C"/>
<path d="M28 5.33398H20V6.66732H28V5.33398Z" fill="#86B03C"/>
<path d="M18.6666 5.33398H11.9999V6.66732H18.6666V5.33398Z" fill="#86B03C"/>
<path d="M27.9999 8H11.9999V9.33333H27.9999V8Z" fill="#86B03C"/>
<path d="M40 10.6667H30.6666V2C30.6666 1.46957 30.4559 0.960859 30.0808 0.585787C29.7058 0.210714 29.1971 0 28.6666 0H9.72397L-3.05176e-05 9.724V38C-3.05176e-05 38.5304 0.210683 39.0391 0.585756 39.4142C0.960829 39.7893 1.46954 40 1.99997 40H28.6666C29.1971 40 29.7058 39.7893 30.0808 39.4142C30.4559 39.0391 30.6666 38.5304 30.6666 38V37.3333H40V10.6667ZM9.3333 2.276V8.66667C9.3333 8.84348 9.26307 9.01305 9.13804 9.13807C9.01302 9.2631 8.84345 9.33333 8.66664 9.33333H2.27597L9.3333 2.276ZM29.3333 38C29.3333 38.1768 29.2631 38.3464 29.138 38.4714C29.013 38.5964 28.8434 38.6667 28.6666 38.6667H1.99997C1.82316 38.6667 1.65359 38.5964 1.52857 38.4714C1.40354 38.3464 1.3333 38.1768 1.3333 38V10.6667H8.66664C9.19707 10.6667 9.70578 10.456 10.0809 10.0809C10.4559 9.70581 10.6666 9.1971 10.6666 8.66667V1.33333H28.6666C28.8434 1.33333 29.013 1.40357 29.138 1.5286C29.2631 1.65362 29.3333 1.82319 29.3333 2V10.6667H20V37.3333H29.3333V38ZM38.6666 36H21.3333V12H38.6666V36Z" fill="#86B03C"/>
<path d="M37.3332 13.334H22.6666V18.6673H37.3332V13.334ZM35.9999 17.334H23.9999V14.6673H35.9999V17.334Z" fill="#86B03C"/>
<path d="M26.6666 20H22.6666V24H26.6666V20ZM25.3332 22.6667H23.9999V21.3333H25.3332V22.6667Z" fill="#86B03C"/>
<path d="M28 24H32V20H28V24ZM29.3334 21.3333H30.6667V22.6667H29.3334V21.3333Z" fill="#86B03C"/>
<path d="M26.6666 25.334H22.6666V29.334H26.6666V25.334ZM25.3332 28.0007H23.9999V26.6673H25.3332V28.0007Z" fill="#86B03C"/>
<path d="M28 29.334H32V25.334H28V29.334ZM29.3334 26.6673H30.6667V28.0007H29.3334V26.6673Z" fill="#86B03C"/>
<path d="M33.3332 34.6673H37.3332V25.334H33.3332V34.6673ZM34.6665 26.6673H35.9999V33.334H34.6665V26.6673Z" fill="#86B03C"/>
<path d="M26.6666 30.666H22.6666V34.666H26.6666V30.666ZM25.3332 33.3327H23.9999V31.9993H25.3332V33.3327Z" fill="#86B03C"/>
<path d="M28 34.666H32V30.666H28V34.666ZM29.3334 31.9993H30.6667V33.3327H29.3334V31.9993Z" fill="#86B03C"/>
<path d="M12.6667 17.9993H14C14 16.7113 12.8527 15.6347 11.3334 15.3867V14.666H10V15.3867C8.48071 15.6347 7.33337 16.7113 7.33337 17.9993C7.33337 19.2873 8.48071 20.364 10 20.612V23.248C9.23337 23.0593 8.66671 22.5667 8.66671 21.9993H7.33337C7.33337 23.2873 8.48071 24.364 10 24.612V25.3327H11.3334V24.612C12.8527 24.364 14 23.2873 14 21.9993C14 20.7113 12.8527 19.6347 11.3334 19.3867V16.7507C12.1 16.9393 12.6667 17.432 12.6667 17.9993ZM8.66671 17.9993C8.66671 17.432 9.23337 16.9393 10 16.7507V19.248C9.23337 19.0593 8.66671 18.5667 8.66671 17.9993ZM12.6667 21.9993C12.6667 22.5667 12.1 23.0593 11.3334 23.248V20.7507C12.1 20.9393 12.6667 21.432 12.6667 21.9993Z" fill="#86B03C"/>
<path d="M10.6666 12C9.08432 12 7.5376 12.4692 6.22201 13.3482C4.90641 14.2273 3.88103 15.4767 3.27553 16.9385C2.67003 18.4003 2.5116 20.0089 2.82029 21.5607C3.12897 23.1126 3.89089 24.538 5.00971 25.6569C6.12853 26.7757 7.554 27.5376 9.10585 27.8463C10.6577 28.155 12.2662 27.9965 13.728 27.391C15.1898 26.7855 16.4393 25.7602 17.3183 24.4446C18.1974 23.129 18.6666 21.5822 18.6666 20C18.6643 17.879 17.8207 15.8455 16.3209 14.3457C14.8211 12.8459 12.7876 12.0023 10.6666 12ZM10.6666 26.6667C9.34803 26.6667 8.05909 26.2757 6.96277 25.5431C5.86644 24.8106 5.01196 23.7694 4.50737 22.5512C4.00279 21.333 3.87077 19.9926 4.128 18.6994C4.38523 17.4062 5.02017 16.2183 5.95252 15.286C6.88487 14.3536 8.07276 13.7187 9.36597 13.4614C10.6592 13.2042 11.9996 13.3362 13.2178 13.8408C14.436 14.3454 15.4772 15.1999 16.2097 16.2962C16.9422 17.3925 17.3332 18.6815 17.3332 20C17.3313 21.7675 16.6283 23.4621 15.3785 24.7119C14.1286 25.9617 12.4341 26.6647 10.6666 26.6667Z" fill="#86B03C"/>
<path d="M18.6666 29.334H2.66656V30.6673H18.6666V29.334Z" fill="#86B03C"/>
<path d="M18.6666 32H10.6666V33.3333H18.6666V32Z" fill="#86B03C"/>
<path d="M9.33323 32H2.66656V33.3333H9.33323V32Z" fill="#86B03C"/>
<path d="M18.6666 34.666H2.66656V35.9993H18.6666V34.666Z" fill="#86B03C"/>
<path d="M6.0001 19.334H5.33344V20.6673H6.0001V19.334Z" fill="#86B03C"/>
<path d="M16.0001 19.334H15.3334V20.6673H16.0001V19.334Z" fill="#86B03C"/>
</svg>
