<svg width="40" height="40" viewBox="0 0 40 40" fill="none" xmlns="http://www.w3.org/2000/svg">
<path d="M11.6673 10.8307H27.9173C31.4285 10.8307 33.184 10.8307 34.4451 11.6734C34.9911 12.0382 35.4598 12.5069 35.8246 13.0529C36.5608 14.1546 36.6538 15.6336 36.6656 18.3307M20.0006 10.8307L18.945 8.71928C18.0703 6.97003 17.271 5.20926 15.3327 4.48241C14.4838 4.16406 13.514 4.16406 11.5744 4.16406C8.54698 4.16406 7.03325 4.16406 5.89742 4.79793C5.08777 5.24976 4.41968 5.91785 3.96785 6.7275C3.33398 7.86333 3.33398 9.37706 3.33398 12.4045V17.4974C3.33398 25.3541 3.33398 29.2826 5.77477 31.7232C7.94165 33.8902 11.281 34.1334 17.5006 34.1606H18.334" stroke="#E74526" stroke-width="2.6" stroke-linecap="round"/>
<path d="M30.0007 33.6931V35.8359M30.0007 33.6931C28.0727 33.6931 26.3742 32.7461 25.3778 31.3081M30.0007 33.6931C31.9287 33.6931 33.6272 32.7461 34.6235 31.3081M25.3778 31.3081L23.3347 32.6216M25.3778 31.3081C24.7887 30.4576 24.4452 29.4354 24.4452 28.3359C24.4452 27.2364 24.7885 26.2144 25.3777 25.3641M34.6235 31.3081L36.6667 32.6216M34.6235 31.3081C35.2127 30.4576 35.5562 29.4354 35.5562 28.3359C35.5562 27.2364 35.2128 26.2144 34.6237 25.3641M30.0007 22.9788C31.9288 22.9788 33.6275 23.9259 34.6237 25.3641M30.0007 22.9788C28.0725 22.9788 26.3738 23.9259 25.3777 25.3641M30.0007 22.9788V20.8359M34.6237 25.3641L36.6673 24.0503M25.3777 25.3641L23.334 24.0503" stroke="#E74526" stroke-width="2.6" stroke-linecap="round"/>
</svg>
