<svg width="46" height="54" viewBox="0 0 46 54" fill="none" xmlns="http://www.w3.org/2000/svg">
<path d="M29.3765 27.474C29.2301 27.8759 29.1336 28.2018 28.8054 28.4983C28.4673 28.5781 28.4818 28.5899 28.1798 28.4224L28.0801 28.0389C28.2363 27.5153 28.4529 27.4309 28.871 27.0932L29.3765 27.474Z" fill="#EC621A"/>
<path d="M28.8708 27.0941C28.6122 26.7126 28.2098 26.2505 28.1646 25.7898L28.4114 25.6798C28.733 25.8114 29.0435 25.9462 29.3552 26.1013C29.6953 25.8205 29.6644 25.1484 30.0267 25.1373C30.1928 25.3055 30.4436 25.6438 30.6372 25.7557C30.7481 25.8199 31.3481 25.8487 31.3894 25.9069C31.4301 25.9632 31.3907 26.0457 31.3914 26.1157C31.1196 26.4612 30.6785 26.8997 30.6122 27.3343C30.8164 27.6072 31.0934 27.7171 31.3907 27.8644L31.3723 28.0948C31.0291 28.386 30.8059 28.5051 30.3779 28.6445C30.0832 28.6026 29.9152 28.5195 29.736 28.2662C29.5765 28.0411 29.4741 27.7315 29.3763 27.475L28.8708 27.0941Z" fill="#EC621A"/>
<path d="M25.5463 28.9324L25.7885 29.0129L25.9 29.2806C25.4452 30.5902 23.5469 32.0581 22.5137 32.96L21.0716 31.9259C18.788 33.0392 16.7604 34.8304 14.4867 36.0464L14.2957 36.1328C14.0522 35.9208 14.06 35.7938 13.9629 35.4947C14.0088 35.3776 14.022 35.2421 14.1007 35.1439C14.1467 35.0863 20.2577 31.1818 20.433 31.1091C20.9988 30.8742 21.6945 31.2767 22.2249 31.4914C23.4123 30.9573 24.5453 29.7754 25.5463 28.9324Z" fill="#0D0E1F"/>
<path d="M14.1532 37.6964C15.6702 37.6853 17.1904 37.7402 18.7073 37.7743L18.7395 44.4629L14.1913 44.4583C14.1618 42.2043 14.1486 39.9504 14.1532 37.6964Z" fill="#0D0E1F"/>
<path d="M22.4721 35.1518L25.712 35.1348C25.7173 38.0583 25.9713 41.4439 25.6444 44.3229C25.2315 44.5264 24.7688 44.4701 24.3192 44.4675L21.1265 44.4701L21.1074 35.1872L22.4721 35.1518Z" fill="#0D0E1F"/>
<path d="M27.7759 30.1937C29.3072 30.1976 30.8222 30.2048 32.3404 30.4215C32.4986 32.1735 32.4251 33.9818 32.4251 35.7403L32.4415 44.5664C30.8865 44.5468 29.3309 44.537 27.7759 44.537V30.1937Z" fill="#F27416"/>
<path d="M5.09822 51.7236C13.502 51.5391 21.9255 51.6026 30.3319 51.6078L39.9343 51.6641C41.2983 51.6739 42.7148 51.5698 44.0715 51.6595C44.4194 51.6824 44.7811 51.7537 45.0922 51.916C45.1454 51.9435 45.1972 51.9736 45.2471 52.0063C45.2977 52.0391 45.3456 52.0738 45.3928 52.1111C45.4394 52.1484 45.4847 52.1876 45.5274 52.2295C45.5701 52.2708 45.6114 52.3139 45.6501 52.3598C45.6889 52.4049 45.7256 52.452 45.7598 52.5011C45.7939 52.5502 45.8254 52.6006 45.8549 52.653C45.8845 52.7047 45.9114 52.7583 45.9357 52.8127C45.9593 52.8676 45.981 52.9226 46 52.9795C45.9764 53.1778 46.0033 53.2086 45.8549 53.3683C44.9944 54.2944 41.5536 53.9351 40.3432 53.9141C31.3172 53.8277 22.2911 53.8029 13.2651 53.8388C9.26829 53.8395 5.21507 53.9855 1.22354 53.8402C0.975427 53.831 0.708265 53.8035 0.487717 53.6765C0.208751 53.5162 0.076826 53.3028 0.0157815 52.9913C-0.045263 52.6791 0.0741978 52.3244 0.315094 52.1183C1.15921 51.3925 3.93903 51.7171 5.09822 51.7236Z" fill="#0D0E1F"/>
<path d="M22.7278 0.000328064C23.7295 0.704531 24.7121 1.85966 25.6028 2.71505C28.0085 5.024 30.4312 7.33031 32.7201 9.75576C32.3781 13.9954 32.5422 18.3397 32.535 22.5931L23.0941 22.6382C19.7721 22.6683 16.4514 22.614 13.13 22.7207C13.1583 18.2625 13.1451 13.8049 13.0913 9.34804C15.9105 6.10125 19.6099 3.0305 22.7278 0.000328064Z" fill="#EC621A"/>
<path d="M22.5667 5.62704C23.2835 5.60348 23.8066 5.70754 24.4157 6.1048C24.9737 6.46934 25.2717 6.97264 25.376 7.62579C25.592 8.97595 24.9651 9.76915 24.2339 10.8058C24.2365 11.6606 24.1492 12.5159 24.0843 13.368C24.7735 14.0533 25.2526 14.6312 25.4968 15.5945C25.7489 16.5867 25.7095 17.7431 25.1404 18.6267C24.6113 19.448 23.9221 19.7098 23.0051 19.9258C22.2739 19.8846 21.6582 19.7262 21.0832 19.2445C20.4314 18.6987 20.1255 17.9257 20.0783 17.0893C19.9903 15.5173 20.6861 14.3746 21.7022 13.2699C21.5703 12.4387 21.5079 11.6082 21.4449 10.7705C21.0589 10.3451 20.499 9.6736 20.3343 9.11273C20.1275 8.4046 20.1564 7.56426 20.5555 6.92812C21.0255 6.1768 21.7377 5.83974 22.5667 5.62704Z" fill="white"/>
<path d="M33.9844 17.8342C36.0271 17.7721 38.4117 17.4527 40.1315 18.7924C41.2828 19.689 41.9129 21.0084 42.0468 22.4443C42.1886 23.9593 42.0954 25.5471 42.0974 27.0694L42.1007 35.7744L42.102 42.7307C42.1039 44.0534 42.2004 45.4565 42.0357 46.7668C41.9234 47.6627 41.6438 48.5332 41.038 49.223C40.2352 50.1379 39.0944 50.4985 37.9083 50.5515C35.7973 50.6451 33.6417 50.5548 31.5255 50.5483L19.5359 50.5247L12.0609 50.5084C10.7107 50.5051 9.24691 50.6019 7.91312 50.3971C7.05588 50.2655 6.19075 49.8329 5.57046 49.2321C4.83661 48.5201 4.53926 47.8551 4.36072 46.8519C3.91306 44.3328 4.21829 40.927 4.23142 38.3203C4.26161 33.0256 4.26227 27.731 4.2347 22.4364C4.36204 21.2073 4.62197 20.1111 5.56126 19.225C7.21406 17.6641 9.48519 17.9062 11.5686 17.9775L11.5554 21.9351C10.3904 21.9986 9.21934 22.0019 8.05293 22.0267L8.04768 46.3394L37.8604 46.3944C37.9332 41.2365 37.8676 36.0682 37.863 30.9098C37.8604 28.07 38.1446 24.9175 37.6766 22.1295C36.4563 22.028 35.1961 22.1059 33.9712 22.1249L33.9844 17.8342Z" fill="#0D0E1F"/>
</svg>
