<svg width="48" height="50" viewBox="0 0 48 50" fill="none" xmlns="http://www.w3.org/2000/svg">
<path d="M22.7979 7.63858C22.6496 7.53088 22.4691 7.47266 22.2837 7.47266C22.0982 7.47266 21.9177 7.53088 21.7694 7.63858L11.4835 15.1053C11.377 15.1826 11.2906 15.2828 11.2311 15.398C11.1716 15.5132 11.1406 15.6402 11.1406 15.769V29.8727C11.1406 30.0928 11.2309 30.3038 11.3917 30.4594C11.5524 30.615 11.7704 30.7024 11.9978 30.7024H32.5695C32.7969 30.7024 33.0149 30.615 33.1756 30.4594C33.3364 30.3038 33.4267 30.0928 33.4267 29.8727V15.769C33.4267 15.6402 33.3957 15.5132 33.3362 15.398C33.2767 15.2828 33.1903 15.1826 33.0838 15.1053L22.7979 7.63858ZM12.8549 16.1838L22.2837 9.33933L31.7124 16.1838V18.2579L22.7979 11.7867C22.6496 11.679 22.4691 11.6208 22.2837 11.6208C22.0982 11.6208 21.9177 11.679 21.7694 11.7867L12.8549 18.2579V16.1838ZM19.7122 29.0431V23.2357C19.7122 22.5756 19.9831 21.9425 20.4654 21.4758C20.9476 21.009 21.6017 20.7468 22.2837 20.7468C22.9657 20.7468 23.6197 21.009 24.102 21.4758C24.5842 21.9425 24.8551 22.5756 24.8551 23.2357V29.0431H19.7122ZM31.7124 29.0431H26.5694V23.2357C26.5694 22.1355 26.1179 21.0804 25.3142 20.3025C24.5104 19.5245 23.4203 19.0875 22.2837 19.0875C21.147 19.0875 20.0569 19.5245 19.2532 20.3025C18.4494 21.0804 17.9979 22.1355 17.9979 23.2357V29.0431H12.8549V20.332L22.2837 13.4875L31.7124 20.332V29.0431Z" fill="white"/>
<path d="M7.71441 41.4855C7.03241 41.4855 6.37835 41.2233 5.8961 40.7565C5.41386 40.2898 5.14294 39.6567 5.14294 38.9966C5.14294 38.7766 5.05263 38.5656 4.89188 38.41C4.73113 38.2544 4.51311 38.167 4.28578 38.167C4.05845 38.167 3.84043 38.2544 3.67968 38.41C3.51893 38.5656 3.42863 38.7766 3.42863 38.9966C3.42863 39.6567 3.1577 40.2898 2.67546 40.7565C2.19322 41.2233 1.53915 41.4855 0.857156 41.4855C0.629824 41.4855 0.411803 41.5729 0.251055 41.7285C0.0903075 41.8841 0 42.0951 0 42.3152C0 42.5352 0.0903075 42.7462 0.251055 42.9018C0.411803 43.0574 0.629824 43.1448 0.857156 43.1448C1.53915 43.1448 2.19322 43.407 2.67546 43.8738C3.1577 44.3405 3.42863 44.9736 3.42863 45.6337C3.42863 45.8537 3.51893 46.0647 3.67968 46.2203C3.84043 46.3759 4.05845 46.4633 4.28578 46.4633C4.51311 46.4633 4.73113 46.3759 4.89188 46.2203C5.05263 46.0647 5.14294 45.8537 5.14294 45.6337C5.14294 44.9736 5.41386 44.3405 5.8961 43.8738C6.37835 43.407 7.03241 43.1448 7.71441 43.1448C7.94174 43.1448 8.15976 43.0574 8.32051 42.9018C8.48126 42.7462 8.57156 42.5352 8.57156 42.3152C8.57156 42.0951 8.48126 41.8841 8.32051 41.7285C8.15976 41.5729 7.94174 41.4855 7.71441 41.4855ZM4.28578 43.1705C4.03608 42.845 3.73833 42.5568 3.40205 42.3152C3.73833 42.0735 4.03608 41.7853 4.28578 41.4598C4.53548 41.7853 4.83324 42.0735 5.16951 42.3152C4.83324 42.5568 4.53548 42.845 4.28578 43.1705Z" fill="white"/>
<path d="M47.1431 3.31853C46.4611 3.31853 45.8071 3.05631 45.3248 2.58955C44.8426 2.12279 44.5716 1.48973 44.5716 0.829632C44.5716 0.6096 44.4813 0.39858 44.3206 0.242994C44.1598 0.0874074 43.9418 0 43.7145 0C43.4872 0 43.2691 0.0874074 43.1084 0.242994C42.9476 0.39858 42.8573 0.6096 42.8573 0.829632C42.8573 1.48973 42.5864 2.12279 42.1042 2.58955C41.6219 3.05631 40.9679 3.31853 40.2859 3.31853C40.0585 3.31853 39.8405 3.40594 39.6798 3.56152C39.519 3.71711 39.4287 3.92813 39.4287 4.14816C39.4287 4.36819 39.519 4.57921 39.6798 4.7348C39.8405 4.89039 40.0585 4.97779 40.2859 4.97779C40.9679 4.97779 41.6219 5.24002 42.1042 5.70678C42.5864 6.17353 42.8573 6.8066 42.8573 7.46669C42.8573 7.68672 42.9476 7.89774 43.1084 8.05333C43.2691 8.20892 43.4872 8.29632 43.7145 8.29632C43.9418 8.29632 44.1598 8.20892 44.3206 8.05333C44.4813 7.89774 44.5716 7.68672 44.5716 7.46669C44.5716 6.8066 44.8426 6.17353 45.3248 5.70678C45.8071 5.24002 46.4611 4.97779 47.1431 4.97779C47.3705 4.97779 47.5885 4.89039 47.7492 4.7348C47.91 4.57921 48.0003 4.36819 48.0003 4.14816C48.0003 3.92813 47.91 3.71711 47.7492 3.56152C47.5885 3.40594 47.3705 3.31853 47.1431 3.31853ZM43.7145 5.00351C43.4648 4.67804 43.167 4.38984 42.8308 4.14816C43.167 3.90648 43.4648 3.61829 43.7145 3.29281C43.9642 3.61829 44.2619 3.90648 44.5982 4.14816C44.2619 4.38984 43.9642 4.67804 43.7145 5.00351Z" fill="white"/>
<path d="M39.4296 19.083H37.7153V28.209H39.4296V19.083Z" fill="white"/>
<path d="M28.0786 3.63377C27.9983 3.53571 27.8961 3.45649 27.7798 3.40203C27.6634 3.34758 27.5358 3.31931 27.4065 3.31934H17.1772V4.9786H26.9968C29.7567 8.26711 33.5041 10.6444 37.7207 11.7816V15.7638H39.435V11.1428C39.4351 10.9569 39.3707 10.7763 39.2521 10.6301C39.1335 10.4839 38.9676 10.3804 38.781 10.3364C34.5365 9.33023 30.7661 6.96897 28.0786 3.63377Z" fill="white"/>
<path d="M42.0071 7.46669C39.5518 7.27978 37.1756 6.54085 35.0673 5.30871C32.9591 4.07656 31.177 2.3852 29.8629 0.369186C29.7846 0.255596 29.6785 0.162469 29.5541 0.0980668C29.4297 0.0336648 29.2908 -2.0425e-05 29.1497 9.29139e-09H15.4352C15.2941 -2.0425e-05 15.1552 0.0336648 15.0308 0.0980668C14.9064 0.162469 14.8003 0.255596 14.722 0.369186C9.91255 7.35303 2.87358 7.46669 2.57786 7.46669C2.35053 7.46669 2.13251 7.5541 1.97176 7.70969C1.81101 7.86527 1.7207 8.07629 1.7207 8.29633V29.8668C1.72075 30.0868 1.81109 30.2978 1.97185 30.4533L21.6864 49.5349C21.8472 49.6904 22.0652 49.7778 22.2925 49.7778C22.5197 49.7778 22.7377 49.6904 22.8985 49.5349L42.6131 30.4533C42.7738 30.2978 42.8642 30.0868 42.8642 29.8668V8.29633C42.8642 8.07629 42.7739 7.86527 42.6132 7.70969C42.4524 7.5541 42.2344 7.46669 42.0071 7.46669ZM41.1499 29.5233L22.2925 47.7752L15.7901 41.4816L22.0413 35.4311L20.8293 34.258L14.578 40.3085L13.2186 38.9927L17.7555 34.6015L16.5435 33.4284L12.0066 37.8196L3.43502 29.5233V9.07369C5.93873 8.77481 8.34668 7.95796 10.4954 6.67863C12.644 5.3993 14.4831 3.68743 15.8878 1.65927H28.6971C30.1018 3.68743 31.9409 5.3993 34.0896 6.67863C36.2382 7.95796 38.6462 8.77481 41.1499 9.07369V29.5233Z" fill="white"/>
</svg>
