<svg width="48" height="50" viewBox="0 0 48 50" fill="none" xmlns="http://www.w3.org/2000/svg">
<path d="M7.88609 31.2326C9.94552 31.1635 12.0102 31.1925 14.0709 31.1971C14.3662 35.2507 14.3571 40.9137 14.1807 44.9805L7.81355 44.9792C7.80375 42.6047 7.43787 32.8631 7.88609 31.2326Z" fill="#1C2847"/>
<path d="M17.997 25.8885C20.029 25.8622 22.0616 25.8661 24.0942 25.9003C24.2641 28.1537 24.1596 30.4867 24.1628 32.7486L24.1544 44.9863L17.8859 44.985L17.8813 32.4559C17.8813 30.3203 17.7003 27.9958 17.997 25.8885Z" fill="#1C2847"/>
<path d="M27.6526 20.1357C29.776 20.1285 31.9001 20.1404 34.0236 20.1713C34.2196 23.2935 34.053 26.5322 34.0582 29.6663C34.104 34.7564 34.1098 39.8466 34.0752 44.9361C31.9994 45.138 29.7499 44.9624 27.6545 44.9618C27.5585 36.6908 27.6989 28.4093 27.6526 20.1357Z" fill="#1C2847"/>
<path d="M43.8386 -8.96454e-05C43.9477 0.0176678 43.8732 -0.00469398 44.0157 0.151188C43.4178 3.72595 42.1908 7.23034 41.8314 10.8564C40.5312 9.55213 39.1833 8.30046 37.7877 7.10011C35.8577 8.88716 34.0733 10.8485 32.2158 12.7138C29.4513 15.4908 26.6079 18.2361 24.0153 21.1775C22.2799 19.543 20.5308 18.025 18.6139 16.6083C17.6678 17.6245 8.5101 27.2431 8.02269 27.3457L7.52155 26.9576L6.0874 25.2949C10.2892 21.0867 14.2258 16.6227 18.5733 12.558C20.3819 14.1503 22.2427 15.6644 23.9617 17.3574C25.3207 15.7539 27.0482 14.3614 28.532 12.8605C31.0351 10.3282 33.418 7.63419 36.0484 5.23676C35.0259 4.10415 33.8975 3.07743 32.8855 1.93232C36.5424 1.34365 40.1882 0.635935 43.8386 -8.96454e-05Z" fill="#F27416"/>
<path d="M37.5557 13.3573C39.608 13.3263 41.6589 13.3658 43.7085 13.475C44.0444 17.8884 43.7759 22.578 43.7595 27.017C43.738 33.026 43.885 39.06 43.7157 45.0645C41.6498 44.9434 39.572 44.9803 37.5028 44.9822L37.5695 22.8996C37.5701 20.0503 37.2068 16.0421 37.5557 13.3573Z" fill="#1C2847"/>
<path d="M0 0.461086L2.67033 0.468319C2.4913 6.59113 2.63048 12.733 2.64289 18.8578L2.65203 47.4723L47.9967 47.4598L48 49.875C47.4486 50.1243 4.58079 49.925 0.040504 49.9171L0 0.461086Z" fill="#1C2847"/>
</svg>
