<svg width="48" height="59" viewBox="0 0 48 59" fill="none" xmlns="http://www.w3.org/2000/svg">
<path d="M29.7573 42.8468H25.9173V38.9512H22.0773V42.8468H18.2373V46.7425H22.0773V50.6381H25.9173V46.7425H29.7573V42.8468Z" fill="white"/>
<path d="M24 0C11.232 0 0 10.4209 0 22.4H1.92C1.92 20.7443 3.168 19.4783 4.8 19.4783C6.432 19.4783 7.68 20.7443 7.68 22.4H9.6C9.6 20.7443 10.848 19.4783 12.48 19.4783C14.112 19.4783 15.36 20.7443 15.36 22.4H17.28C17.28 20.7443 18.528 19.4783 20.16 19.4783C21.792 19.4783 23.04 20.7443 23.04 22.4V28.9252C20.16 24.7374 14.688 23.1791 9.984 25.3217C5.184 27.5617 2.688 33.113 4.32 38.2748C7.392 48.793 24 58.4348 24 58.4348C24 58.4348 40.608 48.793 43.68 38.2748C45.408 32.6261 42.336 26.5878 36.768 24.8348C35.712 24.5426 34.656 24.3478 33.6 24.3478C30.144 24.3478 26.88 26.1009 24.96 28.9252V22.4C24.96 20.7443 26.208 19.4783 27.84 19.4783C29.472 19.4783 30.72 20.7443 30.72 22.4H32.64C32.64 20.7443 33.888 19.4783 35.52 19.4783C37.152 19.4783 38.4 20.7443 38.4 22.4H40.32C40.32 20.7443 41.568 19.4783 43.2 19.4783C44.832 19.4783 46.08 20.7443 46.08 22.4H48C48 10.4209 36.768 0 24 0ZM37.152 27.0748C41.088 28.9252 43.104 33.4052 41.856 37.6904C39.456 45.9687 27.456 53.9548 24 56.1948C20.544 54.0522 8.544 45.9687 6.144 37.6904C4.704 33.113 7.2 28.1461 11.808 26.6852C15.936 25.3217 20.448 27.367 22.272 31.36L24 35.2557L25.728 31.36C27.744 26.9774 32.832 25.127 37.152 27.0748ZM7.968 18.6991C7.104 17.92 5.952 17.5304 4.8 17.5304C3.936 17.5304 3.168 17.7252 2.4 18.1148C4.032 11.5896 9.312 5.94087 16.032 3.4087C10.56 8.08348 8.544 15.4852 7.968 18.6991ZM15.456 18.6017C14.592 17.92 13.536 17.5304 12.48 17.5304C11.616 17.5304 10.752 17.7252 10.08 18.2122C11.04 14.2191 13.632 6.33043 20.256 3.01913C16.8 7.49913 15.744 14.7061 15.456 18.6017ZM20.16 17.5304C19.2 17.5304 18.24 17.8226 17.472 18.407C17.856 14.0243 19.008 6.23304 23.04 2.82435V18.5043C22.176 17.92 21.216 17.5304 20.16 17.5304ZM27.84 17.5304C26.784 17.5304 25.824 17.92 24.96 18.5043V2.82435C28.992 6.23304 30.24 14.1217 30.528 18.407C29.76 17.8226 28.8 17.5304 27.84 17.5304ZM35.52 17.5304C34.464 17.5304 33.408 17.92 32.544 18.6017C32.256 14.6087 31.2 7.49913 27.84 3.01913C34.464 6.33043 37.056 14.2191 38.016 18.2122C37.248 17.7252 36.384 17.5304 35.52 17.5304ZM43.2 17.5304C42.048 17.5304 40.896 17.92 40.032 18.6991C39.36 15.3878 37.44 7.98609 31.968 3.4087C38.688 5.94087 43.968 11.5896 45.6 18.1148C44.832 17.7252 44.064 17.5304 43.2 17.5304Z" fill="white"/>
</svg>
