<svg width="38" height="38" viewBox="0 0 38 38" fill="none" xmlns="http://www.w3.org/2000/svg">
<path d="M11.0827 30.8724C11.0827 33.0585 9.31047 34.8307 7.12435 34.8307C4.93822 34.8307 3.16602 33.0585 3.16602 30.8724C3.16602 28.6863 4.93822 26.9141 7.12435 26.9141C9.31047 26.9141 11.0827 28.6863 11.0827 30.8724Z" stroke="#E74526" stroke-width="2.4"/>
<path d="M34.8327 30.8724C34.8327 33.0585 33.0605 34.8307 30.8743 34.8307C28.6882 34.8307 26.916 33.0585 26.916 30.8724C26.916 28.6863 28.6882 26.9141 30.8743 26.9141C33.0605 26.9141 34.8327 28.6863 34.8327 30.8724Z" stroke="#E74526" stroke-width="2.4"/>
<path d="M30.875 26.9141C30.6092 23.0301 29.1256 22.1641 24.1094 22.1641H13.8905C8.87447 22.1641 7.39081 23.0301 7.125 26.9141" stroke="#E74526" stroke-width="2.4" stroke-linecap="round" stroke-linejoin="round"/>
<path d="M19 10.2891L20.5833 7.91406M26.125 10.2891C26.125 14.2241 22.9351 17.4141 19 17.4141C15.065 17.4141 11.875 14.2241 11.875 10.2891C11.875 6.35404 15.065 3.16406 19 3.16406C22.9351 3.16406 26.125 6.35404 26.125 10.2891Z" stroke="#E74526" stroke-width="2.4" stroke-linecap="round"/>
</svg>
