<svg width="40" height="40" viewBox="0 0 40 40" fill="none" xmlns="http://www.w3.org/2000/svg">
<path d="M19.9995 18.0007C20.8201 18.0007 21.3436 18.3953 21.3436 18.6673C21.3436 18.8441 21.4144 19.0137 21.5405 19.1387C21.6665 19.2637 21.8374 19.334 22.0157 19.334C22.1939 19.334 22.3649 19.2637 22.4909 19.1387C22.6169 19.0137 22.6877 18.8441 22.6877 18.6673C22.6877 17.72 21.8416 16.9533 20.6716 16.734V16.0007C20.6716 15.8238 20.6008 15.6543 20.4747 15.5292C20.3487 15.4042 20.1777 15.334 19.9995 15.334C19.8213 15.334 19.6503 15.4042 19.5243 15.5292C19.3983 15.6543 19.3274 15.8238 19.3274 16.0007V16.734C18.1574 16.952 17.3113 17.7187 17.3113 18.6673C17.3113 19.7887 18.4921 20.6673 19.9995 20.6673C20.8201 20.6673 21.3436 21.062 21.3436 21.334C21.3436 21.606 20.8201 22.0007 19.9995 22.0007C19.1789 22.0007 18.6554 21.606 18.6554 21.334C18.6554 21.1572 18.5846 20.9876 18.4586 20.8626C18.3325 20.7376 18.1616 20.6673 17.9833 20.6673C17.8051 20.6673 17.6342 20.7376 17.5081 20.8626C17.3821 20.9876 17.3113 21.1572 17.3113 21.334C17.3113 22.2813 18.1574 23.048 19.3274 23.2673V24.0007C19.3274 24.1775 19.3983 24.347 19.5243 24.4721C19.6503 24.5971 19.8213 24.6673 19.9995 24.6673C20.1777 24.6673 20.3487 24.5971 20.4747 24.4721C20.6008 24.347 20.6716 24.1775 20.6716 24.0007V23.2673C21.8416 23.0493 22.6877 22.2827 22.6877 21.334C22.6877 20.2127 21.5069 19.334 19.9995 19.334C19.1789 19.334 18.6554 18.9393 18.6554 18.6673C18.6554 18.3953 19.1789 18.0007 19.9995 18.0007Z" fill="#86B03C"/>
<path d="M24.153 13.56C24.3602 13.3746 24.5173 13.1406 24.6098 12.8794C24.7024 12.6182 24.7274 12.3382 24.6826 12.0649C24.6378 11.7916 24.5246 11.5339 24.3534 11.3152C24.1822 11.0966 23.9585 10.924 23.7027 10.8133L25.3022 7.63333C25.3537 7.53185 25.3783 7.41897 25.3735 7.30543C25.3687 7.19189 25.3347 7.08144 25.2748 6.98459C25.2148 6.88773 25.131 6.80768 25.0311 6.75204C24.9312 6.6964 24.8186 6.66701 24.704 6.66667H22.6879C22.5423 6.66588 22.4006 6.71275 22.2846 6.8L20.6717 8V5.33333H21.3438C22.235 5.33333 23.0897 4.98214 23.7198 4.35702C24.35 3.7319 24.704 2.88406 24.704 2V0.666667C24.704 0.489856 24.6332 0.320286 24.5072 0.195262C24.3812 0.0702379 24.2102 0 24.032 0H22.6879C22.1644 0.00200912 21.6487 0.125437 21.182 0.360422C20.7152 0.595407 20.3103 0.935434 19.9996 1.35333C19.689 0.935434 19.2841 0.595407 18.8173 0.360422C18.3506 0.125437 17.8349 0.00200912 17.3114 0H15.9673C15.7891 0 15.6181 0.0702379 15.4921 0.195262C15.3661 0.320286 15.2952 0.489856 15.2952 0.666667V2C15.2952 2.88406 15.6493 3.7319 16.2795 4.35702C16.9096 4.98214 17.7643 5.33333 18.6555 5.33333H19.3276V8L17.7147 6.8C17.5987 6.71275 17.457 6.66588 17.3114 6.66667H15.2952C15.1807 6.66701 15.0681 6.6964 14.9682 6.75204C14.8683 6.80768 14.7844 6.88773 14.7245 6.98459C14.6646 7.08144 14.6306 7.19189 14.6258 7.30543C14.621 7.41897 14.6456 7.53185 14.6971 7.63333L16.2966 10.8133C16.0408 10.924 15.8171 11.0966 15.6459 11.3152C15.4747 11.5339 15.3615 11.7916 15.3167 12.0649C15.2719 12.3382 15.2969 12.6182 15.3894 12.8794C15.482 13.1406 15.6391 13.3746 15.8463 13.56C13.5815 15.5 11.2629 18.1133 11.2629 20.6667C11.2629 24.9667 14.3678 27.3333 19.9996 27.3333C25.6315 27.3333 28.7364 24.9667 28.7364 20.6667C28.7364 18.1133 26.4178 15.5 24.153 13.56ZM20.6717 3.33333C20.6733 2.80339 20.8862 2.2956 21.264 1.92087C21.6417 1.54614 22.1536 1.33492 22.6879 1.33333H23.3599V2C23.3583 2.52995 23.1454 3.03773 22.7676 3.41247C22.3899 3.7872 21.878 3.99842 21.3438 4H20.6717V3.33333ZM18.6555 4C18.1213 3.99842 17.6094 3.7872 17.2316 3.41247C16.8539 3.03773 16.641 2.52995 16.6394 2V1.33333H17.3114C17.8456 1.33492 18.3575 1.54614 18.7353 1.92087C19.1131 2.2956 19.326 2.80339 19.3276 3.33333V4H18.6555ZM17.0896 8L19.5964 9.86667C19.7123 9.95425 19.854 10.0017 19.9996 10.0017C20.1453 10.0017 20.287 9.95425 20.4029 9.86667L22.9096 8H23.6153L22.2712 10.6667H17.7281L16.384 8H17.0896ZM23.3599 12.3333C23.3599 12.4217 23.3245 12.5065 23.2615 12.569C23.1985 12.6315 23.113 12.6667 23.0239 12.6667H16.9754C16.8863 12.6667 16.8008 12.6315 16.7378 12.569C16.6748 12.5065 16.6394 12.4217 16.6394 12.3333C16.6394 12.2449 16.6748 12.1601 16.7378 12.0976C16.8008 12.0351 16.8863 12 16.9754 12H23.0239C23.113 12 23.1985 12.0351 23.2615 12.0976C23.3245 12.1601 23.3599 12.2449 23.3599 12.3333ZM19.9996 26C16.6259 26 12.607 25.0733 12.607 20.6667C12.607 18.8533 14.314 16.4933 17.4189 14H22.5803C25.6852 16.4933 27.3923 18.8533 27.3923 20.6667C27.3923 25.0733 23.3734 26 19.9996 26Z" fill="#86B03C"/>
<path d="M38.6356 16.9055C38.6492 16.7882 38.6559 16.6702 38.6558 16.5522C38.6525 15.9411 38.4388 15.3494 38.0501 14.8753C37.6614 14.4013 37.1211 14.0732 36.5186 13.9455C35.8373 13.8181 35.1327 13.9516 34.5466 14.319C33.9605 14.6864 33.5365 15.2604 33.36 15.9255L30.4029 24.3655C30.3591 24.3827 30.3164 24.4028 30.2752 24.4255L24.3342 27.8788C23.4252 28.4085 22.6711 29.1644 22.1466 30.0717C21.6221 30.9789 21.3453 32.0063 21.3436 33.0522V39.3322C21.3436 39.509 21.4144 39.6785 21.5404 39.8036C21.6665 39.9286 21.8374 39.9988 22.0157 39.9988C22.1939 39.9988 22.3648 39.9286 22.4909 39.8036C22.6169 39.6785 22.6877 39.509 22.6877 39.3322V33.0522C22.691 32.2388 22.9071 31.4402 23.3146 30.7344C23.7222 30.0286 24.3074 29.4398 25.013 29.0255L30.9473 25.5788C31.1003 25.4904 31.2694 25.4328 31.4449 25.4094C31.6204 25.386 31.7989 25.3973 31.97 25.4425C32.1411 25.4877 32.3015 25.566 32.442 25.6729C32.5825 25.7799 32.7003 25.9133 32.7887 26.0655C32.9633 26.3735 33.0114 26.7365 32.9231 27.0788C32.8764 27.2479 32.7966 27.4061 32.6882 27.5445C32.5798 27.683 32.445 27.7988 32.2914 27.8855L28.4405 30.0922C28.2942 30.1844 28.1895 30.3291 28.1483 30.4962C28.1071 30.6632 28.1325 30.8395 28.2192 30.9884C28.306 31.1373 28.4473 31.2471 28.6138 31.295C28.7803 31.3429 28.959 31.3252 29.1126 31.2455L32.9635 29.0388C33.2713 28.8656 33.541 28.633 33.7568 28.3548C33.9727 28.0766 34.1302 27.7583 34.2202 27.4188C34.4031 26.7367 34.3065 26.0105 33.9514 25.3988L33.9111 25.3388L35.9877 18.9855C36.0702 18.6407 36.2807 18.3395 36.5771 18.1418C36.8736 17.9441 37.2342 17.8645 37.5872 17.9188C37.8884 17.9814 38.1589 18.1446 38.3534 18.3813C38.5479 18.6179 38.6546 18.9135 38.6558 19.2188C38.658 19.3361 38.6422 19.453 38.6087 19.5655L35.6853 30.3922C35.5841 30.7684 35.3738 31.1068 35.0804 31.3655L30.5306 35.3722C30.1785 35.6871 29.8968 36.0716 29.7035 36.501C29.5102 36.9304 29.4097 37.3952 29.4083 37.8655V39.3322C29.4083 39.509 29.4791 39.6785 29.6051 39.8036C29.7311 39.9286 29.9021 39.9988 30.0803 39.9988C30.2586 39.9988 30.4295 39.9286 30.5555 39.8036C30.6816 39.6785 30.7524 39.509 30.7524 39.3322V37.8655C30.7536 37.5839 30.8141 37.3057 30.9298 37.0486C31.0455 36.7914 31.214 36.5611 31.4244 36.3722L35.9675 32.3655C36.4645 31.9342 36.8202 31.3654 36.9891 30.7322L39.9058 19.9122C39.9681 19.6862 39.9997 19.453 39.9999 19.2188C39.9972 18.7484 39.8698 18.2869 39.6303 17.8808C39.3908 17.4747 39.0477 17.1383 38.6356 16.9055ZM37.3117 16.5588C36.711 16.5721 36.131 16.779 35.6593 17.1483C35.1877 17.5175 34.85 18.029 34.6974 18.6055L32.8223 24.3455C32.5396 24.2088 32.2347 24.1231 31.9218 24.0922L34.6436 16.3188C34.7261 15.9741 34.9365 15.6728 35.233 15.4751C35.5294 15.2774 35.8901 15.1978 36.2431 15.2522C36.5443 15.3147 36.8148 15.478 37.0093 15.7146C37.2038 15.9512 37.3105 16.2469 37.3117 16.5522V16.5588Z" fill="#86B03C"/>
<path d="M15.6661 27.8789L9.72114 24.4222C9.68014 24.3995 9.63646 24.3869 9.59479 24.3655L6.65656 15.9728C6.48673 15.2968 6.06305 14.7106 5.47209 14.334C4.88113 13.9574 4.1675 13.8189 3.47706 13.9468C2.87495 14.0744 2.33496 14.4024 1.94679 14.8765C1.55863 15.3506 1.34566 15.9421 1.34328 16.5528C1.34338 16.6719 1.35101 16.7908 1.36613 16.9089C0.848553 17.1982 0.442384 17.6497 0.211299 18.1926C-0.0197856 18.7355 -0.0627208 19.3391 0.0892241 19.9089L3.012 30.7328C3.17936 31.3658 3.53314 31.9349 4.02815 32.3675L8.57058 36.3735C8.78253 36.5613 8.95226 36.7913 9.06874 37.0485C9.18522 37.3056 9.24584 37.5843 9.24667 37.8662V39.3329C9.24667 39.5097 9.31747 39.6792 9.44351 39.8043C9.56954 39.9293 9.74048 39.9995 9.91872 39.9995C10.097 39.9995 10.2679 39.9293 10.3939 39.8043C10.52 39.6792 10.5908 39.5097 10.5908 39.3329V37.8662C10.5901 37.3957 10.4895 36.9306 10.2956 36.5012C10.1016 36.0718 9.81864 35.6878 9.46509 35.3742L4.91929 31.3662C4.62397 31.1067 4.41338 30.7657 4.31444 30.3869L1.38764 19.5662C1.35735 19.4531 1.34243 19.3365 1.34328 19.2195C1.34406 18.9148 1.45006 18.6195 1.64363 18.3828C1.83721 18.1461 2.10667 17.9824 2.40715 17.9188C2.76679 17.8664 3.13312 17.9506 3.43291 18.1546C3.73269 18.3585 3.94383 18.6672 4.02412 19.0188L6.088 25.3402C6.07523 25.3609 6.05843 25.3775 6.04633 25.3982C5.68987 26.0107 5.59327 26.7385 5.77778 27.4216C5.9623 28.1048 6.41281 28.6872 7.03022 29.0409L10.8818 31.2468C10.9582 31.2913 11.0428 31.3203 11.1306 31.3323C11.2184 31.3442 11.3078 31.3387 11.3934 31.3162C11.4791 31.2938 11.5595 31.2547 11.6299 31.2013C11.7003 31.1479 11.7594 31.0812 11.8037 31.0051C11.848 30.9289 11.8767 30.8448 11.8881 30.7577C11.8995 30.6705 11.8935 30.5819 11.8702 30.4971C11.847 30.4122 11.8071 30.3328 11.7528 30.2633C11.6985 30.1938 11.6309 30.1356 11.5538 30.0922L7.70228 27.8869C7.54924 27.7994 7.41507 27.6829 7.30743 27.544C7.19978 27.4051 7.12077 27.2465 7.0749 27.0773C6.98226 26.7356 7.03026 26.3714 7.20832 26.0648C7.38638 25.7583 7.67993 25.5344 8.02438 25.4425C8.36883 25.3506 8.73598 25.3982 9.04505 25.5749L14.986 29.0295C15.6927 29.4423 16.2788 30.0306 16.6866 30.7364C17.0943 31.4423 17.3096 32.2413 17.3113 33.0549V39.3329C17.3113 39.5097 17.3821 39.6792 17.5082 39.8043C17.6342 39.9293 17.8052 39.9995 17.9834 39.9995C18.1616 39.9995 18.3326 39.9293 18.4586 39.8043C18.5847 39.6792 18.6555 39.5097 18.6555 39.3329V33.0549C18.6531 32.0089 18.3762 30.9816 17.852 30.074C17.3279 29.1665 16.5745 28.4099 15.6661 27.8789ZM7.68077 24.1555C7.50738 24.2019 7.339 24.2651 7.17808 24.3442L5.31245 18.6395C5.16147 18.0584 4.8242 17.5417 4.35146 17.1673C3.87872 16.7928 3.29612 16.5809 2.69143 16.5635V16.5528C2.6922 16.2481 2.7982 15.9528 2.99178 15.7161C3.18535 15.4795 3.45482 15.3157 3.75529 15.2522C4.11722 15.2001 4.48561 15.2859 4.78635 15.4923C5.08708 15.6988 5.29787 16.0105 5.37629 16.3649L8.07998 24.0909C7.94546 24.1024 7.81201 24.124 7.68077 24.1555Z" fill="#86B03C"/>
</svg>
