<svg width="54" height="54" viewBox="0 0 54 54" fill="none" xmlns="http://www.w3.org/2000/svg">
<path d="M41.5386 3.61566C41.9731 3.7178 42.4162 3.91688 42.6263 4.34432C43.1663 5.44251 41.6882 7.52179 41.4455 8.65967C41.262 9.5191 41.3265 10.4423 41.8456 11.1801C43.599 13.6705 46.9014 9.64662 48.803 10.2003C49.1348 10.2972 49.492 10.6043 49.6325 10.9289C49.7607 11.2262 49.7945 11.5756 49.6605 11.8788C48.8382 13.7414 43.4331 15.714 41.4982 16.4758C40.75 16.7764 39.9772 17.1115 39.3129 17.5727C38.3643 18.2305 37.1074 19.9337 35.8979 19.8693C34.9904 19.8212 34.3561 18.9435 33.8018 18.3177C33.8447 17.8161 33.831 17.0477 34.0503 16.5982C34.3554 15.9736 34.7789 15.8298 35.3892 15.578C36.0248 13.4441 36.7704 11.2789 37.475 9.16258C38.1575 7.11387 39.5608 4.61366 41.5386 3.61566Z" fill="#F27416"/>
<path d="M34.8757 21.6094C35.5484 23.0764 36.2328 24.5409 36.5008 26.1453C36.9491 28.8289 36.0747 31.6323 34.5048 33.8111C34.4001 33.9562 34.2914 34.0994 34.1795 34.2399C34.0676 34.3804 33.9518 34.5177 33.8334 34.6517C33.7143 34.7864 33.592 34.9178 33.4665 35.0466C33.3416 35.1748 33.2127 35.3003 33.0813 35.422C32.9493 35.5437 32.8152 35.6627 32.6773 35.7779C32.5394 35.893 32.3995 36.0049 32.2557 36.1129C32.1126 36.2209 31.9669 36.3257 31.8185 36.4265C31.6702 36.528 31.5193 36.6249 31.3657 36.718C31.2128 36.8117 31.0573 36.9014 30.8992 36.9867C30.7418 37.0725 30.5818 37.1539 30.4204 37.2319C30.2584 37.3094 30.0945 37.3829 29.9292 37.4525C29.7633 37.5221 29.5968 37.5872 29.4276 37.6483C29.2591 37.7095 29.0887 37.7661 28.9169 37.8188C28.7451 37.8715 28.5727 37.9196 28.3984 37.9632C28.2247 38.0074 28.0497 38.0471 27.8734 38.0823C27.6977 38.1174 27.5207 38.1486 27.3431 38.1746C24.5085 38.6138 22.048 37.7862 19.7755 36.0934C19.635 35.9906 19.497 35.8839 19.3617 35.774C19.227 35.664 19.095 35.5508 18.9655 35.4344C18.836 35.3173 18.7098 35.1976 18.5862 35.0752C18.4626 34.9523 18.3422 34.8261 18.2258 34.6973C18.1087 34.5684 17.9948 34.4364 17.8842 34.3017C17.7736 34.167 17.6669 34.0297 17.5635 33.8892C17.4594 33.7493 17.3598 33.6069 17.2636 33.4618C17.1673 33.3167 17.0742 33.169 16.9851 33.0194C16.8966 32.8697 16.8114 32.7182 16.7301 32.564C16.6488 32.4098 16.5713 32.2543 16.4978 32.0962C16.4243 31.9381 16.3547 31.7787 16.289 31.6174C16.2233 31.456 16.1621 31.2927 16.1048 31.1288C16.0476 30.9642 15.9942 30.7983 15.9455 30.6311C15.896 30.4639 15.8518 30.2954 15.8108 30.1262C15.7705 29.9571 15.734 29.7866 15.7021 29.6155C15.6703 29.4444 15.6423 29.272 15.6189 29.0996C15.2253 26.2448 15.9383 23.1259 17.7235 20.843C19.4229 18.6693 21.7305 17.2595 24.4831 16.9544C24.6718 16.9342 24.8611 16.9186 25.0504 16.9075C25.2404 16.8965 25.4297 16.89 25.6197 16.888C25.8097 16.8861 25.9997 16.8887 26.189 16.8965C26.3789 16.9043 26.5683 16.9167 26.7576 16.9336C26.9463 16.9498 27.1349 16.9713 27.323 16.9973C27.511 17.024 27.6984 17.0546 27.8851 17.0897C28.0718 17.1255 28.2572 17.1652 28.442 17.2101C28.6261 17.2543 28.8096 17.3031 28.9917 17.3565C29.1739 17.4105 29.3548 17.4684 29.5343 17.5308C29.7132 17.5933 29.8908 17.6596 30.0671 17.7312C30.2428 17.8021 30.4172 17.8776 30.5896 17.9576C30.762 18.037 30.9318 18.1209 31.1003 18.2094C31.2681 18.2972 31.434 18.3896 31.598 18.4859C31.7613 18.5822 31.9226 18.6824 32.0814 18.7864C32.2401 18.8905 32.3963 18.9985 32.5491 19.1104C32.7027 19.2223 32.8536 19.3382 33.0013 19.4572C33.6473 20.0662 34.5308 20.7714 34.8757 21.6094Z" fill="#F27416"/>
<path d="M33.0016 19.4575C33.6476 20.0665 34.5311 20.7717 34.8759 21.6096C33.9534 22.7065 32.7296 23.4684 31.7726 24.5093L30.1442 25.7441C29.5671 25.2386 29.0492 24.6219 28.2367 24.5932C27.9914 24.4378 27.7611 24.2582 27.5269 24.0877C28.3603 23.3155 29.2782 22.6395 30.2001 21.9792C31.3139 21.5413 32.1207 20.2421 33.0016 19.4575Z" fill="#EC621A"/>
<path d="M31.7724 24.5083C32.1589 24.8056 32.4997 25.1569 32.6624 25.6247C33.1315 26.976 32.5531 29.2771 31.9604 30.5347C31.1641 32.2262 29.7744 33.5463 27.9879 34.1383C27.8812 34.1734 27.7739 34.2066 27.6652 34.2359C27.5572 34.2665 27.4479 34.2931 27.338 34.3179C27.2287 34.3419 27.1181 34.3641 27.0075 34.3823C26.8969 34.4011 26.7856 34.4174 26.6737 34.4304C26.5618 34.4441 26.4499 34.4545 26.338 34.4616C26.2261 34.4694 26.1136 34.474 26.001 34.476C25.8891 34.4773 25.7766 34.4766 25.664 34.4727C25.5521 34.4688 25.4396 34.4623 25.3277 34.4525C25.2158 34.4428 25.1039 34.4304 24.9926 34.4155C24.8814 34.3998 24.7707 34.3816 24.6601 34.3608C24.5495 34.34 24.4396 34.3166 24.3303 34.2899C24.221 34.2632 24.113 34.2346 24.005 34.2027C23.897 34.1702 23.7903 34.1357 23.6843 34.098C23.5782 34.0609 23.4735 34.0212 23.3694 33.9783C23.2653 33.9353 23.1625 33.8904 23.061 33.8423C22.9595 33.7941 22.8587 33.744 22.7598 33.6907C22.6583 33.6367 22.5581 33.5801 22.4599 33.5209C22.361 33.4617 22.264 33.3999 22.1684 33.3355C22.0728 33.2717 21.9791 33.2047 21.8867 33.1364C21.795 33.0674 21.7045 32.9965 21.6161 32.923C21.5276 32.8495 21.4404 32.774 21.3558 32.6966C21.2712 32.6185 21.188 32.5385 21.1073 32.4572C21.0266 32.3752 20.9479 32.2913 20.8711 32.2054C20.795 32.1195 20.7208 32.0317 20.6486 31.9426C20.5764 31.8528 20.5061 31.7617 20.4385 31.6687C20.3708 31.5756 20.3058 31.4806 20.2433 31.3844C20.1802 31.2881 20.1197 31.1898 20.0618 31.0909C20.0039 30.9914 19.9486 30.8906 19.8959 30.7884C19.8426 30.6863 19.7924 30.5828 19.7449 30.4781C19.6975 30.374 19.6519 30.2679 19.6096 30.1612C19.5674 30.0539 19.5277 29.9459 19.4906 29.8373C19.4542 29.7286 19.4197 29.6187 19.3884 29.5081C18.9239 27.8985 19.0768 25.8517 19.9258 24.384C20.9303 22.6495 22.8073 21.2352 24.7564 20.8045C26.7108 20.3731 28.5559 20.9196 30.1999 21.9781C29.278 22.6385 28.3601 23.3145 27.5267 24.0867C27.7609 24.2572 27.9912 24.4367 28.2365 24.5922C29.049 24.6208 29.5669 25.2376 30.144 25.7431L31.7724 24.5083Z" fill="white"/>
<path d="M28.2367 24.593C28.3238 24.6945 28.4103 24.7967 28.4956 24.9001C29.2379 25.807 29.7037 26.8141 29.5612 28.006C29.4337 29.0743 28.8072 29.9441 27.9673 30.585C27.2211 31.1549 26.3324 31.5114 25.3832 31.3461C24.4424 31.1822 23.6285 30.5596 23.0944 29.7854C23.0105 29.667 22.9337 29.5447 22.8628 29.4178C22.7925 29.2916 22.7281 29.1615 22.6715 29.0281C22.6143 28.8954 22.5642 28.7594 22.5212 28.6208C22.4789 28.4823 22.4431 28.3424 22.4145 28.1999C22.3865 28.0581 22.3657 27.9149 22.3527 27.7705C22.3397 27.6261 22.3339 27.4817 22.3358 27.3366C22.3378 27.1915 22.3469 27.0477 22.3638 26.9033C22.3813 26.7595 22.4054 26.617 22.4373 26.4758C22.6377 25.5715 23.0755 24.7212 23.8875 24.2294C24.9954 23.5593 26.3434 23.7837 27.5269 24.0875C27.7611 24.258 27.9914 24.4375 28.2367 24.593Z" fill="#1C2847"/>
<path d="M23.0878 0C25.0805 0.0234184 27.0739 0.0325279 29.0667 0.0273247C29.6737 2.23022 30.6457 4.3121 31.265 6.50524C33.0379 7.08817 34.6377 7.71989 36.2602 8.65088C35.8575 10.6163 35.2017 12.4998 34.4152 14.3416C32.9683 13.4073 31.4921 12.6865 29.8227 12.2382C29.5839 12.1745 29.3432 12.1166 29.1012 12.0645C28.8592 12.0125 28.6158 11.9663 28.3719 11.9266C28.1272 11.8869 27.882 11.8531 27.6361 11.8251C27.3908 11.7978 27.1442 11.7757 26.897 11.7607C26.6504 11.7451 26.4025 11.736 26.1553 11.7327C25.9081 11.7295 25.6602 11.7321 25.413 11.7418C25.1658 11.7503 24.9185 11.7659 24.672 11.7874C24.4254 11.8088 24.1801 11.8362 23.9348 11.8693C23.6896 11.9032 23.445 11.9429 23.2016 11.9884C22.9583 12.0346 22.7169 12.086 22.4762 12.1439C22.2355 12.2011 21.9961 12.2649 21.7586 12.3345C21.5212 12.4041 21.2857 12.4796 21.0521 12.5609C20.8179 12.6422 20.5863 12.7294 20.3573 12.8225C20.1276 12.9148 19.9006 13.0137 19.6761 13.1178C19.4516 13.2219 19.2298 13.3312 19.0105 13.4464C18.7913 13.5615 18.5753 13.6819 18.3625 13.8074C14.8682 15.8542 12.0005 19.1533 10.9907 23.1291C9.8958 27.4386 10.4319 31.9517 12.7558 35.7603C14.9346 39.3313 18.291 41.7366 22.3598 42.6955C26.4767 43.6656 31.1863 42.8087 34.7483 40.5531C34.9662 40.4152 35.1803 40.2714 35.3911 40.1225C35.6019 39.9741 35.8081 39.8199 36.0111 39.6605C36.2141 39.5011 36.4131 39.3372 36.6083 39.168C36.8028 38.9989 36.9928 38.8245 37.1789 38.6463C37.365 38.4674 37.5465 38.2839 37.7234 38.0965C37.9004 37.9085 38.0722 37.7166 38.2394 37.5201C38.4066 37.3236 38.5692 37.1232 38.726 36.9183C38.8834 36.714 39.0357 36.5058 39.182 36.2937C39.3291 36.0816 39.4703 35.8657 39.6062 35.6464C39.7422 35.4272 39.8723 35.2047 39.9972 34.9789C40.1222 34.7531 40.2412 34.5248 40.3551 34.2925C40.4683 34.0609 40.5756 33.8267 40.6771 33.5899C40.7786 33.3524 40.8749 33.113 40.964 32.871C41.0538 32.6296 41.1377 32.3857 41.2151 32.1391C41.2919 31.8932 41.3635 31.6453 41.4285 31.3955C41.4936 31.1463 41.5521 30.8952 41.6048 30.6421C42.5755 26.1491 41.6244 22.2963 39.1788 18.4904C39.7084 18.2946 40.2282 18.0577 40.7493 17.8391C42.554 18.2562 43.7921 18.4481 45.6053 17.9497C46.1154 19.3862 46.4029 20.8748 46.6534 22.3744C47.9442 22.5845 51.6389 22.8031 52.5347 23.3913C53.0155 23.7075 53.2419 24.2065 53.3545 24.7543C53.6036 25.9676 53.6882 29.0722 52.9713 30.0709C52.7241 30.4163 52.3604 30.6375 51.9622 30.7702C50.8764 31.132 47.9123 31.4299 46.5708 31.685L46.2344 32.964C45.6671 34.7993 45.0269 36.5071 44.0003 38.1356C45.1401 39.6944 46.7744 41.2675 47.6312 42.9818C47.8726 43.4645 47.9767 43.9668 47.7796 44.4866C47.5109 45.1977 44.647 48.2366 43.9001 48.478C42.5261 48.9223 38.1691 46.0532 36.8679 45.3174C34.9558 46.251 33.032 46.9933 31.0113 47.6511C30.5871 48.9503 30.2631 50.2632 29.9151 51.5832C29.6991 52.4004 29.4252 53.183 28.6327 53.6053C27.6907 54.1069 24.2543 54.0952 23.212 53.7679C21.9779 52.822 21.2115 49.2014 20.7301 47.627C18.8303 47.1059 17.159 46.3206 15.3978 45.4586C13.7427 46.3655 12.0135 47.8293 10.2484 48.4318C9.75005 48.6022 9.37792 48.5678 8.91795 48.3062C7.76706 47.6511 5.3638 45.3584 5.05932 44.0826C4.93961 43.5836 5.01507 43.11 5.22456 42.6454C5.67217 41.6533 7.64669 39.1674 8.39227 38.0035C7.44371 35.9743 6.50167 34.0492 5.99096 31.858C4.57203 31.346 2.92994 30.9882 1.57801 30.3428C0.927423 30.0325 0.485013 29.5816 0.269668 28.8868C-0.0478193 27.8641 -0.159705 24.777 0.353609 23.8525C0.924176 22.824 4.8882 21.9548 6.16075 21.5234C6.89006 19.6699 7.61742 17.8749 8.6382 16.1554C7.61807 14.2219 6.488 12.2916 5.22715 10.5057C6.717 8.81548 8.31941 7.20657 9.86977 5.56969C11.6036 6.87672 13.5476 7.97427 15.3907 9.12061C17.1232 8.10048 18.8329 7.42061 20.7288 6.78954C21.5342 4.532 22.4606 2.31479 23.0878 0Z" fill="#1C2847"/>
</svg>
