<svg width="48" height="53" viewBox="0 0 48 53" fill="none" xmlns="http://www.w3.org/2000/svg">
<path d="M28.14 28.0498H26.4849V29.6998H28.14V28.0498Z" fill="white"/>
<path d="M28.14 31.3496H26.4849V32.9996H28.14V31.3496Z" fill="white"/>
<path d="M28.14 34.6504H26.4849V36.3004H28.14V34.6504Z" fill="white"/>
<path d="M21.5189 28.0498H19.8638V29.6998H21.5189V28.0498Z" fill="white"/>
<path d="M21.5189 31.3496H19.8638V32.9996H21.5189V31.3496Z" fill="white"/>
<path d="M21.5189 34.6504H19.8638V36.3004H21.5189V34.6504Z" fill="white"/>
<path d="M24.8276 1.67063V0H23.1724V1.67063C10.3208 2.10788 0 12.6596 0 25.575H1.65517C1.65517 25.3687 1.6651 25.1658 1.6709 24.9612C2.688 23.2559 4.47393 22.275 6.62069 22.275C8.78235 22.275 10.5807 23.2683 11.5937 24.9975C11.5912 25.1897 11.5862 25.3811 11.5862 25.575H13.2414C13.2414 25.3737 13.2463 25.174 13.2488 24.9736C14.2643 23.26 16.0552 22.275 18.2069 22.275C20.3652 22.275 22.1594 23.265 23.1724 24.9859V47.025C23.1724 48.5669 23.7757 50.0173 24.8698 51.1079C25.9639 52.1986 27.4188 52.8 28.9655 52.8C30.5123 52.8 31.9672 52.1986 33.0612 51.1079C34.1553 50.0173 34.7586 48.5669 34.7586 47.025H33.1034C33.1034 48.1264 32.6723 49.1626 31.891 49.9414C31.1098 50.7202 30.0703 51.15 28.9655 51.15C27.8607 51.15 26.8212 50.7202 26.04 49.9414C25.2588 49.1626 24.8276 48.1264 24.8276 47.025V24.9868C25.8422 23.265 27.6372 22.275 29.7931 22.275C31.9465 22.275 33.7374 23.2609 34.7512 24.9744C34.7537 25.1749 34.7586 25.3737 34.7586 25.575H36.4138C36.4138 25.3811 36.4088 25.1906 36.4063 24.9983C37.4185 23.2691 39.2168 22.275 41.3793 22.275C43.5269 22.275 45.3137 23.2559 46.3291 24.962C46.3349 25.1658 46.3448 25.3696 46.3448 25.575H48C48 12.6596 37.6783 2.10788 24.8276 1.67063ZM6.62069 20.625C4.82979 20.625 3.19366 21.1967 1.91007 22.214C3.26731 13.3081 9.936 6.11985 18.5834 3.96578C14.856 7.3689 12.211 14.2288 11.6855 22.5274C10.3556 21.3188 8.58372 20.625 6.62069 20.625ZM18.2069 20.625C16.3506 20.625 14.6657 21.2446 13.3622 22.3319C14.1054 12.2859 18.2317 4.19842 23.1724 3.3759V22.4383C21.8541 21.2858 20.1219 20.625 18.2069 20.625ZM29.7931 20.625C27.8789 20.625 26.1468 21.2858 24.8276 22.4392V3.3759C29.7683 4.19842 33.8946 12.2851 34.6378 22.3319C33.3343 21.2446 31.6494 20.625 29.7931 20.625ZM41.3793 20.625C39.4154 20.625 37.6444 21.3188 36.3145 22.5266C35.789 14.228 33.144 7.36808 29.4166 3.96495C38.0632 6.11985 44.7319 13.3072 46.0899 22.2131C44.8072 21.1967 43.1702 20.625 41.3793 20.625Z" fill="white"/>
<path d="M39.9198 34.6394H41.3805V32.9894H40.3601L42.4225 29.5615L39.9496 27.0956L37.2426 27.9948L34.5356 27.0947L32.0627 29.5607L34.1251 32.9894H33.1047V34.6394H34.5654C34.2103 35.4495 33.4084 36.3166 32.5138 37.2818C30.5648 39.3839 28.1392 42.0008 28.1392 46.1894C28.1392 47.2025 28.2865 48.1281 28.5761 48.9407L30.1361 48.388C29.9094 47.7527 29.7943 47.0127 29.7943 46.1894C29.7943 42.646 31.884 40.3913 33.7287 38.4022C34.9279 37.1094 35.9905 35.9618 36.3149 34.6394H38.1703C38.4947 35.9618 39.5574 37.1086 40.7565 38.4022C42.6012 40.3913 44.6909 42.646 44.6909 46.1894C44.6909 49.4737 43.02 51.1393 39.7254 51.1393H34.7598V52.7893H39.7254C43.9328 52.7893 46.3461 50.3837 46.3461 46.1894C46.3461 42.0008 43.9204 39.3839 41.9723 37.2818C41.0776 36.3166 40.2749 35.4495 39.9198 34.6394ZM36.0559 32.9894L34.1458 29.8172L34.9833 28.9832L37.2426 29.7339L39.5011 28.984L40.3386 29.8181L38.4294 32.9894H36.0559Z" fill="white"/>
<path d="M12.4155 34.6504C7.39615 34.6504 3.31201 38.7218 3.31201 43.7254C3.31201 48.729 7.39615 52.8004 12.4155 52.8004C17.4348 52.8004 21.5189 48.729 21.5189 43.7254C21.5189 38.7218 17.4348 34.6504 12.4155 34.6504ZM12.4155 51.1504C8.30898 51.1504 4.96718 47.8199 4.96718 43.7254C4.96718 39.6309 8.30898 36.3004 12.4155 36.3004C16.5219 36.3004 19.8637 39.6309 19.8637 43.7254C19.8637 47.8199 16.5219 51.1504 12.4155 51.1504Z" fill="white"/>
<path d="M13.2434 42.9002H11.5882C11.3673 42.9002 11.1595 42.8144 11.0023 42.6576C10.8467 42.5025 10.7606 42.2963 10.7606 42.0752C10.7606 41.8541 10.8467 41.6478 11.0023 41.4927C11.1595 41.336 11.3673 41.2502 11.5882 41.2502H14.8986V39.6002H13.2434V37.9502H11.5882V39.6002C10.9262 39.6002 10.3022 39.8576 9.83292 40.3245C9.36368 40.7915 9.10547 41.4135 9.10547 42.0752C9.10547 42.7368 9.3645 43.3589 9.83292 43.8258C10.3013 44.2928 10.9262 44.5502 11.5882 44.5502H13.2434C13.4644 44.5502 13.6721 44.636 13.8293 44.7927C13.9849 44.9478 14.071 45.1541 14.071 45.3752C14.071 45.5963 13.9849 45.8025 13.8293 45.9576C13.6721 46.1144 13.4644 46.2002 13.2434 46.2002H9.93305V47.8502H11.5882V49.5002H13.2434V47.8502C13.9055 47.8502 14.5295 47.5928 14.9987 47.1258C15.468 46.6589 15.7262 46.0368 15.7262 45.3752C15.7262 44.7135 15.4671 44.0915 14.9987 43.6245C14.5303 43.1576 13.9055 42.9002 13.2434 42.9002Z" fill="white"/>
</svg>
