<svg width="40" height="40" viewBox="0 0 40 40" fill="none" xmlns="http://www.w3.org/2000/svg">
<path d="M31.666 34.1693C32.3752 33.8509 32.9817 33.4379 33.514 32.9018C35.8327 30.5658 35.8327 26.8061 35.8327 19.2868C35.8327 11.7675 35.8327 8.00784 33.514 5.67189C31.1952 3.33594 27.4632 3.33594 19.9993 3.33594C12.5354 3.33594 8.8035 3.33594 6.48475 5.67189C4.16602 8.00784 4.16602 11.7675 4.16602 19.2868C4.16602 26.8061 4.16602 30.5658 6.48475 32.9018C7.01695 33.4379 7.62357 33.8509 8.33268 34.1693" stroke="#E74526" stroke-width="2.4" stroke-linecap="round"/>
<path d="M4.16602 14.1641H35.8327" stroke="#E74526" stroke-width="2.4" stroke-linejoin="round"/>
<path d="M11.666 9.16406H11.681" stroke="#E74526" stroke-width="2.4" stroke-linecap="round" stroke-linejoin="round"/>
<path d="M18.332 9.16406H18.347" stroke="#E74526" stroke-width="2.4" stroke-linecap="round" stroke-linejoin="round"/>
<path d="M15.8327 27.2891C15.8327 27.9794 16.3923 28.5391 17.0827 28.5391C17.773 28.5391 18.3327 27.9794 18.3327 27.2891H15.8327ZM21.666 27.2891C21.666 27.9794 22.2257 28.5391 22.916 28.5391C23.6063 28.5391 24.166 27.9794 24.166 27.2891H21.666ZM18.541 28.5391H21.4577V26.0391H18.541V28.5391ZM21.4577 35.4141H18.541V37.9141H21.4577V35.4141ZM18.541 35.4141C17.8432 35.4141 17.3869 35.4132 17.0364 35.3877C16.6987 35.3629 16.5557 35.3201 16.4736 35.2837L15.4595 37.5687C15.9133 37.7702 16.3781 37.8462 16.854 37.8811C17.3168 37.9149 17.8798 37.9141 18.541 37.9141V35.4141ZM12.916 31.9766C12.916 32.6886 12.9154 33.2811 12.9463 33.7659C12.9778 34.2602 13.0456 34.7291 13.2221 35.1857L15.5539 34.2842C15.5084 34.1664 15.4653 33.9842 15.4412 33.6071C15.4166 33.2201 15.416 32.7206 15.416 31.9766H12.916ZM16.4736 35.2837C16.0779 35.1081 15.7372 34.7584 15.5539 34.2842L13.2221 35.1857C13.6309 36.2431 14.4258 37.1101 15.4595 37.5687L16.4736 35.2837ZM24.5827 31.9766C24.5827 32.7206 24.582 33.2201 24.5575 33.6071C24.5335 33.9842 24.4904 34.1664 24.4447 34.2842L26.7765 35.1857C26.953 34.7291 27.0209 34.2602 27.0524 33.7659C27.0834 33.2811 27.0827 32.6886 27.0827 31.9766H24.5827ZM21.4577 37.9141C22.1188 37.9141 22.6819 37.9149 23.1447 37.8811C23.6207 37.8462 24.0854 37.7702 24.5392 37.5687L23.5252 35.2837C23.443 35.3201 23.3 35.3629 22.9623 35.3877C22.6118 35.4132 22.1555 35.4141 21.4577 35.4141V37.9141ZM24.4447 34.2842C24.2615 34.7584 23.9209 35.1081 23.5252 35.2837L24.5392 37.5687C25.5729 37.1101 26.3678 36.2431 26.7765 35.1857L24.4447 34.2842ZM21.4577 28.5391C22.1555 28.5391 22.6118 28.5399 22.9623 28.5654C23.3 28.5902 23.443 28.6331 23.5252 28.6694L24.5392 26.3844C24.0854 26.1829 23.6207 26.1069 23.1447 26.0721C22.6819 26.0382 22.1188 26.0391 21.4577 26.0391V28.5391ZM27.0827 31.9766C27.0827 31.2646 27.0834 30.6721 27.0524 30.1872C27.0209 29.6929 26.953 29.2241 26.7765 28.7674L24.4447 29.6689C24.4904 29.7867 24.5335 29.9689 24.5575 30.3461C24.582 30.7331 24.5827 31.2326 24.5827 31.9766H27.0827ZM23.5252 28.6694C23.9209 28.8451 24.2615 29.1947 24.4447 29.6689L26.7765 28.7674C26.3678 27.7102 25.5729 26.8431 24.5392 26.3844L23.5252 28.6694ZM18.541 26.0391C17.8798 26.0391 17.3168 26.0382 16.854 26.0721C16.3781 26.1069 15.9133 26.1829 15.4595 26.3844L16.4736 28.6694C16.5557 28.6331 16.6987 28.5902 17.0364 28.5654C17.3869 28.5399 17.8432 28.5391 18.541 28.5391V26.0391ZM15.416 31.9766C15.416 31.2326 15.4166 30.7331 15.4412 30.3461C15.4653 29.9689 15.5084 29.7867 15.5539 29.6689L13.2221 28.7674C13.0456 29.2241 12.9778 29.6929 12.9463 30.1872C12.9154 30.6721 12.916 31.2646 12.916 31.9766H15.416ZM15.4595 26.3844C14.4258 26.8431 13.6309 27.7102 13.2221 28.7674L15.5539 29.6689C15.7372 29.1947 16.0779 28.8451 16.4736 28.6694L15.4595 26.3844ZM18.3327 27.2891V24.4766H15.8327V27.2891H18.3327ZM21.666 24.4766V27.2891H24.166V24.4766H21.666ZM19.9994 22.9141C20.963 22.9141 21.666 23.6561 21.666 24.4766H24.166C24.166 22.1904 22.2573 20.4141 19.9994 20.4141V22.9141ZM18.3327 24.4766C18.3327 23.6561 19.0357 22.9141 19.9994 22.9141V20.4141C17.7414 20.4141 15.8327 22.1904 15.8327 24.4766H18.3327Z" fill="#E74526"/>
</svg>
