<svg width="40" height="40" viewBox="0 0 40 40" fill="none" xmlns="http://www.w3.org/2000/svg">
<path d="M29.9999 14C28.0221 14 26.0887 14.5865 24.4442 15.6853C22.7998 16.7841 21.518 18.3459 20.7611 20.1732C20.0043 22.0004 19.8062 24.0111 20.1921 25.9509C20.5779 27.8907 21.5304 29.6725 22.9289 31.0711C24.3274 32.4696 26.1092 33.422 28.049 33.8079C29.9889 34.1937 31.9995 33.9957 33.8268 33.2388C35.654 32.4819 37.2158 31.2002 38.3146 29.5557C39.4135 27.9112 39.9999 25.9778 39.9999 24C39.9969 21.3488 38.9424 18.807 37.0677 16.9322C35.193 15.0575 32.6512 14.003 29.9999 14ZM29.9999 32.6667C28.2858 32.6667 26.6102 32.1584 25.185 31.2061C23.7598 30.2538 22.6489 28.9002 21.993 27.3166C21.337 25.733 21.1654 23.9904 21.4998 22.3092C21.8342 20.628 22.6596 19.0838 23.8717 17.8717C25.0837 16.6597 26.628 15.8343 28.3092 15.4999C29.9903 15.1655 31.7329 15.3371 33.3165 15.993C34.9002 16.649 36.2537 17.7598 37.206 19.1851C38.1583 20.6103 38.6666 22.2859 38.6666 24C38.664 26.2977 37.75 28.5006 36.1253 30.1253C34.5005 31.7501 32.2977 32.664 29.9999 32.6667Z" fill="#86B03C"/>
<path d="M32.6666 20.0007C32.8434 20.0007 33.013 20.0709 33.138 20.1959C33.263 20.3209 33.3333 20.4905 33.3333 20.6673H34.6666C34.6666 20.1369 34.4559 19.6282 34.0808 19.2531C33.7057 18.878 33.197 18.6673 32.6666 18.6673H30.6666V17.334H29.3333V18.6673H27.3333C26.8028 18.6673 26.2941 18.878 25.919 19.2531C25.544 19.6282 25.3333 20.1369 25.3333 20.6673V22.6673C25.3333 23.1978 25.544 23.7065 25.919 24.0815C26.2941 24.4566 26.8028 24.6673 27.3333 24.6673H29.3333V28.0007H27.3333C27.1564 28.0007 26.9869 27.9304 26.8618 27.8054C26.7368 27.6804 26.6666 27.5108 26.6666 27.334H25.3333C25.3333 27.8644 25.544 28.3731 25.919 28.7482C26.2941 29.1233 26.8028 29.334 27.3333 29.334H29.3333V30.6673H30.6666V29.334H32.6666C33.197 29.334 33.7057 29.1233 34.0808 28.7482C34.4559 28.3731 34.6666 27.8644 34.6666 27.334V25.334C34.6666 24.8036 34.4559 24.2948 34.0808 23.9198C33.7057 23.5447 33.197 23.334 32.6666 23.334H30.6666V20.0007H32.6666ZM32.6666 24.6673C32.8434 24.6673 33.013 24.7376 33.138 24.8626C33.263 24.9876 33.3333 25.1572 33.3333 25.334V27.334C33.3333 27.5108 33.263 27.6804 33.138 27.8054C33.013 27.9304 32.8434 28.0007 32.6666 28.0007H30.6666V24.6673H32.6666ZM29.3333 23.334H27.3333C27.1564 23.334 26.9869 23.2637 26.8618 23.1387C26.7368 23.0137 26.6666 22.8441 26.6666 22.6673V20.6673C26.6666 20.4905 26.7368 20.3209 26.8618 20.1959C26.9869 20.0709 27.1564 20.0007 27.3333 20.0007H29.3333V23.334Z" fill="#86B03C"/>
<path d="M24 23.334H23.3333V24.6673H24V23.334Z" fill="#86B03C"/>
<path d="M36.6665 23.334H35.9999V24.6673H36.6665V23.334Z" fill="#86B03C"/>
<path d="M29.3333 37.3333C29.3333 37.687 29.1928 38.0261 28.9427 38.2761C28.6927 38.5262 28.3536 38.6667 27.9999 38.6667H2.66661C2.31298 38.6667 1.97384 38.5262 1.7238 38.2761C1.47375 38.0261 1.33327 37.687 1.33327 37.3333V2C1.33327 1.82319 1.40351 1.65362 1.52853 1.5286C1.65356 1.40357 1.82313 1.33333 1.99994 1.33333H19.9999V8.66667C19.9999 9.1971 20.2107 9.70581 20.5857 10.0809C20.9608 10.456 21.4695 10.6667 21.9999 10.6667H29.3333V12.6667H30.6666V9.724L20.9426 0H1.99994C1.46951 0 0.960798 0.210714 0.585725 0.585787C0.210653 0.960859 -6.10352e-05 1.46957 -6.10352e-05 2V37.3333C-6.10352e-05 38.0406 0.280891 38.7189 0.780988 39.219C1.28108 39.719 1.95936 40 2.66661 40H27.9999C28.7072 40 29.3855 39.719 29.8856 39.219C30.3857 38.7189 30.6666 38.0406 30.6666 37.3333V35.3333H29.3333V37.3333ZM21.3333 8.66667V2.276L28.3906 9.33333H21.9999C21.8231 9.33333 21.6536 9.2631 21.5285 9.13807C21.4035 9.01305 21.3333 8.84348 21.3333 8.66667Z" fill="#86B03C"/>
<path d="M2.66669 34.0007H18.6667V32.6673H18V19.334H14V32.6673H12.6667V27.334H8.66669V32.6673H7.33335V22.0007H3.33335V32.6673H2.66669V34.0007ZM15.3334 20.6673H16.6667V32.6673H15.3334V20.6673ZM10 28.6673H11.3334V32.6673H10V28.6673ZM4.66669 23.334H6.00002V32.6673H4.66669V23.334Z" fill="#86B03C"/>
<path d="M18.6667 2.66602H2.66669V3.99935H18.6667V2.66602Z" fill="#86B03C"/>
<path d="M10.6667 5.33398H2.66669V6.66732H10.6667V5.33398Z" fill="#86B03C"/>
<path d="M18.6665 5.33398H11.9999V6.66732H18.6665V5.33398Z" fill="#86B03C"/>
<path d="M18.6667 8H2.66669V9.33333H18.6667V8Z" fill="#86B03C"/>
<path d="M18.6667 10.666H2.66669V11.9993H18.6667V10.666Z" fill="#86B03C"/>
<path d="M10.6667 13.334H2.66669V14.6673H10.6667V13.334Z" fill="#86B03C"/>
<path d="M18.6665 13.334H11.9999V14.6673H18.6665V13.334Z" fill="#86B03C"/>
</svg>
