<svg width="20" height="20" viewBox="0 0 20 20" fill="none" xmlns="http://www.w3.org/2000/svg">
<path d="M9.7026 1.52145C9.81017 1.4601 9.90131 1.42969 9.99407 1.42969H10.0004C10.0951 1.43109 10.1895 1.46397 10.303 1.52726L14.6186 3.95415C15.012 4.19605 15.2733 4.62324 15.2733 5.1095V7.2451L9.96465 4.256C9.92098 4.23244 9.8746 4.21996 9.83092 4.21996C9.79753 4.21996 9.76577 4.22735 9.73816 4.24194C9.71091 4.25635 9.68762 4.27868 9.6703 4.30874C9.65027 4.34372 9.63817 4.39031 9.63817 4.44868L9.63799 7.8335L9.63817 7.86479L9.60623 7.86884L9.6037 7.86919L9.56887 7.87358L9.53386 7.87815L9.52935 7.87886L9.49524 7.88395L9.46167 7.88905L9.45264 7.89064L9.41781 7.89661L9.3837 7.90259L9.38172 7.90312L9.34616 7.9098L9.31133 7.917L9.30556 7.91806L9.27163 7.92544L9.23734 7.93353L9.23463 7.93406C9.07942 7.97027 8.92836 8.01774 8.78236 8.07522C8.75258 8.08683 8.72425 8.0986 8.69754 8.11003C8.66956 8.12181 8.64177 8.13429 8.61434 8.14695L8.61343 8.14712L8.58203 8.16189L8.55063 8.17719L8.54594 8.17912L8.51814 8.19301L8.48999 8.20742L8.47754 8.21375L8.45028 8.22799L8.42357 8.24241L8.41437 8.24733C8.40264 8.25366 8.38947 8.26104 8.37557 8.26895L8.36763 8.27335L8.36005 8.27774L8.35138 8.28267L8.32359 8.29866L8.29544 8.31554L8.29147 8.31783L8.26295 8.3354L8.23426 8.35316L8.23101 8.35562C8.1451 8.40977 8.06208 8.46813 7.98177 8.53019C7.96445 8.54373 7.94892 8.55586 7.93539 8.56676C7.92167 8.57766 7.90597 8.59049 7.88973 8.6042L7.88919 8.60455L7.88648 8.60684L7.86067 8.62846L7.83577 8.65026L7.83198 8.65342L7.80942 8.67347L7.78704 8.69351L7.77585 8.70388L7.75401 8.72392L7.73253 8.74414L7.72459 8.7517L7.70366 8.77191L7.6829 8.79248L7.67045 8.80479L7.6524 8.82307L7.63454 8.84153L7.61703 8.85981L7.60133 8.87651L7.58563 8.89339L7.56523 8.91572L7.55025 8.93224L7.53582 8.94841L7.52048 8.96617L7.50351 8.98551L7.48709 9.00485L7.47518 9.01961L7.45785 9.04036L7.44125 9.06075L7.4315 9.07323C7.39288 9.12175 7.35534 9.17185 7.31943 9.22336L7.29831 9.25378L7.27774 9.28384L7.27178 9.29298L7.24688 9.33095L7.23009 9.3575L7.21186 9.38686L7.2088 9.39178L7.20861 9.39231L7.19219 9.41955C7.18533 9.4307 7.18061 9.43886 7.17626 9.44641C7.17512 9.44839 7.174 9.45032 7.17288 9.45225L7.17144 9.45489L7.15501 9.48355L7.14509 9.5013L7.13498 9.51923L7.1191 9.54894L7.10141 9.58252L7.08463 9.61539L7.06712 9.65038L7.05232 9.68149L7.03626 9.71595L7.02471 9.74162L7.00504 9.78592L6.99168 9.81791L6.97779 9.85149C6.97332 9.8626 6.97 9.8711 6.96713 9.87844C6.9656 9.88237 6.96419 9.88597 6.96281 9.88946L6.961 9.89439L6.96082 9.89509L6.95053 9.92163C6.94277 9.94256 6.93628 9.96049 6.92978 9.97877L6.92527 9.9916L6.91444 10.0234L6.90379 10.0563L6.89332 10.0893L6.88629 10.1127L6.87925 10.1356L6.87239 10.1598L6.86914 10.1711L6.85958 10.2063L6.85145 10.2382L6.84045 10.2813L6.83359 10.3114C6.83088 10.3228 6.82817 10.3346 6.8242 10.3536L6.81698 10.3873L6.80886 10.4293L6.80309 10.4622L6.79587 10.5037L6.79045 10.5387L6.78432 10.5805L6.77981 10.6145L6.77493 10.6558L6.77096 10.692L6.76717 10.7338L6.76428 10.769L6.76176 10.8085L6.7614 10.8131L6.76086 10.8191L6.75923 10.8462L6.75761 10.8905L6.75725 10.898L6.75634 10.9244L6.75562 10.9634L6.75526 11.0026L6.75562 11.0431L6.75634 11.0838L6.75652 11.0851L6.75761 11.1244L6.75959 11.1651V11.1656L6.75977 11.1668L6.76194 11.2053L6.76483 11.2456L6.76825 11.286L6.77205 11.324L6.77223 11.3256C6.77746 11.3778 6.7845 11.4303 6.7928 11.4834L6.79894 11.5218L6.80597 11.5599V11.5608L6.80633 11.5618L6.80652 11.5632L6.81337 11.6003L6.82113 11.6385L6.82131 11.6394C6.82908 11.6758 6.8372 11.712 6.84622 11.7478L6.85163 11.7689L6.85723 11.7902V11.7907L6.85759 11.792L6.86788 11.8298L6.87835 11.8668L6.87853 11.8674C6.88272 11.882 6.88735 11.8966 6.89174 11.911C6.89263 11.9139 6.89352 11.9168 6.89441 11.9198L6.89748 11.93L6.90072 11.9403L6.90108 11.941L6.90127 11.9417L6.91336 11.9788L6.92545 12.0145L6.92599 12.0156L6.93862 12.0516L6.95162 12.0868L6.95198 12.0871L6.95234 12.0884L6.96551 12.123L6.97905 12.1573L6.98122 12.1622L6.99493 12.1956L7.00955 12.2295L7.01027 12.2313L7.02363 12.261L4.72473 13.5538V5.1095C4.72473 4.60795 5.0023 4.16968 5.41595 3.93218L5.43978 3.91899L9.7026 1.52145Z" fill="white"/>
<path d="M10.363 5.2679L17.8706 9.49005C18.3163 9.74074 18.5672 10.1943 18.5715 10.6619V15.4834C18.5726 15.6077 18.5531 15.701 18.5044 15.7805C18.4558 15.8598 18.3793 15.9229 18.2662 15.987L13.9508 18.4141C13.539 18.6251 13.0288 18.6321 12.5962 18.3886L10.7528 17.3521L10.6974 17.3208L10.7528 17.2899L16.0095 14.3373C16.0523 14.3122 16.0862 14.2793 16.1082 14.2424C16.1248 14.2141 16.1346 14.1837 16.1351 14.1533C16.1358 14.123 16.1279 14.0921 16.1098 14.0627C16.0885 14.0279 16.0534 13.9947 16.0014 13.9655L12.9921 12.2731L12.9642 12.2575L12.9766 12.2285L12.9775 12.226L12.9912 12.1945L13.0044 12.1627L13.0187 12.1272L13.0307 12.0963L13.0338 12.088L13.0461 12.0555L13.0578 12.0237L13.0584 12.0219L13.0699 11.9885L13.0811 11.9556L13.0831 11.9502L13.0936 11.9177L13.1037 11.885L13.1044 11.8825C13.1495 11.7334 13.1831 11.5821 13.2051 11.4302C13.2094 11.3992 13.2132 11.3697 13.2165 11.3414C13.2199 11.3117 13.2228 11.2821 13.2255 11.2526V11.2517L13.2282 11.218L13.2304 11.1837L13.2305 11.1788L13.2323 11.1484L13.2338 11.1174L13.2343 11.1039L13.2352 11.0736L13.2359 11.0337C13.2361 11.0207 13.2363 11.006 13.2361 10.9901V10.9631L13.2356 10.9316L13.2349 10.8994L13.2347 10.8949L13.2336 10.8622L13.232 10.8289L13.2316 10.8249C13.226 10.7256 13.2157 10.6261 13.2008 10.5274C13.1977 10.506 13.1944 10.4868 13.1916 10.47C13.1887 10.4531 13.1851 10.4334 13.1811 10.4128V10.4121L13.1804 10.4086L13.1739 10.3763L13.167 10.3443L13.1661 10.3395L13.1596 10.3103L13.1529 10.2813L13.1493 10.2667L13.1426 10.2386L13.1352 10.2101L13.1325 10.1996L13.1172 10.144L13.1123 10.1275L13.1051 10.1029L13.0903 10.0551L13.0833 10.0334L13.076 10.0115L13.0665 9.98334L13.0519 9.94203L13.0437 9.92023L13.0351 9.89632L13.0261 9.87276L13.0192 9.85518L13.0093 9.8304L12.9993 9.80614L12.9932 9.79172C12.9694 9.73494 12.9436 9.67833 12.9158 9.62207L12.8829 9.55668L12.8826 9.5565L12.8824 9.55615L12.8777 9.54718L12.8671 9.52697L12.8562 9.5071L12.8411 9.4795L12.8243 9.44962L12.8212 9.44452L12.821 9.44417L12.805 9.41657C12.7967 9.40233 12.7911 9.39319 12.7855 9.38404L12.7839 9.38141L12.7667 9.3531L12.7561 9.33605L12.7447 9.31847L12.7265 9.29017L12.7055 9.25835L12.6846 9.22793L12.662 9.19576L12.6422 9.16763L12.6194 9.13687L12.6023 9.11437L12.598 9.10874L12.5727 9.07569L12.551 9.04827L12.5281 9.01979C12.5162 9.00555 12.509 8.99676 12.5018 8.98832L12.4983 8.9841L12.498 8.98393L12.4794 8.96178C12.4648 8.94472 12.452 8.93031 12.439 8.91572L12.4298 8.90552L12.407 8.88038L12.3832 8.85489L12.3588 8.82958L12.3247 8.79459L12.3065 8.77666L12.298 8.7684L12.2719 8.74273L12.2475 8.71988L12.2146 8.68894L12.1914 8.66819C12.1825 8.66011 12.1733 8.65202 12.1585 8.63918L12.1322 8.61616L12.0988 8.58855L12.0724 8.56693L12.0392 8.54021L12.0109 8.51824L11.9766 8.49204L11.9488 8.4713L11.9145 8.44651L11.8842 8.42506L11.849 8.40098L11.819 8.38094L11.79 8.36213L11.7851 8.35896L11.7813 8.35633L11.7764 8.35316L11.753 8.33839L11.7145 8.31448L11.6849 8.29655L11.6505 8.27634L11.616 8.25647L11.5799 8.23661L11.5431 8.21674L11.542 8.21657L11.5065 8.19758L11.4695 8.17894L11.4689 8.17859L11.4677 8.17824L11.4323 8.16084L11.3951 8.14308L11.3576 8.12585L11.3218 8.10986L11.3202 8.10915C11.2713 8.08788 11.2211 8.06731 11.1697 8.0478L11.1327 8.03391L11.0952 8.02055L11.0944 8.02037L11.0932 8.01985L11.0921 8.01932L11.0554 8.00666L11.0177 7.99418L11.0174 7.994L11.0166 7.99383C10.9805 7.98223 10.9441 7.97115 10.9078 7.9606L10.8865 7.95463L10.8647 7.94882L10.8643 7.94847L10.8632 7.94812L10.8244 7.93792L10.786 7.92826L10.7855 7.92808C10.7672 7.92369 10.749 7.91929 10.7308 7.91525L10.7203 7.91296L10.7095 7.9105L10.7089 7.91032L10.7079 7.91015L10.669 7.90189L10.6311 7.89415L10.6301 7.89397L10.5918 7.88677L10.5537 7.88009L10.5521 7.87991L10.5149 7.87358L10.4774 7.86813L10.472 7.86725L10.4355 7.86233L10.3982 7.85758L10.396 7.85723L10.363 7.85372V5.2679Z" fill="white"/>
<path d="M4.02738 8.42295L4.02413 14.3959C4.02503 14.4446 4.0373 14.4899 4.05914 14.5267C4.0761 14.555 4.0983 14.5782 4.12483 14.5938C4.15154 14.6097 4.18313 14.6183 4.21832 14.6179C4.25965 14.6172 4.30693 14.604 4.35873 14.575L7.39595 12.867L7.41562 12.8919L7.41724 12.8937L7.43836 12.9209L7.46002 12.9482L7.46272 12.9517L7.48438 12.9779L7.50586 13.0036L7.51163 13.0106L7.53437 13.037L7.55675 13.0626L7.5582 13.0642L7.58202 13.0906L7.60566 13.1166L7.60963 13.1208L7.63327 13.1458L7.65746 13.1707L7.65926 13.1727C7.76917 13.2854 7.88684 13.3893 8.01101 13.4837C8.03627 13.5028 8.06082 13.5209 8.08428 13.5378C8.10883 13.5554 8.13373 13.5728 8.15882 13.5897L8.15936 13.59L8.18823 13.6092L8.21747 13.6282L8.22162 13.631L8.24779 13.6477L8.27468 13.6642L8.28659 13.6716L8.31276 13.6874L8.33893 13.7027L8.34796 13.7082C8.35932 13.7147 8.3725 13.7222 8.38676 13.73L8.39434 13.7344L8.4021 13.7386L8.41076 13.7433L8.43891 13.759L8.46815 13.7743L8.47212 13.7765L8.5019 13.7918L8.53204 13.807L8.53583 13.8087C8.62697 13.8539 8.72046 13.895 8.81575 13.9314C8.8365 13.9395 8.85491 13.9465 8.87151 13.9523C8.88794 13.9585 8.90707 13.9652 8.92746 13.9722L8.928 13.9726L8.93161 13.9736L8.96356 13.9843L8.9955 13.9949L9.00019 13.9963L9.02925 14.0053L9.05831 14.014L9.07311 14.0186L9.10162 14.0267L9.1305 14.0348L9.14132 14.0376L9.16966 14.0452L9.19836 14.0525L9.2155 14.0568L9.24095 14.0629L9.26585 14.0689L9.29094 14.0743L9.33678 14.0842L9.36674 14.0902L9.38894 14.0944L9.41059 14.0986L9.43406 14.1027L9.45968 14.1072L9.48495 14.1114L9.50426 14.1143L9.53133 14.1183L9.55786 14.1222L9.57356 14.1243C9.63601 14.1325 9.69936 14.139 9.76306 14.1436L9.8006 14.1464L9.83778 14.1485L9.83814 14.1484H9.83868L9.84879 14.1491L9.87207 14.1501L9.89517 14.151L9.92711 14.1521L9.96213 14.1528H9.9688L10.0013 14.1531C10.0179 14.1531 10.0289 14.1531 10.0401 14.1529L10.043 14.1528L10.0767 14.1524L10.1184 14.1513L10.1529 14.1499L10.1915 14.1482L10.229 14.1457L10.2691 14.1429L10.3039 14.1401L10.3426 14.1364L10.3713 14.1332L10.3785 14.1325L10.4204 14.1276L10.4925 14.1179C10.5079 14.1158 10.5185 14.1139 10.528 14.1124C10.5299 14.112 10.5318 14.1117 10.5337 14.1114L10.5391 14.1104L10.5396 14.1102L10.5683 14.1056C10.5909 14.1019 10.6102 14.0984 10.6295 14.0946L10.6431 14.0921L10.6768 14.0854L10.7115 14.078L10.7461 14.0701L10.7705 14.0645L10.7943 14.0589L10.8194 14.0525L10.8309 14.0496L10.867 14.0401L10.8995 14.0313L10.9434 14.0188L10.9733 14.0097C10.9851 14.006 10.9968 14.0026 11.0157 13.9965L11.0493 13.9854L11.0906 13.9713L11.1228 13.9601L11.1632 13.9453L11.1969 13.9323L11.2375 13.9165L11.2699 13.9033L11.3088 13.8869L11.3431 13.872L11.3819 13.8544L11.415 13.8391L11.4462 13.824L11.4516 13.8215L11.4556 13.8194L11.461 13.817L11.4859 13.8048L11.5265 13.7841L11.5332 13.7806L11.557 13.7683L11.5922 13.7495L11.6272 13.73L11.6629 13.7096L11.6988 13.6883L11.6996 13.6878L11.7342 13.667L11.7694 13.645L11.7699 13.6449L11.7709 13.644L11.8039 13.6231L11.8383 13.6004L11.8725 13.5774L11.9046 13.5552L11.9058 13.5542C11.9493 13.5236 11.9928 13.4916 12.0358 13.458L12.0668 13.4336L12.0973 13.4086L12.0979 13.4081L12.099 13.4074L12.0999 13.4065L12.1295 13.3821L12.1596 13.3564L12.16 13.3562L12.1601 13.3557C12.1888 13.3309 12.2168 13.3061 12.2442 13.2806L12.2603 13.2655L12.2764 13.25L12.2767 13.2499L12.2776 13.2492L12.3061 13.2214L12.3338 13.1939L12.3343 13.1936C12.3475 13.1802 12.3603 13.1672 12.3729 13.154L12.3805 13.1463L12.3879 13.1384L12.3884 13.1377L12.389 13.1372L12.4161 13.1085L12.4417 13.0804L12.4424 13.0795L12.468 13.0508L12.4929 13.0222L12.4931 13.0218L12.494 13.0208L12.518 12.9927L12.5417 12.9638L12.5451 12.9596L12.5678 12.9313L12.5908 12.9021L12.592 12.9005L12.6117 12.8745L12.6404 12.8905L14.9106 14.1672L14.8555 14.1985L7.40317 18.3895C6.95739 18.6402 6.4286 18.6251 6.01062 18.3949L5.98716 18.3816L1.72415 15.9842C1.61316 15.9227 1.53988 15.8598 1.49368 15.7789C1.44766 15.6984 1.42961 15.6022 1.42907 15.4748L1.42871 10.6208C1.4473 10.1681 1.69636 9.73406 2.12877 9.49075L4.02738 8.42295Z" fill="white"/>
<path d="M9.99993 13.4713C8.59023 13.4713 7.44695 12.3517 7.44695 10.9713C7.44695 9.59086 8.59023 8.47129 9.99993 8.47129C11.41 8.47129 12.5533 9.59086 12.5533 10.9713C12.5533 12.3517 11.41 13.4713 9.99993 13.4713Z" fill="white"/>
</svg>
