<svg width="21" height="21" viewBox="0 0 21 21" fill="none" xmlns="http://www.w3.org/2000/svg">
<path d="M10.6797 2.11716C10.7872 2.0558 10.8784 2.02539 10.9711 2.02539H10.9774C11.0722 2.0268 11.1666 2.05967 11.2801 2.12296L15.5956 4.54986C15.9891 4.79176 16.2504 5.21895 16.2504 5.70521V7.84081L10.9417 4.8517C10.898 4.82815 10.8516 4.81566 10.808 4.81566C10.7746 4.81566 10.7428 4.82305 10.7152 4.83764C10.688 4.85206 10.6647 4.87438 10.6473 4.90444C10.6273 4.93943 10.6152 4.98601 10.6152 5.04438L10.615 8.4292L10.6152 8.4605L10.5833 8.46454L10.5808 8.46489L10.5459 8.46929L10.5109 8.47386L10.5064 8.47456L10.4723 8.47966L10.4387 8.48476L10.4297 8.48634L10.3949 8.49231L10.3608 8.49829L10.3588 8.49882L10.3232 8.5055L10.2884 8.51271L10.2826 8.51376L10.2487 8.52115L10.2144 8.52923L10.2117 8.52976C10.0565 8.56597 9.90542 8.61344 9.75941 8.67093C9.72963 8.68253 9.7013 8.69431 9.67459 8.70573C9.64661 8.71751 9.61882 8.73 9.59139 8.74265L9.59049 8.74283L9.55908 8.7576L9.52768 8.77289L9.52299 8.77482L9.49519 8.78871L9.46704 8.80313L9.45459 8.80946L9.42734 8.8237L9.40063 8.83811L9.39142 8.84303C9.37969 8.84936 9.36652 8.85675 9.35262 8.86466L9.34468 8.86905L9.3371 8.87345L9.32844 8.87837L9.30064 8.89437L9.27249 8.91124L9.26852 8.91353L9.24 8.93111L9.21131 8.94886L9.20806 8.95132C9.12215 9.00547 9.03913 9.06384 8.95882 9.12589C8.9415 9.13943 8.92598 9.15156 8.91244 9.16246C8.89872 9.17336 8.88302 9.18619 8.86678 9.1999L8.86624 9.20026L8.86353 9.20254L8.83772 9.22416L8.81282 9.24596L8.80903 9.24913L8.78647 9.26917L8.76409 9.28921L8.7529 9.29958L8.73106 9.31962L8.70959 9.33984L8.70164 9.3474L8.68071 9.36762L8.65996 9.38818L8.6475 9.40049L8.62945 9.41877L8.61159 9.43723L8.59408 9.45551L8.57838 9.47222L8.56268 9.48909L8.54228 9.51142L8.52731 9.52794L8.51287 9.54412L8.49753 9.56187L8.48056 9.58121L8.46414 9.60055L8.45223 9.61532L8.4349 9.63606L8.4183 9.65645L8.40855 9.66893C8.36993 9.71745 8.33239 9.76756 8.29648 9.81907L8.27536 9.84948L8.25479 9.87954L8.24883 9.88868L8.22393 9.92666L8.20714 9.9532L8.18891 9.98256L8.18585 9.98748L8.18567 9.98801L8.16924 10.0153C8.16238 10.0264 8.15767 10.0346 8.15331 10.0421C8.15217 10.0441 8.15105 10.046 8.14993 10.048L8.14849 10.0506L8.13206 10.0792L8.12214 10.097L8.11203 10.1149L8.09615 10.1446L8.07846 10.1782L8.06168 10.2111L8.04417 10.2461L8.02937 10.2772L8.01331 10.3117L8.00176 10.3373L7.98209 10.3816L7.96873 10.4136L7.95484 10.4472C7.95037 10.4583 7.94705 10.4668 7.94418 10.4741C7.94265 10.4781 7.94124 10.4817 7.93986 10.4852L7.93805 10.4901L7.93787 10.4908L7.92759 10.5173C7.91983 10.5383 7.91333 10.5562 7.90683 10.5745L7.90232 10.5873L7.89149 10.6191L7.88084 10.652L7.87038 10.6851L7.86334 10.7084L7.8563 10.7313L7.84944 10.7555L7.84619 10.7668L7.83663 10.802L7.8285 10.834L7.8175 10.877L7.81064 10.9071C7.80793 10.9185 7.80522 10.9303 7.80125 10.9493L7.79403 10.983L7.78591 11.025L7.78014 11.0579L7.77292 11.0994L7.7675 11.1344L7.76137 11.1762L7.75686 11.2102L7.75198 11.2515L7.74801 11.2877L7.74422 11.3295L7.74134 11.3647L7.73881 11.4042L7.73845 11.4088L7.73791 11.4148L7.73628 11.4419L7.73466 11.4862L7.7343 11.4937L7.73339 11.5201L7.73267 11.5591L7.73231 11.5983L7.73267 11.6388L7.73339 11.6795L7.73357 11.6808L7.73466 11.7202L7.73664 11.7608V11.7613L7.73682 11.7625L7.73899 11.801L7.74188 11.8413L7.74531 11.8817L7.7491 11.9197L7.74928 11.9213C7.75451 11.9735 7.76155 12.026 7.76985 12.0791L7.77599 12.1175L7.78302 12.1556V12.1565L7.78339 12.1575L7.78357 12.1589L7.79042 12.196L7.79818 12.2342L7.79837 12.2351C7.80613 12.2715 7.81425 12.3077 7.82327 12.3435L7.82869 12.3646L7.83428 12.3859V12.3864L7.83464 12.3877L7.84493 12.4255L7.8554 12.4625L7.85558 12.4631C7.85977 12.4777 7.8644 12.4923 7.86879 12.5067C7.86968 12.5096 7.87057 12.5125 7.87146 12.5155L7.87453 12.5257L7.87777 12.536L7.87814 12.5367L7.87832 12.5374L7.89041 12.5745L7.9025 12.6102L7.90304 12.6113L7.91567 12.6473L7.92867 12.6825L7.92903 12.6828L7.92939 12.6841L7.94256 12.7187L7.9561 12.753L7.95827 12.7579L7.97198 12.7913L7.9866 12.8252L7.98732 12.827L8.00068 12.8567L5.70178 14.1495V5.70521C5.70178 5.20365 5.97935 4.76539 6.393 4.52788L6.41683 4.5147L10.6797 2.11716Z" fill="#0D0E1F"/>
<path d="M11.34 5.8636L18.8476 10.0858C19.2934 10.3364 19.5442 10.79 19.5486 11.2576V16.0791C19.5497 16.2034 19.5302 16.2967 19.4814 16.3762C19.4329 16.4555 19.3564 16.5186 19.2432 16.5827L14.9279 19.0098C14.516 19.2208 14.0058 19.2278 13.5732 18.9843L11.7298 17.9478L11.6744 17.9165L11.7298 17.8856L16.9865 14.933C17.0293 14.9079 17.0632 14.875 17.0853 14.8381C17.1019 14.8098 17.1116 14.7794 17.1122 14.749C17.1129 14.7187 17.1049 14.6878 17.0869 14.6584C17.0656 14.6236 17.0304 14.5904 16.9784 14.5612L13.9692 12.8688L13.9412 12.8532L13.9537 12.8242L13.9546 12.8217L13.9683 12.7902L13.9815 12.7584L13.9957 12.7229L14.0078 12.692L14.0109 12.6837L14.0231 12.6512L14.0349 12.6194L14.0354 12.6176L14.047 12.5842L14.0582 12.5513L14.0601 12.5459L14.0706 12.5134L14.0807 12.4807L14.0814 12.4782C14.1266 12.3291 14.1601 12.1778 14.1821 12.0259C14.1865 11.9949 14.1903 11.9654 14.1935 11.9371C14.1969 11.9074 14.1998 11.8778 14.2025 11.8483V11.8474L14.2052 11.8137L14.2074 11.7794L14.2076 11.7745L14.2094 11.7441L14.2108 11.7131L14.2114 11.6996L14.2123 11.6693L14.213 11.6294C14.2132 11.6164 14.2134 11.6017 14.2132 11.5858V11.5588L14.2126 11.5273L14.2119 11.4951L14.2117 11.4906L14.2107 11.4579L14.209 11.4246L14.2087 11.4206C14.2031 11.3213 14.1928 11.2218 14.1778 11.1231C14.1747 11.1017 14.1715 11.0825 14.1686 11.0657C14.1657 11.0488 14.1621 11.0291 14.1581 11.0085V11.0078L14.1574 11.0043L14.1509 10.972L14.1441 10.94L14.1432 10.9352L14.1367 10.906L14.13 10.877L14.1264 10.8624L14.1197 10.8343L14.1123 10.8058L14.1096 10.7953L14.0942 10.7397L14.0894 10.7232L14.0822 10.6986L14.0674 10.6508L14.0603 10.6291L14.0531 10.6072L14.0435 10.579L14.0289 10.5377L14.0208 10.5159L14.0121 10.492L14.0031 10.4685L13.9963 10.4509L13.9863 10.4261L13.9764 10.4018L13.9703 10.3874C13.9464 10.3306 13.9206 10.274 13.8928 10.2178L13.86 10.1524L13.8596 10.1522L13.8594 10.1519L13.8548 10.1429L13.8441 10.1227L13.8333 10.1028L13.8181 10.0752L13.8013 10.0453L13.7983 10.0402L13.7981 10.0399L13.782 10.0123C13.7737 9.99803 13.7681 9.98889 13.7625 9.97975L13.7609 9.97711L13.7438 9.94881L13.7331 9.93175L13.7217 9.91417L13.7035 9.88587L13.6826 9.85405L13.6616 9.82364L13.6391 9.79147L13.6192 9.76334L13.5965 9.73257L13.5794 9.71007L13.575 9.70445L13.5498 9.6714L13.5281 9.64397L13.5052 9.61549C13.4933 9.60125 13.486 9.59246 13.4788 9.58402L13.4754 9.5798L13.475 9.57963L13.4564 9.55748C13.4418 9.54043 13.429 9.52601 13.416 9.51142L13.4068 9.50122L13.3841 9.47608L13.3603 9.45059L13.3359 9.42528L13.3018 9.39029L13.2836 9.37236L13.2751 9.3641L13.2489 9.33843L13.2245 9.31558L13.1917 9.28464L13.1684 9.26389C13.1596 9.25581 13.1504 9.24772 13.1356 9.23489L13.1092 9.21186L13.0758 9.18426L13.0495 9.16263L13.0163 9.13591L12.9879 9.11394L12.9536 9.08774L12.9259 9.067L12.8916 9.04221L12.8612 9.02077L12.826 8.99668L12.7961 8.97664L12.767 8.95783L12.7622 8.95467L12.7584 8.95203L12.7535 8.94886L12.73 8.9341L12.6916 8.91019L12.662 8.89226L12.6275 8.87204L12.5931 8.85217L12.557 8.83231L12.5201 8.81244L12.5191 8.81227L12.4835 8.79328L12.4465 8.77465L12.446 8.7743L12.4447 8.77394L12.4093 8.75654L12.3722 8.73878L12.3346 8.72156L12.2989 8.70556L12.2973 8.70486C12.2483 8.68358 12.1982 8.66302 12.1467 8.6435L12.1097 8.62961L12.0722 8.61625L12.0715 8.61608L12.0702 8.61555L12.0691 8.61502L12.0325 8.60237L11.9948 8.58988L11.9944 8.58971L11.9937 8.58953C11.9576 8.57793 11.9211 8.56685 11.8849 8.55631L11.8636 8.55033L11.8417 8.54453L11.8414 8.54418L11.8403 8.54382L11.8015 8.53363L11.763 8.52396L11.7625 8.52378C11.7443 8.51939 11.7261 8.51499 11.7078 8.51095L11.6974 8.50866L11.6865 8.5062L11.686 8.50603L11.6849 8.50585L11.6461 8.49759L11.6082 8.48985L11.6071 8.48968L11.5689 8.48247L11.5308 8.47579L11.5292 8.47561L11.492 8.46929L11.4544 8.46384L11.449 8.46296L11.4126 8.45803L11.3752 8.45329L11.373 8.45294L11.34 8.44942V5.8636Z" fill="#0D0E1F"/>
<path d="M5.00443 9.01866L5.00118 14.9916C5.00208 15.0403 5.01435 15.0856 5.03619 15.1224C5.05315 15.1507 5.07535 15.1739 5.10188 15.1895C5.12859 15.2054 5.16018 15.214 5.19537 15.2136C5.2367 15.2129 5.28398 15.1997 5.33578 15.1707L8.373 13.4627L8.39267 13.4876L8.39429 13.4894L8.41541 13.5166L8.43707 13.5439L8.43977 13.5474L8.46143 13.5736L8.48291 13.5993L8.48868 13.6063L8.51142 13.6327L8.5338 13.6583L8.53525 13.6599L8.55907 13.6863L8.58271 13.7123L8.58668 13.7165L8.61032 13.7415L8.63451 13.7664L8.63631 13.7684C8.74622 13.8811 8.86389 13.985 8.98806 14.0794C9.01333 14.0985 9.03787 14.1166 9.06133 14.1335C9.08588 14.1511 9.11078 14.1685 9.13587 14.1854L9.13641 14.1857L9.16529 14.2049L9.19452 14.2239L9.19867 14.2267L9.22484 14.2434L9.25173 14.2599L9.26364 14.2673L9.28981 14.2831L9.31598 14.2984L9.32501 14.3039C9.33638 14.3104 9.34955 14.3179 9.36381 14.3257L9.37139 14.3301L9.37915 14.3343L9.38781 14.339L9.41597 14.3547L9.4452 14.37L9.44917 14.3722L9.47895 14.3875L9.50909 14.4027L9.51288 14.4044C9.60402 14.4496 9.69751 14.4907 9.7928 14.5271C9.81355 14.5352 9.83196 14.5422 9.84857 14.548C9.86499 14.5542 9.88412 14.5609 9.90451 14.5679L9.90505 14.5683L9.90866 14.5693L9.94061 14.58L9.97255 14.5906L9.97724 14.592L10.0063 14.601L10.0354 14.6098L10.0502 14.6143L10.0787 14.6224L10.1075 14.6305L10.1184 14.6333L10.1467 14.6409L10.1754 14.6483L10.1926 14.6525L10.218 14.6586L10.2429 14.6646L10.268 14.6701L10.3138 14.6799L10.3438 14.6859L10.366 14.6901L10.3876 14.6943L10.4111 14.6984L10.4367 14.7029L10.462 14.7071L10.4813 14.71L10.5084 14.714L10.5349 14.7179L10.5506 14.72C10.6131 14.7282 10.6764 14.7347 10.7401 14.7393L10.7777 14.7421L10.8148 14.7442L10.8152 14.7441H10.8157L10.8258 14.7448L10.8491 14.7458L10.8722 14.7467L10.9042 14.7478L10.9392 14.7485H10.9459L10.9783 14.7488C10.9949 14.7488 11.006 14.7488 11.0171 14.7486L11.02 14.7485L11.0538 14.7481L11.0955 14.7471L11.1299 14.7456L11.1686 14.7439L11.2061 14.7414L11.2462 14.7386L11.281 14.7358L11.3196 14.7321L11.3483 14.7289L11.3555 14.7282L11.3974 14.7233L11.4696 14.7136C11.485 14.7115 11.4956 14.7096 11.505 14.7081C11.507 14.7078 11.5089 14.7074 11.5107 14.7071L11.5162 14.7061L11.5167 14.7059L11.5454 14.7013C11.568 14.6977 11.5873 14.6941 11.6066 14.6903L11.6201 14.6878L11.6539 14.6811L11.6885 14.6737L11.7232 14.6658L11.7475 14.6602L11.7713 14.6546L11.7964 14.6483L11.808 14.6453L11.8441 14.6358L11.8766 14.627L11.9204 14.6145L11.9504 14.6054C11.9621 14.6017 11.9738 14.5983 11.9928 14.5922L12.0264 14.5811L12.0677 14.567L12.0998 14.5558L12.1402 14.541L12.174 14.528L12.2146 14.5122L12.2469 14.499L12.2859 14.4826L12.3202 14.4677L12.359 14.4501L12.392 14.4348L12.4232 14.4197L12.4286 14.4173L12.4326 14.4151L12.438 14.4127L12.4629 14.4006L12.5035 14.3798L12.5102 14.3763L12.534 14.364L12.5692 14.3452L12.6042 14.3257L12.64 14.3053L12.6759 14.284L12.6766 14.2835L12.7113 14.2627L12.7465 14.2408L12.747 14.2406L12.7479 14.2397L12.7809 14.2188L12.8154 14.1961L12.8495 14.1731L12.8816 14.1509L12.8829 14.1499C12.9264 14.1193 12.9699 14.0873 13.0128 14.0537L13.0439 14.0293L13.0744 14.0043L13.0749 14.0038L13.076 14.0031L13.0769 14.0022L13.1065 13.9778L13.1366 13.9521L13.137 13.9519L13.1372 13.9514C13.1659 13.9266 13.1939 13.9018 13.2213 13.8763L13.2374 13.8612L13.2534 13.8457L13.2538 13.8456L13.2547 13.8449L13.2832 13.8171L13.3108 13.7897L13.3113 13.7893C13.3245 13.7759 13.3373 13.7629 13.35 13.7497L13.3575 13.742L13.3649 13.7341L13.3655 13.7334L13.366 13.7329L13.3931 13.7042L13.4187 13.6761L13.4195 13.6752L13.4451 13.6466L13.47 13.6179L13.4702 13.6175L13.4711 13.6165L13.4951 13.5884L13.5187 13.5595L13.5221 13.5553L13.5449 13.527L13.5678 13.4978L13.5691 13.4962L13.5887 13.4702L13.6174 13.4862L15.8876 14.7629L15.8326 14.7942L8.38022 18.9852C7.93444 19.2359 7.40565 19.2208 6.98767 18.9907L6.96421 18.9773L2.7012 16.5799C2.59021 16.5184 2.51693 16.4555 2.47073 16.3746C2.42471 16.2941 2.40666 16.1979 2.40612 16.0705L2.40576 11.2165C2.42435 10.7638 2.67341 10.3298 3.10583 10.0865L5.00443 9.01866Z" fill="#0D0E1F"/>
<path d="M10.977 14.067C9.56728 14.067 8.424 12.9474 8.424 11.567C8.424 10.1866 9.56728 9.06699 10.977 9.06699C12.3871 9.06699 13.5304 10.1866 13.5304 11.567C13.5304 12.9474 12.3871 14.067 10.977 14.067Z" fill="#0D0E1F"/>
</svg>
