<svg width="54" height="56" viewBox="0 0 54 56" fill="none" xmlns="http://www.w3.org/2000/svg">
<path d="M25.2687 8.5851C25.1043 8.46394 24.9043 8.39844 24.6987 8.39844C24.4932 8.39844 24.2931 8.46394 24.1287 8.5851L12.7286 16.9851C12.6106 17.0721 12.5149 17.1848 12.4489 17.3144C12.383 17.444 12.3486 17.5869 12.3486 17.7318V33.5985C12.3486 33.8461 12.4487 34.0835 12.6269 34.2585C12.805 34.4335 13.0467 34.5319 13.2986 34.5319H36.0988C36.3507 34.5319 36.5924 34.4335 36.7705 34.2585C36.9487 34.0835 37.0488 33.8461 37.0488 33.5985V17.7318C37.0488 17.5869 37.0144 17.444 36.9485 17.3144C36.8825 17.1848 36.7868 17.0721 36.6688 16.9851L25.2687 8.5851ZM14.2486 18.1985L24.6987 10.4984L35.1488 18.1985V20.5318L25.2687 13.2518C25.1043 13.1306 24.9043 13.0651 24.6987 13.0651C24.4932 13.0651 24.2931 13.1306 24.1287 13.2518L14.2486 20.5318V18.1985ZM21.8487 32.6652V26.1318C21.8487 25.3892 22.149 24.677 22.6834 24.1519C23.2179 23.6268 23.9428 23.3318 24.6987 23.3318C25.4546 23.3318 26.1795 23.6268 26.714 24.1519C27.2485 24.677 27.5487 25.3892 27.5487 26.1318V32.6652H21.8487ZM35.1488 32.6652H29.4487V26.1318C29.4487 24.8941 28.9483 23.7072 28.0575 22.832C27.1667 21.9568 25.9585 21.4651 24.6987 21.4651C23.4389 21.4651 22.2307 21.9568 21.3399 22.832C20.4491 23.7072 19.9487 24.8941 19.9487 26.1318V32.6652H14.2486V22.8652L24.6987 15.1651L35.1488 22.8652V32.6652Z" fill="white"/>
<path d="M8.55005 46.663C7.79418 46.663 7.06926 46.368 6.53478 45.8429C6.0003 45.3178 5.70003 44.6056 5.70003 43.863C5.70003 43.6155 5.59994 43.3781 5.42178 43.2031C5.24362 43.028 5.00198 42.9297 4.75003 42.9297C4.49807 42.9297 4.25643 43.028 4.07827 43.2031C3.90011 43.3781 3.80002 43.6155 3.80002 43.863C3.80002 44.6056 3.49975 45.3178 2.96527 45.8429C2.43079 46.368 1.70588 46.663 0.950005 46.663C0.698048 46.663 0.456411 46.7614 0.27825 46.9364C0.10009 47.1114 0 47.3488 0 47.5964C0 47.8439 0.10009 48.0813 0.27825 48.2563C0.456411 48.4314 0.698048 48.5297 0.950005 48.5297C1.70588 48.5297 2.43079 48.8247 2.96527 49.3498C3.49975 49.8749 3.80002 50.5871 3.80002 51.3297C3.80002 51.5773 3.90011 51.8147 4.07827 51.9897C4.25643 52.1647 4.49807 52.2631 4.75003 52.2631C5.00198 52.2631 5.24362 52.1647 5.42178 51.9897C5.59994 51.8147 5.70003 51.5773 5.70003 51.3297C5.70003 50.5871 6.0003 49.8749 6.53478 49.3498C7.06926 48.8247 7.79418 48.5297 8.55005 48.5297C8.80201 48.5297 9.04364 48.4314 9.2218 48.2563C9.39996 48.0813 9.50005 47.8439 9.50005 47.5964C9.50005 47.3488 9.39996 47.1114 9.2218 46.9364C9.04364 46.7614 8.80201 46.663 8.55005 46.663ZM4.75003 48.5586C4.47328 48.1925 4.14327 47.8683 3.77057 47.5964C4.14327 47.3245 4.47328 47.0003 4.75003 46.6341C5.02677 47.0003 5.35678 47.3245 5.72948 47.5964C5.35678 47.8683 5.02677 48.1925 4.75003 48.5586Z" fill="white"/>
<path d="M52.2493 3.73335C51.4934 3.73335 50.7685 3.43835 50.234 2.91324C49.6995 2.38814 49.3993 1.67595 49.3993 0.933337C49.3993 0.6858 49.2992 0.448402 49.121 0.273368C48.9428 0.0983334 48.7012 0 48.4492 0C48.1973 0 47.9557 0.0983334 47.7775 0.273368C47.5993 0.448402 47.4992 0.6858 47.4992 0.933337C47.4992 1.67595 47.199 2.38814 46.6645 2.91324C46.13 3.43835 45.4051 3.73335 44.6492 3.73335C44.3973 3.73335 44.1556 3.83168 43.9775 4.00671C43.7993 4.18175 43.6992 4.41915 43.6992 4.66668C43.6992 4.91422 43.7993 5.15162 43.9775 5.32665C44.1556 5.50169 44.3973 5.60002 44.6492 5.60002C45.4051 5.60002 46.13 5.89502 46.6645 6.42012C47.199 6.94523 47.4992 7.65742 47.4992 8.40003C47.4992 8.64756 47.5993 8.88496 47.7775 9.06C47.9557 9.23503 48.1973 9.33337 48.4492 9.33337C48.7012 9.33337 48.9428 9.23503 49.121 9.06C49.2992 8.88496 49.3993 8.64756 49.3993 8.40003C49.3993 7.65742 49.6995 6.94523 50.234 6.42012C50.7685 5.89502 51.4934 5.60002 52.2493 5.60002C52.5012 5.60002 52.7429 5.50169 52.921 5.32665C53.0992 5.15162 53.1993 4.91422 53.1993 4.66668C53.1993 4.41915 53.0992 4.18175 52.921 4.00671C52.7429 3.83168 52.5012 3.73335 52.2493 3.73335ZM48.4492 5.62895C48.1725 5.26279 47.8425 4.93857 47.4698 4.66668C47.8425 4.39479 48.1725 4.07057 48.4492 3.70441C48.726 4.07057 49.056 4.39479 49.4287 4.66668C49.056 4.93857 48.726 5.26279 48.4492 5.62895Z" fill="white"/>
<path d="M43.7018 21.4688H41.8018V31.7355H43.7018V21.4688Z" fill="white"/>
<path d="M31.1193 4.0803C31.0303 3.96998 30.9171 3.88086 30.7881 3.8196C30.6591 3.75834 30.5177 3.72654 30.3745 3.72656H19.0371V5.59324H29.9204C32.9792 9.29281 37.1325 11.9672 41.8059 13.2466V17.7266H43.7059V12.5279C43.706 12.3188 43.6346 12.1157 43.5032 11.9512C43.3717 11.7867 43.1879 11.6703 42.981 11.6207C38.2767 10.4888 34.0979 7.8324 31.1193 4.0803Z" fill="white"/>
<path d="M46.5565 8.40003C43.8353 8.18975 41.2017 7.35846 38.865 5.97229C36.5284 4.58613 34.5533 2.68335 33.0968 0.415335C33.01 0.287546 32.8925 0.182777 32.7546 0.110325C32.6167 0.0378728 32.4628 -2.29781e-05 32.3064 1.04528e-08H17.1063C16.95 -2.29781e-05 16.796 0.0378728 16.6581 0.110325C16.5203 0.182777 16.4027 0.287546 16.3159 0.415335C10.9855 8.27216 3.18401 8.40003 2.85626 8.40003C2.6043 8.40003 2.36266 8.49836 2.1845 8.6734C2.00634 8.84843 1.90625 9.08583 1.90625 9.33337V33.6001C1.9063 33.8476 2.00643 34.085 2.1846 34.26L24.0347 55.7267C24.2129 55.9017 24.4545 56 24.7064 56C24.9583 56 25.1999 55.9017 25.378 55.7267L47.2282 34.26C47.4063 34.085 47.5065 33.8476 47.5065 33.6001V9.33337C47.5065 9.08583 47.4064 8.84843 47.2283 8.6734C47.0501 8.49836 46.8085 8.40003 46.5565 8.40003ZM45.6065 33.2137L24.7064 53.7471L17.4996 46.6668L24.428 39.86L23.0847 38.5403L16.1563 45.3471L14.6496 43.8668L19.678 38.9267L18.3347 37.6069L13.3063 42.5471L3.80626 33.2137V10.2079C6.58118 9.87166 9.24996 8.95271 11.6314 7.51346C14.0128 6.07421 16.0511 4.14836 17.6079 1.86667H31.8048C33.3616 4.14836 35.3999 6.07421 37.7814 7.51346C40.1628 8.95271 42.8316 9.87166 45.6065 10.2079V33.2137Z" fill="white"/>
</svg>
