<svg width="56" height="56" viewBox="0 0 56 56" fill="none" xmlns="http://www.w3.org/2000/svg">
<path d="M39.6068 32.576C37.3471 30.952 34.1846 32.576 34.1846 35.3607C34.1846 38.1455 37.342 39.7695 39.6068 38.1455C41.8716 39.7695 45.029 38.1455 45.029 35.3607C45.029 32.576 41.8716 30.952 39.6068 32.576ZM40.6321 36.9847C41.1677 35.9971 41.1932 34.7702 40.6321 33.7316C41.9124 32.968 43.4988 33.8996 43.4988 35.3556C43.4988 36.8116 41.9175 37.7484 40.6321 36.9796V36.9847ZM38.5815 36.9847C37.2961 37.7535 35.7148 36.8066 35.7148 35.3556C35.7148 33.9047 37.291 32.9578 38.5815 33.7266C39.821 34.4698 39.821 36.2364 38.5815 36.9796V36.9847Z" fill="white"/>
<path d="M32.8178 22.0945C33.1239 22.5324 33.7768 22.5222 34.0727 22.0945C36.2711 18.9789 41.4332 18.8771 43.7133 22.0945C43.9225 22.3949 44.2999 22.4865 44.6111 22.3745C45.1467 22.1709 46.4219 19.7069 49.7885 19.7069C52.8898 19.7069 54.5374 21.9978 54.6037 22.0895C55.0679 22.7615 56.134 22.3236 55.986 21.5142C55.9452 21.3004 51.7013 0 27.9975 0C4.29372 0 0.0548866 21.3055 0.0140796 21.5193C-0.133846 22.3236 0.922036 22.7665 1.39132 22.0945C1.45763 21.9978 3.11031 19.7069 6.21165 19.7069C9.31298 19.7069 10.9606 21.9978 11.032 22.0895C11.3482 22.5425 11.996 22.5069 12.2868 22.0895C13.159 20.8524 14.9954 19.7018 17.1071 19.7018C20.2085 19.7018 21.856 21.9927 21.9275 22.0844C22.1774 22.4407 22.6314 22.4916 22.9527 22.2982C23.3404 22.064 23.876 20.8931 25.7888 20.1295V29.1302H9.79757C8.42033 29.1302 7.30324 30.2451 7.30324 31.6196V53.5105C7.30324 54.8851 8.42033 56 9.79757 56H46.2077C47.5849 56 48.702 54.8851 48.702 53.5105V31.6196C48.702 30.2451 47.5849 29.1302 46.2077 29.1302H30.2215V20.1295C31.8895 20.7964 32.777 22.0182 32.8229 22.0895L32.8178 22.0945ZM47.1666 31.6247V39.9636H8.8335V31.6247C8.8335 31.0953 9.26708 30.6625 9.79757 30.6625H46.2077C46.7381 30.6625 47.1717 31.0953 47.1717 31.6247H47.1666ZM47.1666 53.5156C47.1666 54.0451 46.733 54.4778 46.2026 54.4778H9.79757C9.26708 54.4778 8.8335 54.0451 8.8335 53.5156V45.1767H47.1717V53.5156H47.1666ZM8.8488 43.6495V41.4858H47.1564V43.6495H8.8488ZM28.6912 29.1353H27.3191V19.7527C27.7782 19.7018 28.1862 19.6916 28.6759 19.7527C28.7269 19.7578 28.6912 19.7629 28.6912 29.1404V29.1353ZM22.6875 1.93455C14.6383 6.43491 11.9348 16.2502 11.1697 20.0378C8.51215 17.7673 4.93643 17.64 2.22786 19.3302C5.3292 10.2938 12.3276 3.54836 22.6875 1.93455ZM53.7825 19.3302C51.0739 17.6349 47.4982 17.7673 44.8406 20.0378C44.0755 16.2502 41.3669 6.43491 33.3177 1.93455C43.6164 3.53818 50.6556 10.2276 53.7825 19.3302ZM21.8356 19.8495C19.0863 17.6705 15.4442 17.7062 12.8428 19.5135C13.8528 15.0793 17.0357 5.33527 25.8347 2.16873C22.6824 7.08145 21.9887 16.0109 21.8356 19.8495ZM34.1696 19.8495C34.0165 16.0109 33.3177 7.08145 30.1654 2.16873C38.9695 5.33527 42.1525 15.0793 43.1624 19.5135C40.4233 17.6502 36.8322 17.7316 34.1696 19.8495ZM28.0026 1.83782C31.6293 5.74764 32.4455 15.6189 32.6291 19.7731C29.8899 17.6705 26.1357 17.6553 23.3761 19.7731C23.5597 15.6189 24.3759 5.75273 27.9975 1.83782H28.0026Z" fill="white"/>
<path d="M18.6541 32.4473H11.7476C11.3242 32.4473 10.9824 32.7884 10.9824 33.2109V37.5025C10.9824 37.9251 11.3242 38.2662 11.7476 38.2662H18.6541C19.0775 38.2662 19.4193 37.9251 19.4193 37.5025V33.2109C19.4193 32.7884 19.0775 32.4473 18.6541 32.4473ZM17.889 36.7389H12.5127V33.9745H17.889V36.7389Z" fill="white"/>
<path d="M12.7334 51.0324V48.7619C12.7334 47.7539 11.2031 47.7539 11.2031 48.7619V51.0324C11.2031 52.0404 12.7334 52.0404 12.7334 51.0324Z" fill="white"/>
<path d="M16.001 51.0324V48.7619C16.001 47.7539 14.4707 47.7539 14.4707 48.7619V51.0324C14.4707 52.0404 16.001 52.0404 16.001 51.0324Z" fill="white"/>
<path d="M19.249 51.0324V48.7619C19.249 47.7539 17.7188 47.7539 17.7188 48.7619V51.0324C17.7188 52.0404 19.249 52.0404 19.249 51.0324Z" fill="white"/>
</svg>
