<svg width="40" height="40" viewBox="0 0 40 40" fill="none" xmlns="http://www.w3.org/2000/svg">
<path fill-rule="evenodd" clip-rule="evenodd" d="M32.0611 5.20526C32.3735 5.19408 32.6776 5.30738 32.9064 5.52023C33.1352 5.73308 33.27 6.02805 33.2812 6.34025L33.7873 20.4659C33.7985 20.7781 33.6852 21.082 33.4722 21.3106C33.2592 21.5393 32.9641 21.674 32.6517 21.6852C32.3393 21.6964 32.0352 21.5831 31.8064 21.3703C31.5776 21.1574 31.4428 20.8624 31.4316 20.5502L31.0273 9.26617L7.98233 34.0105C7.87674 34.1238 7.74985 34.2153 7.60888 34.2797C7.46792 34.344 7.31566 34.38 7.16078 34.3855C7.00591 34.3911 6.85146 34.3661 6.70626 34.312C6.56105 34.2579 6.42793 34.1757 6.3145 34.0702C6.20106 33.9646 6.10954 33.8378 6.04515 33.6969C5.98075 33.5561 5.94476 33.4039 5.93921 33.2491C5.93367 33.0943 5.95868 32.94 6.01282 32.7949C6.06697 32.6497 6.14918 32.5167 6.25477 32.4033L29.3022 7.6613L18.0113 8.0654C17.6989 8.07658 17.3949 7.96328 17.1661 7.75043C16.9373 7.53758 16.8024 7.24261 16.7913 6.93041C16.7801 6.61821 16.8934 6.31436 17.1064 6.0857C17.3194 5.85704 17.6145 5.7223 17.9269 5.71112L32.0611 5.20526Z" fill="white"/>
</svg>
