<svg width="161" height="161" viewBox="0 0 161 161" fill="none" xmlns="http://www.w3.org/2000/svg">
<ellipse cx="80.9353" cy="80.2312" rx="79.9885" ry="79.9402" fill="#0D0E1F"/>
<path d="M74.5566 136.228L74.3441 137.758L71.2671 137.332C70.7262 137.257 70.2844 137.367 69.9417 137.663C69.599 137.959 69.3972 138.326 69.3362 138.765C69.2951 139.061 69.3232 139.345 69.4205 139.619C69.5177 139.892 69.6833 140.123 69.9172 140.312C70.1511 140.5 70.4466 140.619 70.8038 140.669L73.8808 141.096L73.6683 142.626L70.8515 142.236C70.3923 142.172 70.0086 142.238 69.7004 142.435C69.3923 142.631 69.2064 142.959 69.1426 143.419C69.0788 143.878 69.1684 144.244 69.4114 144.517C69.6544 144.79 70.0055 144.958 70.4647 145.022L73.2815 145.412L73.0689 146.943L70.2063 146.546C69.4817 146.446 68.898 146.23 68.4551 145.898C68.0123 145.566 67.7026 145.174 67.5259 144.723C67.3493 144.272 67.2943 143.807 67.3609 143.328C67.4388 142.766 67.6657 142.293 68.0416 141.908C68.4073 141.522 68.9096 141.238 69.5486 141.056L69.3343 141.588C68.699 141.22 68.2272 140.759 67.919 140.206C67.6108 139.654 67.5035 139.041 67.597 138.367C67.6735 137.816 67.8814 137.33 68.2208 136.909C68.5499 136.487 68.9996 136.17 69.57 135.957C70.1287 135.754 70.7908 135.705 71.5562 135.812L74.5566 136.228ZM75.766 136.395L74.2783 147.111L72.5178 146.867L74.0055 136.151L75.766 136.395Z" fill="white"/>
<path d="M61.0024 132.865C61.7698 133.137 62.3975 133.556 62.8856 134.122C63.3737 134.688 63.6908 135.336 63.8369 136.065C63.9699 136.8 63.9005 137.552 63.6287 138.319L61.3893 144.641L59.7137 144.049L61.948 137.741C62.1235 137.246 62.1746 136.777 62.1013 136.336C62.0149 135.901 61.8281 135.518 61.5409 135.187C61.2503 134.866 60.8816 134.626 60.4348 134.468C59.9783 134.306 59.5408 134.261 59.1223 134.331C58.7004 134.412 58.3238 134.595 57.9925 134.882C57.6578 135.179 57.4045 135.571 57.2325 136.056L54.993 142.379L53.3175 141.786L55.5621 135.449C55.8338 134.682 56.2512 134.059 56.8142 133.58C57.3771 133.102 58.0216 132.794 58.7477 132.658C59.4738 132.521 60.2254 132.59 61.0024 132.865Z" fill="white"/>
<path d="M53.8227 129.796L48.5789 139.258L47.0239 138.397L52.2677 128.935L53.8227 129.796Z" fill="white"/>
<path d="M48.0223 126.277L41.3947 134.828L39.9893 133.74L46.6169 125.189L48.0223 126.277ZM47.0568 125.53L46.0627 126.812L41.5899 123.35L42.5841 122.067L47.0568 125.53Z" fill="white"/>
<path d="M39.3155 118.696L38.0904 119.76L36.2243 117.614C35.7375 117.055 35.191 116.67 34.5848 116.459C33.9718 116.241 33.35 116.201 32.7193 116.339C32.0741 116.477 31.4676 116.792 30.8998 117.285C30.3397 117.772 29.9506 118.321 29.7324 118.934C29.5141 119.546 29.4704 120.171 29.6011 120.808C29.7251 121.438 30.0271 122.028 30.5071 122.58L32.3732 124.726L31.148 125.79L29.2516 123.609C28.7377 123.018 28.3661 122.379 28.1366 121.691C27.8994 121.01 27.8052 120.321 27.854 119.624C27.8883 118.925 28.0631 118.255 28.3784 117.612C28.6859 116.977 29.1313 116.406 29.7147 115.899C30.2903 115.399 30.9183 115.038 31.5987 114.815C32.2791 114.593 32.9682 114.506 33.6661 114.555C34.3563 114.611 35.0261 114.8 35.6755 115.123C36.3173 115.453 36.8917 115.909 37.3987 116.492L39.3155 118.696ZM40.1167 119.618L31.9492 126.711L30.7829 125.37L38.9504 118.276L40.1167 119.618Z" fill="white"/>
<path d="M29.7363 105.068L18.0367 104.996L17.5729 103.85L25.9445 95.6988L26.6635 97.4752L19.838 103.968L19.5945 103.366L29.029 103.32L29.7363 105.068ZM26.9787 103.816L25.5458 104.395L23.3949 99.0798L24.8277 98.5007L26.9787 103.816Z" fill="white"/>
<path d="M24.3037 83.3311C24.3544 84.1848 24.2432 84.919 23.9702 85.5339C23.6971 86.1487 23.2763 86.7104 22.7079 87.2189L21.433 86.087C21.8473 85.7631 22.1656 85.3881 22.388 84.9621C22.6001 84.5366 22.6872 84.0051 22.6493 83.3674C22.6138 82.7709 22.4623 82.3051 22.1946 81.97C21.9264 81.6247 21.5763 81.4649 21.1443 81.4905C20.7843 81.5119 20.4967 81.6219 20.2814 81.8204C20.0662 82.019 19.8957 82.2768 19.7701 82.5939C19.6335 82.9014 19.5197 83.2436 19.4286 83.6206C19.3265 83.9879 19.2145 84.3609 19.0926 84.7397C18.9597 85.1089 18.7893 85.4544 18.5813 85.7764C18.3728 86.0881 18.094 86.3472 17.7451 86.5537C17.3961 86.7602 16.9439 86.88 16.3885 86.9129C15.7509 86.9508 15.2017 86.8286 14.7411 86.5463C14.2696 86.2543 13.8997 85.8479 13.6314 85.3272C13.363 84.8064 13.2093 84.2169 13.1701 83.5586C13.1279 82.849 13.2292 82.2082 13.4739 81.6363C13.7179 81.0542 14.0456 80.5754 14.4568 80.2001L15.7316 81.332C15.4003 81.6613 15.1624 82.0005 15.018 82.3497C14.8628 82.6892 14.798 83.0749 14.8236 83.5069C14.8554 84.0417 14.9885 84.457 15.2228 84.7527C15.4565 85.0382 15.7688 85.1693 16.1596 85.1461C16.4888 85.1265 16.7507 85.0181 16.9454 84.8208C17.1298 84.624 17.2851 84.3723 17.4114 84.0654C17.5267 83.749 17.6354 83.4071 17.7375 83.0397C17.8389 82.6622 17.956 82.2888 18.0889 81.9197C18.2212 81.5402 18.4018 81.1941 18.631 80.8811C18.8492 80.5586 19.143 80.2934 19.5126 80.0857C19.8821 79.8779 20.3549 79.757 20.9308 79.7228C21.8976 79.6654 22.6844 79.9644 23.291 80.6199C23.897 81.2652 24.2346 82.1689 24.3037 83.3311Z" fill="white"/>
<path d="M24.8995 71.1806C24.7834 71.9862 24.4955 72.6838 24.0358 73.2734C23.5761 73.8631 23.0029 74.301 22.3162 74.5873C21.6208 74.862 20.8703 74.9414 20.0647 74.8254L13.4256 73.87L13.6791 72.1108L20.3028 73.0641C20.8229 73.1389 21.2922 73.0972 21.7106 72.9388C22.1202 72.7688 22.4593 72.5105 22.7279 72.164C22.9862 71.816 23.1492 71.4075 23.2168 70.9384C23.2858 70.4591 23.2448 70.0212 23.0937 69.6247C22.9325 69.2268 22.6786 68.8936 22.3321 68.6251C21.9755 68.3552 21.5422 68.1836 21.0323 68.1102L14.3932 67.1547L14.6467 65.3956L21.301 66.3533C22.1067 66.4692 22.7992 66.7562 23.3786 67.2143C23.958 67.6725 24.3857 68.2441 24.6617 68.9292C24.9378 69.6143 25.017 70.3647 24.8995 71.1806Z" fill="white"/>
<path d="M28.1945 59.1532C27.9247 59.8883 27.5439 60.5223 27.052 61.0553C26.554 61.575 25.9828 61.9802 25.3384 62.2707C24.6843 62.5577 23.9967 62.7117 23.2756 62.7327C22.5448 62.7502 21.8167 62.6259 21.0911 62.36C20.3656 62.0941 19.7345 61.7201 19.198 61.2382C18.6518 60.7527 18.2269 60.1909 17.9232 59.5529C17.6196 58.9149 17.4459 58.2368 17.4022 57.5184C17.362 56.7905 17.4768 56.0589 17.7466 55.3238C18.0483 54.5017 18.4446 53.8404 18.9355 53.34C19.4264 52.8396 19.9893 52.4423 20.624 52.1483L21.3406 53.6948C20.9016 53.8741 20.5104 54.1477 20.1669 54.5155C19.8269 54.8738 19.5522 55.3382 19.3428 55.9089C19.1582 56.4118 19.0767 56.9032 19.0982 57.3829C19.1197 57.8626 19.2381 58.3175 19.4534 58.7476C19.6627 59.1645 19.9596 59.5367 20.3443 59.8642C20.7289 60.1917 21.1873 60.453 21.7194 60.648C22.2514 60.843 22.7701 60.9399 23.2755 60.9385C23.7808 60.9372 24.253 60.8469 24.6919 60.6676C25.1248 60.4751 25.5045 60.2028 25.8313 59.8507C26.1581 59.4986 26.4137 59.0711 26.5983 58.5682C26.8254 57.9491 26.9252 57.3931 26.8976 56.9002C26.8638 56.394 26.7375 55.9307 26.5186 55.5103L28.0658 54.7935C28.3694 55.4315 28.5413 56.1145 28.5815 56.8425C28.6216 57.5705 28.4926 58.3407 28.1945 59.1532Z" fill="white"/>
<path d="M33.6537 48.7713C33.2376 49.4346 32.7337 49.976 32.1421 50.3956C31.5472 50.801 30.9045 51.0792 30.2138 51.23C29.5145 51.3754 28.8099 51.3838 28.1 51.2551C27.3814 51.121 26.6947 50.8488 26.0398 50.4385C25.385 50.0282 24.845 49.5318 24.4198 48.9493C23.9859 48.3613 23.6865 47.7238 23.5215 47.0368C23.3565 46.3498 23.3269 45.6504 23.4329 44.9387C23.5443 44.2182 23.808 43.5263 24.2242 42.863C24.6895 42.1211 25.2142 41.5562 25.7981 41.1683C26.3821 40.7803 27.015 40.5082 27.6969 40.3518L28.0778 42.0131C27.6112 42.0976 27.1718 42.2843 26.7595 42.5731C26.3527 42.8532 25.9878 43.2507 25.6648 43.7656C25.3801 44.2195 25.1986 44.6833 25.1203 45.157C25.042 45.6308 25.0637 46.1003 25.1854 46.5656C25.3038 47.0167 25.5172 47.4423 25.8258 47.8423C26.1343 48.2423 26.5287 48.5928 27.0089 48.8937C27.4891 49.1945 27.9766 49.3966 28.4713 49.4999C28.966 49.6032 29.4467 49.6125 29.9133 49.528C30.3766 49.4292 30.8045 49.2414 31.1971 48.9646C31.5897 48.6878 31.9284 48.3225 32.2131 47.8686C32.5635 47.31 32.7762 46.7868 32.8512 46.2988C32.923 45.7966 32.8953 45.3173 32.7682 44.8607L34.4303 44.4796C34.5953 45.1666 34.6221 45.8704 34.5107 46.5909C34.3993 47.3113 34.1136 48.0381 33.6537 48.7713Z" fill="white"/>
<path d="M37.6849 43.1484L29.8129 35.7273L31.0328 34.4348L38.9048 41.8559L37.6849 43.1484ZM38.5229 42.2605L37.3421 41.1474L41.5004 36.7417L42.6812 37.8549L38.5229 42.2605ZM35.0705 39.0058L33.9346 37.9351L37.7323 33.9116L38.8681 34.9823L35.0705 39.0058ZM31.8317 35.9526L30.6509 34.8394L34.7562 30.49L35.937 31.6031L31.8317 35.9526Z" fill="white"/>
<path d="M47.661 34.2995C46.9671 34.7993 46.2873 35.0984 45.6216 35.197C44.9559 35.2955 44.256 35.2409 43.5219 35.0332L43.795 33.3509C44.2905 33.5273 44.7778 33.5953 45.2569 33.555C45.7299 33.5064 46.2256 33.2954 46.7439 32.922C47.2288 32.5728 47.5411 32.1955 47.6807 31.7902C47.8286 31.3789 47.7761 30.9977 47.523 30.6467C47.312 30.3543 47.065 30.1703 46.782 30.0948C46.4989 30.0193 46.1898 30.0134 45.8546 30.0771C45.5218 30.1263 45.1717 30.2134 44.8044 30.3382C44.4395 30.4487 44.0644 30.5538 43.679 30.6536C43.296 30.739 42.9128 30.7801 42.5295 30.7769C42.1544 30.7676 41.7862 30.6709 41.4248 30.4868C41.0634 30.3027 40.72 29.985 40.3945 29.5337C40.0209 29.0156 39.8299 28.4865 39.8216 27.9465C39.8156 27.3922 39.9606 26.8623 40.2568 26.357C40.5529 25.8516 40.9685 25.4063 41.5035 25.0209C42.0804 24.6054 42.6759 24.3479 43.2901 24.2484C43.9126 24.1429 44.4925 24.1632 45.0299 24.3095L44.7568 25.9918C44.3011 25.8883 43.8871 25.8691 43.5148 25.9341C43.1448 25.9847 42.7843 26.1364 42.4331 26.3893C41.9984 26.7024 41.7189 27.0371 41.5947 27.3932C41.4788 27.7433 41.5353 28.0772 41.7643 28.3948C41.9572 28.6622 42.1891 28.8253 42.4601 28.884C42.7251 28.9344 43.021 28.9308 43.3478 28.8732C43.677 28.8012 44.024 28.71 44.389 28.5995C44.7622 28.483 45.1404 28.3821 45.5234 28.2967C45.9148 28.2053 46.304 28.1725 46.6911 28.1985C47.0805 28.21 47.4619 28.3162 47.8354 28.5171C48.2089 28.7179 48.5643 29.0523 48.9018 29.5203C49.4683 30.3059 49.6372 31.1302 49.4085 31.9933C49.1882 32.8503 48.6057 33.6191 47.661 34.2995Z" fill="white"/>
<path d="M57.2139 28.7632C56.4359 29.1181 55.7108 29.279 55.0387 29.2459C54.3666 29.2128 53.6909 29.0228 53.0114 28.676L53.6072 27.0791C54.0589 27.3487 54.5235 27.5104 55.0012 27.5643C55.4746 27.6088 56.0019 27.4985 56.583 27.2333C57.1267 26.9853 57.5065 26.6761 57.7225 26.3058C57.9478 25.9312 57.9706 25.5471 57.7908 25.1535C57.641 24.8254 57.4346 24.5968 57.1717 24.4676C56.9088 24.3384 56.6068 24.2724 56.2656 24.2694C55.9296 24.2529 55.5693 24.27 55.1847 24.3209C54.8053 24.3581 54.4169 24.3881 54.0195 24.4108C53.6272 24.4199 53.2434 24.3855 52.868 24.3077C52.502 24.2255 52.1597 24.0589 51.8411 23.8078C51.5226 23.5568 51.2477 23.1782 51.0166 22.6722C50.7511 22.0911 50.667 21.5349 50.7641 21.0036C50.8663 20.4587 51.1119 19.9673 51.5009 19.5293C51.8899 19.0914 52.3843 18.7356 52.9842 18.4619C53.631 18.1668 54.2653 18.0303 54.887 18.0525C55.5182 18.0703 56.083 18.2033 56.5815 18.4515L55.9856 20.0484C55.5589 19.858 55.1566 19.7585 54.7787 19.7496C54.406 19.7272 54.0228 19.8057 53.6291 19.9853C53.1417 20.2077 52.8023 20.4815 52.611 20.8066C52.4291 21.1274 52.4195 21.4659 52.5821 21.822C52.7191 22.1219 52.9148 22.3271 53.1691 22.4375C53.4192 22.5386 53.7101 22.5928 54.0419 22.6C54.3787 22.5935 54.7369 22.5717 55.1163 22.5345C55.5051 22.493 55.8957 22.4677 56.288 22.4586C56.6896 22.4452 57.0778 22.489 57.4523 22.5899C57.832 22.6771 58.1854 22.8557 58.5125 23.1254C58.8396 23.3952 59.1231 23.7925 59.3628 24.3174C59.7652 25.1983 59.7701 26.0398 59.3775 26.8418C58.9943 27.6395 58.2731 28.2799 57.2139 28.7632Z" fill="white"/>
<path d="M72.6754 24.0611L72.5066 22.5248L75.5944 22.1859C76.1372 22.1264 76.5386 21.9113 76.7984 21.5407C77.0583 21.1701 77.164 20.7647 77.1157 20.3243C77.083 20.0273 76.9861 19.7581 76.8248 19.5166C76.6635 19.2752 76.4464 19.0917 76.1735 18.9662C75.9006 18.8407 75.5849 18.7976 75.2264 18.8369L72.1386 19.1758L71.9697 17.6396L74.7964 17.3294C75.2573 17.2788 75.6131 17.1205 75.8637 16.8546C76.1144 16.5887 76.2144 16.2253 76.1637 15.7645C76.1131 15.3036 75.9365 14.9706 75.6341 14.7654C75.3317 14.5601 74.9501 14.4828 74.4892 14.5334L71.6625 14.8437L71.4937 13.3074L74.3665 12.9921C75.0936 12.9123 75.7125 12.9791 76.2231 13.1926C76.7338 13.406 77.1299 13.7098 77.4116 14.1038C77.6933 14.4979 77.8606 14.9356 77.9135 15.4169C77.9754 15.9802 77.8712 16.4944 77.601 16.9594C77.341 17.4232 76.9235 17.8215 76.3486 18.1541L76.426 17.5858C77.1324 17.7882 77.7026 18.1195 78.1367 18.5797C78.5708 19.04 78.8249 19.6081 78.8992 20.284C78.96 20.837 78.8774 21.3592 78.6516 21.8504C78.4359 22.3405 78.0776 22.7582 77.5765 23.1034C77.0846 23.4372 76.4545 23.6463 75.6864 23.7306L72.6754 24.0611ZM71.4617 24.1943L70.2801 13.4406L72.0468 13.2467L73.2284 24.0004L71.4617 24.1943Z" fill="white"/>
<path d="M84.1454 19.0238L84.2727 17.5611L86.9979 17.7985C87.5419 17.8458 87.9748 17.7439 88.2966 17.4927C88.6295 17.2321 88.8179 16.8503 88.8617 16.3474C88.901 15.8958 88.7852 15.503 88.5144 15.1692C88.2435 14.8353 87.8361 14.6447 87.292 14.5973L84.5514 14.3587L84.6855 12.819L87.503 13.0644C88.1805 13.1234 88.7638 13.3138 89.2529 13.6356C89.7428 13.9472 90.1059 14.3511 90.3419 14.8474C90.5891 15.3343 90.6868 15.8755 90.635 16.4708C90.5805 17.0969 90.3894 17.6284 90.0618 18.0653C89.7445 18.503 89.318 18.8279 88.7824 19.0398C88.2469 19.2517 87.6404 19.3282 86.9629 19.2692L84.1454 19.0238ZM82.531 23.4906L83.4691 12.7131L85.2397 12.8673L84.3016 23.6448L82.531 23.4906ZM88.4433 24.0055L85.0785 18.9965L86.7782 18.5395L90.6758 24.1999L88.4433 24.0055Z" fill="white"/>
<path d="M92.7297 24.6928L100.083 15.5931L101.268 15.9455L102.418 27.5738L100.581 27.0276L99.7631 17.6424L100.385 17.8274L94.537 25.2303L92.7297 24.6928ZM95.4286 23.3187L95.8696 21.8375L101.366 23.4718L100.925 24.9531L95.4286 23.3187Z" fill="white"/>
<path d="M104.633 28.7895L109.8 19.2851L110.887 19.875L110.388 21.9254L106.195 29.6376L104.633 28.7895ZM111.22 32.3663L109.567 21.8492L110.887 19.875L112.54 30.3921L111.22 32.3663ZM111.22 32.3663L111.653 30.4381L115.912 22.6037L117.474 23.4518L112.307 32.9563L111.22 32.3663Z" fill="white"/>
<path d="M115.654 35.6588L116.708 34.4245L118.872 36.2693C119.436 36.7505 120.034 37.0501 120.665 37.1681C121.303 37.2928 121.924 37.2398 122.527 37.0093C123.145 36.7777 123.698 36.3758 124.186 35.8037C124.668 35.2394 124.971 34.6382 125.096 33.9999C125.22 33.3617 125.171 32.7373 124.947 32.1268C124.731 31.5229 124.344 30.9837 123.788 30.5091L121.624 28.6643L122.677 27.43L124.876 29.3049C125.472 29.8128 125.935 30.3899 126.264 31.0359C126.6 31.6741 126.795 32.3417 126.851 33.0387C126.921 33.7346 126.847 34.4235 126.631 35.1056C126.421 35.7797 126.066 36.4107 125.564 36.9985C125.069 37.5784 124.502 38.0289 123.862 38.35C123.222 38.6711 122.554 38.8594 121.856 38.9147C121.165 38.9622 120.475 38.8745 119.785 38.6517C119.101 38.421 118.465 38.055 117.877 37.5537L115.654 35.6588ZM114.725 34.8668L121.748 26.638L123.1 27.791L116.078 36.0197L114.725 34.8668Z" fill="white"/>
<path d="M128.948 50.6857L136.663 42.3132L137.515 43.8381L131.543 50.2296L131.317 49.8248L139.865 48.0483L140.468 49.1278L134.466 55.4654L134.24 55.0605L142.819 53.338L143.67 54.8629L132.489 57.0281L131.886 55.9485L137.867 49.605L138.093 50.0098L129.551 51.7653L128.948 50.6857Z" fill="white"/>
<path d="M134.054 61.643L144.328 58.2536L144.885 59.9412L134.611 63.3307L134.054 61.643Z" fill="white"/>
<path d="M136.37 70.807L146.746 69.1397L147.028 70.8944L136.652 72.5618L136.37 70.807ZM144.889 65.8691L146.491 65.6117L147.893 74.3244L146.291 74.5818L144.889 65.8691Z" fill="white"/>
<path d="M137.22 79.1081L148.028 79.5722L147.952 81.3479L137.143 80.8838L137.22 79.1081ZM136.924 85.9791L147.733 86.4432L147.656 88.2189L136.848 87.7548L136.924 85.9791ZM141.954 80.5335L143.575 80.6031L143.316 86.6403L141.694 86.5707L141.954 80.5335Z" fill="white"/>
<path d="M133.994 98.6947L135.504 99.2873L134.465 101.934C134.194 102.625 134.105 103.287 134.199 103.922C134.289 104.566 134.541 105.135 134.956 105.63C135.376 106.138 135.937 106.529 136.637 106.804C137.327 107.075 137.995 107.165 138.639 107.075C139.283 106.984 139.858 106.734 140.362 106.323C140.863 105.922 141.247 105.381 141.515 104.7L142.554 102.053L144.065 102.646L143.008 105.336C142.722 106.065 142.327 106.69 141.823 107.212C141.329 107.737 140.761 108.14 140.12 108.419C139.485 108.712 138.809 108.868 138.094 108.886C137.388 108.908 136.675 108.778 135.956 108.495C135.246 108.217 134.635 107.828 134.123 107.328C133.611 106.828 133.215 106.258 132.935 105.617C132.665 104.98 132.523 104.299 132.509 103.574C132.504 102.853 132.643 102.133 132.926 101.413L133.994 98.6947ZM134.44 97.5583L144.511 101.509L143.861 103.164L133.79 99.2125L134.44 97.5583Z" fill="white"/>
<path d="M129.579 108.349L138.687 114.187L137.727 115.683L128.619 109.844L129.579 108.349ZM128.92 109.376L130.286 110.252L127.014 115.35L125.648 114.475L128.92 109.376ZM132.914 111.937L134.229 112.779L131.24 117.435L129.926 116.593L132.914 111.937ZM136.662 114.339L138.028 115.214L134.798 120.248L133.431 119.372L136.662 114.339Z" fill="white"/>
<path d="M123.752 116.793L131.408 124.437L130.534 125.311L122.115 123.261L122.683 122.693L124.743 131.104L123.869 131.978L116.213 124.334L117.469 123.077L122.916 128.515L122.555 128.723L121.033 122.486L121.907 121.611L128.149 123.127L127.942 123.488L122.495 118.05L123.752 116.793Z" fill="white"/>
<path d="M109.131 128.632C109.788 128.227 110.478 127.971 111.2 127.865C111.921 127.759 112.629 127.788 113.324 127.953C114.025 128.126 114.674 128.422 115.271 128.84C115.865 129.273 116.365 129.818 116.771 130.476C117.177 131.133 117.437 131.82 117.552 132.536C117.659 133.257 117.634 133.962 117.478 134.651C117.319 135.355 117.032 135.998 116.617 136.581C116.199 137.178 115.661 137.679 115.003 138.084C114.345 138.49 113.66 138.743 112.947 138.844C112.231 138.959 111.523 138.929 110.822 138.756C110.127 138.591 109.483 138.293 108.889 137.86C108.291 137.442 107.79 136.904 107.384 136.246C106.978 135.589 106.719 134.895 106.607 134.165C106.492 133.449 106.517 132.744 106.681 132.049C106.837 131.36 107.124 130.717 107.543 130.12C107.952 129.528 108.482 129.033 109.131 128.632ZM110.05 130.063C109.427 130.447 108.97 130.922 108.679 131.489C108.378 132.062 108.248 132.675 108.288 133.328C108.325 133.995 108.544 134.653 108.944 135.302C109.242 135.784 109.591 136.174 109.993 136.471C110.391 136.783 110.82 136.996 111.279 137.113C111.743 137.238 112.217 137.26 112.701 137.18C113.175 137.105 113.645 136.925 114.11 136.638C114.724 136.259 115.181 135.784 115.481 135.211C115.778 134.653 115.911 134.044 115.88 133.386C115.84 132.733 115.619 132.082 115.219 131.433C114.921 130.951 114.57 130.549 114.167 130.229C113.76 129.923 113.331 129.71 112.881 129.588C112.422 129.472 111.948 129.449 111.459 129.521C110.976 129.601 110.506 129.781 110.05 130.063Z" fill="white"/>
<path d="M98.5226 133.449C99.2904 133.179 100.042 133.111 100.778 133.246C101.513 133.381 102.167 133.686 102.738 134.162C103.304 134.651 103.722 135.28 103.992 136.048L106.219 142.375L104.542 142.964L102.32 136.652C102.146 136.156 101.892 135.759 101.558 135.462C101.217 135.177 100.831 134.996 100.4 134.919C99.9717 134.851 99.5341 134.895 99.087 135.053C98.6301 135.213 98.261 135.452 97.9795 135.77C97.7014 136.097 97.5236 136.476 97.446 136.907C97.3719 137.348 97.4203 137.812 97.5914 138.298L99.8183 144.625L98.1416 145.214L95.9096 138.873C95.6393 138.105 95.5731 137.358 95.7109 136.633C95.8488 135.907 96.1574 135.263 96.6369 134.702C97.1164 134.14 97.745 133.722 98.5226 133.449Z" fill="white"/>
<path d="M91.0019 135.558L92.8618 146.215L91.1109 146.52L89.251 135.863L91.0019 135.558Z" fill="white"/>
</svg>
