<svg width="136" height="93" viewBox="0 0 136 93" fill="none" xmlns="http://www.w3.org/2000/svg">
<path fill-rule="evenodd" clip-rule="evenodd" d="M16.7207 48.6111C16.6537 48.1315 16.5621 47.6696 16.4579 47.2395C16.1355 45.9475 14.9219 46.1806 14.8278 46.2002C14.6307 46.2419 13.7595 46.4636 13.7397 47.5219C13.7377 47.5852 13.7889 48.0309 13.8118 48.2021C13.8619 48.5671 13.9198 48.924 14.0364 49.2713C14.1052 49.8846 14.1234 50.5256 14.0446 51.1467C13.9329 52.0626 13.6377 52.9442 12.9125 53.5207C11.6169 54.556 9.71733 54.8814 8.1705 55.3736C7.52448 55.579 7.12443 56.2252 7.22718 56.8949C7.33453 57.5643 7.91167 58.0573 8.59118 58.0547C10.6393 58.0482 13.254 59.4191 14.9752 60.5954C15.5043 60.9568 16.2031 61.9232 16.8887 62.4972C17.4409 62.9567 18.0089 63.2275 18.5084 63.2834C18.7034 63.3049 19.7631 63.3178 20.0231 62.1746C20.0932 61.8542 20.246 60.2162 20.2531 60.0314C20.305 58.9703 20.4806 57.9981 21.0078 57.0626C21.4654 56.2515 22.0655 55.5053 22.8609 55.0046C23.1815 54.8027 23.5218 54.6311 23.8615 54.4563C23.9846 54.4173 24.3315 54.3055 24.4494 54.2391C24.6897 54.1054 24.8535 53.9358 24.9633 53.7769C25.1721 53.4759 25.2458 53.1496 25.2036 52.8018C25.179 52.5718 25.0969 52.3088 24.8788 52.0411C24.7175 51.8521 24.3831 51.5849 23.8494 51.4712C23.2914 51.3523 22.1416 51.3559 21.9336 51.3396C20.4874 51.2281 19.0319 50.9186 17.791 50.1408C17.1728 49.7515 16.9523 49.2478 16.7207 48.6111ZM16.5586 52.6012C16.2348 53.801 15.6174 54.8759 14.6251 55.6666C14.2164 55.9945 13.7562 56.2715 13.2703 56.511C14.4659 57.0478 15.6039 57.6997 16.528 58.3285C16.8274 58.5333 17.1786 58.89 17.5554 59.2833C17.6719 58.0219 17.9734 56.8519 18.6159 55.7122C18.997 55.0398 19.4506 54.4055 19.9837 53.8475C18.785 53.6158 17.6167 53.2239 16.5586 52.6012Z" fill="white"/>
<path fill-rule="evenodd" clip-rule="evenodd" d="M52.025 81.5239C41.8335 83.698 31.2766 85.168 22.1468 90.5087C21.4925 90.8926 20.6494 90.6694 20.2663 90.0198C19.8824 89.3657 20.1057 88.5228 20.76 88.1389C30.1456 82.6476 40.9757 81.0704 51.4498 78.8385C52.1931 78.68 52.9202 79.1531 53.0778 79.8917C53.2363 80.6348 52.763 81.3618 52.025 81.5239Z" fill="white"/>
<path fill-rule="evenodd" clip-rule="evenodd" d="M49.9714 66.4349C46.2513 64.1155 42.3806 62.5796 37.9935 62.2841C37.2386 62.2329 36.6682 61.5776 36.7169 60.822C36.7702 60.0656 37.4218 59.4941 38.1811 59.5444C43.0305 59.8708 47.3133 61.5419 51.4239 64.1049C52.0676 64.5057 52.2642 65.3529 51.8636 65.9959C51.463 66.6389 50.6151 66.8357 49.9714 66.4349Z" fill="white"/>
<path fill-rule="evenodd" clip-rule="evenodd" d="M52.7396 32.5496C50.3511 27.8517 46.7627 24.4999 41.8574 22.5153C41.1565 22.2309 40.8149 21.4301 41.1018 20.7275C41.3842 20.0253 42.1866 19.6857 42.8876 19.9705C48.4329 22.2127 52.4892 25.9971 55.1883 31.3061C55.5297 31.9817 55.2614 32.8083 54.5855 33.1516C53.9095 33.4949 53.081 33.2252 52.7396 32.5496Z" fill="white"/>
<path fill-rule="evenodd" clip-rule="evenodd" d="M102.457 16.0346C103.492 16.88 104.451 17.8171 105.314 18.8419C105.816 19.4323 106.772 20.8476 106.87 21.9845C106.941 22.8366 106.674 23.591 105.957 24.1411C104.814 25.0211 103.787 25.1329 102.936 24.8913C102.12 24.6604 101.39 24.0481 100.837 23.1394C99.8513 21.5169 99.431 18.8628 99.4646 17.21C98.3924 16.4624 97.2504 15.8141 96.0623 15.2676C86.9266 11.0721 75.5025 15.4319 68.0101 25.6859C65.384 29.2784 65.0519 35.8544 65.5317 42.7842C66.2788 53.6592 69.2301 65.4068 69.9842 68.8692C70.1791 69.781 70.1824 70.3429 70.1578 70.4597C70.0185 71.1057 69.5983 71.3477 69.2989 71.4646C68.8778 71.6276 68.5154 71.6074 68.2041 71.5123C67.789 71.3856 67.4088 71.0977 67.1631 70.5842C67.0392 70.3217 66.9446 69.9423 66.8765 69.5309C66.8398 69.2869 66.8485 69.0114 66.7664 68.8472C66.1859 67.6932 65.5388 66.5806 64.9037 65.4579C62.7677 61.6809 60.2702 58.2351 57.5845 54.8289C49.0311 44.002 40.5694 32.4496 28.5329 25.2395C27.8821 24.8502 27.6676 24.0073 28.0575 23.357C28.4476 22.7072 29.2927 22.4955 29.9434 22.8848C42.2683 30.266 50.9863 42.042 59.7376 53.1283C61.7732 55.7038 63.6972 58.3044 65.4471 61.0449C64.0795 54.3716 62.5344 45.2704 62.6144 37.5037C62.6667 31.966 63.5795 27.0897 65.7911 24.0669C74.1503 12.6273 87.0177 8.09178 97.2089 12.7726C98.2131 13.2327 99.183 13.7588 100.118 14.3474C103.326 5.10836 112.703 -0.0823342 122.31 2.28939C123.043 2.4718 123.495 3.21597 123.312 3.95162C123.129 4.68727 122.385 5.13698 121.652 4.95457C113.183 2.86452 104.939 7.66553 102.457 16.0346ZM102.439 19.7481C102.706 20.028 102.965 20.3163 103.216 20.6131C103.395 20.8206 103.674 21.1881 103.895 21.5954C103.968 21.7376 104.049 21.9678 104.094 22.1092C103.942 22.2197 103.815 22.2865 103.683 22.2495C103.466 22.1874 103.334 21.9557 103.186 21.7121C102.855 21.1694 102.606 20.4635 102.439 19.7481Z" fill="white"/>
</svg>
