<svg width="25" height="25" viewBox="0 0 25 25" fill="none" xmlns="http://www.w3.org/2000/svg">
<path fill-rule="evenodd" clip-rule="evenodd" d="M20.5805 3.6051C20.7757 3.59811 20.9658 3.66897 21.1088 3.8021C21.2518 3.93523 21.3361 4.11973 21.3431 4.315L21.6595 13.1502C21.6665 13.3454 21.5956 13.5355 21.4625 13.6785C21.3294 13.8215 21.1449 13.9058 20.9496 13.9128C20.7543 13.9198 20.5643 13.8489 20.4213 13.7158C20.2782 13.5827 20.194 13.3982 20.187 13.2029L19.9342 6.14507L5.52906 21.6218C5.46305 21.6927 5.38373 21.7499 5.29562 21.7902C5.2075 21.8304 5.11232 21.8529 5.01551 21.8564C4.9187 21.8599 4.82216 21.8442 4.73139 21.8104C4.64063 21.7766 4.55741 21.7252 4.48651 21.6592C4.4156 21.5932 4.35839 21.5138 4.31814 21.4257C4.27789 21.3376 4.25539 21.2424 4.25192 21.1456C4.24845 21.0488 4.26409 20.9523 4.29793 20.8615C4.33178 20.7707 4.38317 20.6875 4.44917 20.6166L18.8559 5.14128L11.7981 5.39402C11.6028 5.40102 11.4127 5.33015 11.2697 5.19702C11.1267 5.06389 11.0424 4.8794 11.0354 4.68413C11.0284 4.48886 11.0993 4.29881 11.2324 4.15579C11.3656 4.01277 11.5501 3.92849 11.7453 3.9215L20.5805 3.6051Z" fill="white"/>
</svg>
