<svg width="100" height="100" viewBox="0 0 100 100" fill="none" xmlns="http://www.w3.org/2000/svg">
<circle cx="50" cy="50" r="50" fill="url(#paint0_linear_504_17760)"/>
<path d="M46.0974 84.4204L45.9647 85.3771L44.0416 85.1103C43.7036 85.0634 43.4274 85.1324 43.2133 85.3172C42.9991 85.502 42.873 85.7315 42.8349 86.0058C42.8092 86.1908 42.8268 86.3688 42.8876 86.5397C42.9484 86.7107 43.0519 86.8551 43.1981 86.9729C43.3442 87.0907 43.529 87.1651 43.7522 87.196L45.6753 87.4629L45.5425 88.4196L43.7821 88.1754C43.4951 88.1355 43.2553 88.177 43.0627 88.2998C42.8701 88.4226 42.7539 88.6276 42.7141 88.9146C42.6743 89.2016 42.7303 89.4304 42.8822 89.601C43.034 89.7716 43.2535 89.8768 43.5405 89.9167L45.3009 90.1609L45.1682 91.1177L43.379 90.8694C42.9262 90.8066 42.5614 90.6715 42.2846 90.464C42.0078 90.2566 41.8142 90.0119 41.7038 89.7301C41.5934 89.4482 41.559 89.1574 41.6006 88.8576C41.6492 88.5068 41.791 88.2111 42.0259 87.9707C42.2544 87.7293 42.5684 87.5519 42.9677 87.4382L42.8338 87.7707C42.4367 87.5401 42.1419 87.2521 41.9492 86.9069C41.7566 86.5616 41.6895 86.1784 41.7479 85.7575C41.7957 85.413 41.9256 85.1093 42.1377 84.8461C42.3433 84.5821 42.6244 84.3838 42.9808 84.2512C43.33 84.1242 43.7438 84.0938 44.2222 84.1602L46.0974 84.4204ZM46.8533 84.5253L45.924 91.2226L44.8237 91.0699L45.753 84.3726L46.8533 84.5253Z" fill="white"/>
<path d="M37.7471 82.3435C38.2266 82.5132 38.619 82.7751 38.924 83.129C39.2291 83.4829 39.4273 83.8878 39.5187 84.3436C39.6019 84.8034 39.5585 85.2731 39.3888 85.7527L37.9899 89.7045L36.9427 89.3338L38.3384 85.3911C38.448 85.0815 38.4799 84.7888 38.4341 84.513C38.38 84.2411 38.2633 84.0017 38.0838 83.7947C37.9022 83.5938 37.6718 83.4439 37.3925 83.3451C37.1072 83.2441 36.8338 83.2156 36.5723 83.2596C36.3086 83.3098 36.0733 83.4246 35.8663 83.604C35.6572 83.7896 35.4989 84.0341 35.3914 84.3376L33.9925 88.2894L32.9454 87.9188L34.3475 83.9578C34.5173 83.4783 34.7781 83.089 35.1298 82.79C35.4816 82.491 35.8843 82.2988 36.3381 82.2135C36.7918 82.1282 37.2615 82.1715 37.7471 82.3435Z" fill="white"/>
<path d="M33.3523 80.4589L30.0763 86.3738L29.1046 85.8356L32.3806 79.9207L33.3523 80.4589Z" fill="white"/>
<path d="M29.8064 78.3091L25.6657 83.6543L24.7875 82.974L28.9283 77.6288L29.8064 78.3091ZM29.2032 77.8417L28.582 78.6435L25.7872 76.4785L26.4084 75.6767L29.2032 77.8417Z" fill="white"/>
<path d="M24.4534 73.6462L23.6879 74.3115L22.522 72.97C22.2179 72.62 21.8765 72.3793 21.4977 72.2478C21.1147 72.1114 20.7262 72.0865 20.3321 72.173C19.929 72.2589 19.55 72.456 19.1952 72.7644C18.8452 73.0685 18.6021 73.4121 18.4657 73.7951C18.3293 74.1781 18.302 74.5687 18.3836 74.967C18.4611 75.3604 18.6497 75.7296 18.9496 76.0747L20.1155 77.4162L19.35 78.0815L18.1651 76.7181C17.8441 76.3488 17.6119 75.9491 17.4686 75.5191C17.3204 75.0933 17.2615 74.6624 17.2921 74.2264C17.3135 73.7897 17.4228 73.3705 17.6198 72.969C17.8119 72.5716 18.0903 72.2145 18.4548 71.8977C18.8145 71.5851 19.2069 71.3593 19.632 71.2202C20.0571 71.0811 20.4877 71.0268 20.9238 71.0573C21.355 71.0921 21.7735 71.2104 22.1793 71.4123C22.5802 71.6184 22.9391 71.9037 23.2559 72.2682L24.4534 73.6462ZM24.954 74.2221L19.8505 78.6575L19.1219 77.819L24.2253 73.3837L24.954 74.2221Z" fill="white"/>
<path d="M18.5732 65.3091L11.2619 65.2653L10.9722 64.549L16.2046 59.4528L16.6537 60.5631L12.3877 64.6225L12.2356 64.2464L18.1313 64.2166L18.5732 65.3091ZM16.85 64.5264L15.9546 64.8886L14.6109 61.5665L15.5064 61.2043L16.85 64.5264Z" fill="white"/>
<path d="M15.2224 51.9132C15.2541 52.4467 15.1846 52.9056 15.0139 53.2899C14.8432 53.6742 14.5802 54.0253 14.225 54.3431L13.4282 53.6357C13.6871 53.4333 13.8861 53.1989 14.0251 52.9326C14.1576 52.6667 14.2121 52.3345 14.1884 51.9359C14.1663 51.5631 14.0715 51.272 13.9043 51.0626C13.7366 50.8468 13.5178 50.7469 13.2479 50.7629C13.0229 50.7763 12.8431 50.845 12.7086 50.9691C12.574 51.0932 12.4675 51.2544 12.3889 51.4526C12.3036 51.6447 12.2324 51.8586 12.1755 52.0942C12.1117 52.3238 12.0417 52.5569 11.9654 52.7937C11.8824 53.0244 11.7759 53.2404 11.6459 53.4416C11.5156 53.6364 11.3413 53.7984 11.1232 53.9275C10.9051 54.0565 10.6225 54.1314 10.2754 54.152C9.87683 54.1757 9.53363 54.0993 9.24576 53.9229C8.95108 53.7404 8.71989 53.4864 8.55219 53.161C8.38448 52.8355 8.28841 52.467 8.26397 52.0556C8.23762 51.6121 8.30091 51.2116 8.45385 50.8542C8.6064 50.4903 8.81118 50.1911 9.06818 49.9565L9.86495 50.6639C9.65785 50.8697 9.50918 51.0818 9.41893 51.3C9.32187 51.5122 9.28136 51.7533 9.2974 52.0233C9.31726 52.3575 9.40041 52.6171 9.54686 52.8019C9.69293 52.9803 9.8881 53.0622 10.1324 53.0477C10.3381 53.0355 10.5018 52.9677 10.6235 52.8444C10.7387 52.7214 10.8358 52.5641 10.9147 52.3723C10.9868 52.1745 11.0548 51.9608 11.1185 51.7312C11.1819 51.4952 11.2552 51.2619 11.3382 51.0312C11.4209 50.794 11.5338 50.5777 11.677 50.3821C11.8134 50.1805 11.9971 50.0147 12.2281 49.8849C12.459 49.7551 12.7545 49.6794 13.1145 49.6581C13.7187 49.6222 14.2104 49.809 14.5896 50.2187C14.9683 50.622 15.1793 51.1868 15.2224 51.9132Z" fill="white"/>
<path d="M15.588 44.4436C15.5155 44.9471 15.3356 45.3832 15.0483 45.7517C14.7611 46.1202 14.4029 46.3939 13.9737 46.5728C13.5391 46.7444 13.0701 46.794 12.5666 46.7215L8.41726 46.124L8.57558 45.0245L12.7153 45.6206C13.0404 45.6674 13.3337 45.6414 13.5951 45.5424C13.8512 45.4361 14.0631 45.2747 14.2309 45.0582C14.3923 44.8407 14.4941 44.5854 14.5364 44.2922C14.5795 43.9926 14.5539 43.7189 14.4594 43.4711C14.3586 43.2224 14.1999 43.0141 13.9834 42.8463C13.7605 42.6776 13.4896 42.5703 13.171 42.5244L9.02165 41.9269L9.17998 40.8274L13.3388 41.4263C13.8424 41.4988 14.2752 41.6782 14.6373 41.9646C14.9995 42.2509 15.2668 42.6082 15.4393 43.0364C15.6119 43.4647 15.6615 43.9337 15.588 44.4436Z" fill="white"/>
<path d="M17.6158 37.0362C17.4473 37.4957 17.2093 37.892 16.902 38.2251C16.5908 38.5499 16.2339 38.8031 15.8312 38.9847C15.4225 39.164 14.9928 39.2602 14.5422 39.2733C14.0855 39.2841 13.6305 39.2064 13.1771 39.0401C12.7236 38.8738 12.3292 38.64 11.9939 38.3387C11.6526 38.0352 11.387 37.684 11.1971 37.2852C11.0073 36.8863 10.8987 36.4624 10.8714 36.0134C10.8462 35.5583 10.9179 35.1011 11.0864 34.6416C11.2748 34.1277 11.5224 33.7144 11.8292 33.4016C12.1359 33.0889 12.4876 32.8406 12.8842 32.6569L13.3322 33.6236C13.0579 33.7357 12.8134 33.9066 12.5988 34.1366C12.3864 34.3605 12.2147 34.6507 12.0839 35.0074C11.9686 35.3218 11.9177 35.6289 11.9312 35.9288C11.9447 36.2287 12.0187 36.5131 12.1533 36.7819C12.2841 37.0425 12.4697 37.2752 12.7101 37.4799C12.9505 37.6847 13.237 37.8481 13.5695 37.97C13.902 38.092 14.2262 38.1525 14.542 38.1518C14.8578 38.151 15.1528 38.0946 15.4271 37.9825C15.6976 37.8622 15.9349 37.6921 16.139 37.472C16.3432 37.252 16.5029 36.9847 16.6182 36.6704C16.7601 36.2834 16.8224 35.9359 16.8051 35.6278C16.784 35.3114 16.705 35.0217 16.5682 34.7589L17.5349 34.311C17.7248 34.7098 17.8322 35.1368 17.8574 35.5919C17.8826 36.0469 17.802 36.5284 17.6158 37.0362Z" fill="white"/>
<path d="M20.9705 30.6544C20.7105 31.069 20.3957 31.4075 20.0261 31.6698C19.6544 31.9232 19.2528 32.097 18.8212 32.1913C18.3843 32.2821 17.944 32.2873 17.5004 32.2068C17.0514 32.1229 16.6223 31.9527 16.2131 31.6962C15.8039 31.4396 15.4665 31.1292 15.2008 30.7651C14.9296 30.3974 14.7425 29.9989 14.6393 29.5694C14.5362 29.1399 14.5177 28.7027 14.5838 28.2577C14.6534 27.8073 14.8182 27.3748 15.0781 26.9602C15.3689 26.4964 15.6967 26.1433 16.0615 25.9008C16.4263 25.6583 16.8218 25.4882 17.2479 25.3905L17.486 26.4291C17.1945 26.4819 16.9199 26.5986 16.6623 26.7791C16.4081 26.9542 16.1802 27.2027 15.9783 27.5246C15.8005 27.8083 15.6871 28.0982 15.6382 28.3944C15.5893 28.6905 15.6029 28.9841 15.679 29.275C15.753 29.557 15.8864 29.823 16.0792 30.0731C16.272 30.3232 16.5185 30.5423 16.8185 30.7305C17.1186 30.9186 17.4232 31.045 17.7323 31.1096C18.0415 31.1742 18.3418 31.18 18.6333 31.1272C18.9228 31.0655 19.1902 30.9481 19.4355 30.7751C19.6808 30.6021 19.8924 30.3737 20.0703 30.09C20.2892 29.7408 20.422 29.4137 20.4689 29.1086C20.5137 28.7947 20.4964 28.495 20.4169 28.2096L21.4555 27.9715C21.5586 28.401 21.5754 28.8409 21.5058 29.2913C21.4363 29.7417 21.2578 30.1961 20.9705 30.6544Z" fill="white"/>
<path d="M23.4147 27.2419L18.4963 22.6023L19.2585 21.7942L24.177 26.4338L23.4147 27.2419ZM23.9384 26.6868L23.2006 25.9908L25.7988 23.2365L26.5365 23.9324L23.9384 26.6868ZM21.7812 24.652L21.0716 23.9826L23.4444 21.4671L24.1541 22.1365L21.7812 24.652ZM19.7576 22.7431L19.0199 22.0472L21.5849 19.328L22.3227 20.0239L19.7576 22.7431Z" fill="white"/>
<path d="M29.561 21.7856C29.1274 22.0981 28.7026 22.2852 28.2867 22.3468C27.8707 22.4084 27.4334 22.3744 26.9747 22.2446L27.1454 21.1928C27.4551 21.3031 27.7595 21.3456 28.0589 21.3203C28.3544 21.2899 28.6642 21.158 28.9881 20.9245C29.2911 20.7062 29.4862 20.4703 29.5735 20.2169C29.6659 19.9597 29.6331 19.7215 29.475 19.502C29.3432 19.3192 29.1889 19.2042 29.012 19.157C28.8352 19.1099 28.642 19.1062 28.4326 19.146C28.2246 19.1768 28.0059 19.2313 27.7764 19.3093C27.5484 19.3784 27.314 19.4442 27.0732 19.5066C26.8339 19.56 26.5944 19.5857 26.3549 19.5837C26.1205 19.578 25.8905 19.5176 25.6647 19.4025C25.4388 19.2874 25.2243 19.0888 25.021 18.8067C24.7876 18.4828 24.6683 18.1521 24.6631 17.8145C24.6594 17.4679 24.75 17.1366 24.9351 16.8207C25.1202 16.5048 25.3799 16.2263 25.7142 15.9854C26.0747 15.7256 26.4468 15.5646 26.8306 15.5023C27.2195 15.4363 27.5819 15.449 27.9177 15.5404L27.7469 16.5921C27.4622 16.5274 27.2035 16.5154 26.9709 16.5561C26.7397 16.5878 26.5144 16.6827 26.295 16.8408C26.0233 17.0366 25.8487 17.2458 25.771 17.4684C25.6986 17.6873 25.7339 17.896 25.877 18.0946C25.9974 18.2617 26.1424 18.3637 26.3117 18.4004C26.4773 18.4319 26.6622 18.4296 26.8664 18.3936C27.072 18.3485 27.2889 18.2915 27.5169 18.2224C27.7502 18.1495 27.9864 18.0864 28.2258 18.033C28.4703 17.9758 28.7135 17.9553 28.9554 17.9715C29.1987 17.9787 29.437 18.0451 29.6704 18.1706C29.9037 18.2961 30.1258 18.5052 30.3366 18.7977C30.6905 19.2888 30.796 19.8041 30.6531 20.3437C30.5153 20.8795 30.1513 21.3602 29.561 21.7856Z" fill="white"/>
<path d="M35.4287 18.379C34.9424 18.601 34.4893 18.7016 34.0694 18.681C33.6494 18.6604 33.2271 18.5417 32.8025 18.3249L33.175 17.3266C33.4572 17.4951 33.7476 17.5962 34.0461 17.6298C34.3419 17.6576 34.6714 17.5886 35.0346 17.4228C35.3744 17.2677 35.6117 17.0743 35.7467 16.8428C35.8876 16.6086 35.9018 16.3685 35.7895 16.1225C35.6959 15.9175 35.567 15.7746 35.4027 15.6938C35.2384 15.6131 35.0497 15.5718 34.8365 15.5701C34.6265 15.5597 34.4014 15.5705 34.1611 15.6023C33.924 15.6256 33.6812 15.6444 33.4329 15.6587C33.1878 15.6644 32.9479 15.6429 32.7134 15.5943C32.4846 15.543 32.2708 15.4389 32.0717 15.282C31.8727 15.1251 31.701 14.8885 31.5566 14.5721C31.3908 14.2089 31.3382 13.8613 31.399 13.5292C31.4629 13.1885 31.6164 12.8813 31.8595 12.6075C32.1027 12.3337 32.4117 12.1112 32.7866 11.9401C33.1908 11.7556 33.5871 11.6702 33.9757 11.6839C34.3701 11.695 34.723 11.7781 35.0345 11.9332L34.662 12.9315C34.3953 12.8126 34.1439 12.7503 33.9078 12.7449C33.6749 12.7309 33.4355 12.78 33.1894 12.8923C32.8848 13.0314 32.6727 13.2025 32.5531 13.4058C32.4394 13.6063 32.4333 13.8179 32.535 14.0405C32.6205 14.228 32.7428 14.3562 32.9017 14.4253C33.058 14.4884 33.2398 14.5222 33.4471 14.5267C33.6576 14.5226 33.8814 14.5089 34.1185 14.4856C34.3615 14.4597 34.6055 14.4438 34.8507 14.4381C35.1017 14.4297 35.3442 14.457 35.5783 14.52C35.8155 14.5745 36.0363 14.6861 36.2407 14.8547C36.4451 15.0233 36.6222 15.2717 36.7719 15.5997C37.0233 16.1503 37.0263 16.6764 36.7809 17.1777C36.5414 17.6764 36.0906 18.0768 35.4287 18.379Z" fill="white"/>
<path d="M44.9041 15.4877L44.7986 14.5276L46.7285 14.3156C47.0678 14.2784 47.3186 14.144 47.4811 13.9123C47.6435 13.6807 47.7096 13.4273 47.6794 13.152C47.659 12.9664 47.5984 12.7982 47.4976 12.6473C47.3968 12.4964 47.2612 12.3817 47.0906 12.3033C46.92 12.2248 46.7227 12.1979 46.4987 12.2225L44.5688 12.4345L44.4633 11.4743L46.23 11.2803C46.5181 11.2487 46.7404 11.1497 46.8971 10.9835C47.0537 10.8173 47.1162 10.5902 47.0846 10.3022C47.053 10.0141 46.9427 9.80598 46.7537 9.67773C46.5647 9.54949 46.3261 9.50118 46.0381 9.53282L44.2714 9.72683L44.166 8.76668L45.9615 8.5695C46.4159 8.51959 46.8027 8.56133 47.1219 8.69472C47.441 8.82811 47.6886 9.01794 47.8646 9.26421C48.0407 9.51048 48.1452 9.78404 48.1782 10.0849C48.2169 10.4369 48.1518 10.7583 47.9829 11.0489C47.8204 11.3389 47.5594 11.5878 47.2 11.7957L47.2485 11.4405C47.6899 11.567 48.0463 11.774 48.3176 12.0616C48.5889 12.3493 48.7477 12.7043 48.7941 13.1268C48.8321 13.4725 48.7804 13.7988 48.6392 14.1058C48.5044 14.4121 48.2805 14.6732 47.9673 14.889C47.6598 15.0977 47.2661 15.2284 46.786 15.2811L44.9041 15.4877ZM44.1456 15.571L43.4075 8.84998L44.5116 8.72872L45.2497 15.4498L44.1456 15.571Z" fill="white"/>
<path d="M51.9521 12.3358L52.0317 11.4216L53.7349 11.5699C54.0749 11.5995 54.3455 11.5358 54.5466 11.3788C54.7547 11.2159 54.8725 10.9773 54.8998 10.6629C54.9244 10.3807 54.852 10.1352 54.6828 9.92655C54.5135 9.7179 54.2588 9.59877 53.9188 9.56917L52.206 9.42004L52.2897 8.45775L54.0507 8.61107C54.4741 8.64794 54.8387 8.76694 55.1443 8.96808C55.4506 9.1628 55.6775 9.41525 55.825 9.72543C55.9795 10.0298 56.0405 10.368 56.0081 10.74C55.9741 11.1314 55.8546 11.4636 55.6499 11.7366C55.4515 12.0102 55.185 12.2132 54.8503 12.3457C54.5155 12.4781 54.1365 12.5259 53.7131 12.4891L51.9521 12.3358ZM50.9431 15.1275L51.5295 8.39157L52.6362 8.48792L52.0497 15.2239L50.9431 15.1275ZM54.6382 15.4493L52.5353 12.3187L53.5977 12.033L56.0335 15.5708L54.6382 15.4493Z" fill="white"/>
<path d="M57.1955 15.8696L61.7901 10.1823L62.5308 10.4026L63.2503 17.6712L62.1023 17.3296L61.5904 11.4632L61.9792 11.5789L58.325 16.2056L57.1955 15.8696ZM58.882 15.0109L59.1575 14.0851L62.5923 15.1071L62.3168 16.0329L58.882 15.0109Z" fill="white"/>
<path d="M64.5175 18.3639L67.7454 12.4227L68.4244 12.7916L68.1128 14.0733L65.4936 18.8942L64.5175 18.3639ZM68.6339 20.6004L67.6001 14.0256L68.4244 12.7916L69.4583 19.3664L68.6339 20.6004ZM68.6339 20.6004L68.9041 19.395L71.5648 14.4978L72.5408 15.0281L69.3129 20.9693L68.6339 20.6004Z" fill="white"/>
<path d="M71.2992 22.5956L71.9573 21.824L73.3096 22.9773C73.6623 23.2782 74.0358 23.4655 74.4299 23.5393C74.8289 23.6172 75.2168 23.5842 75.5936 23.4401C75.9795 23.2952 76.325 23.044 76.6301 22.6863C76.9309 22.3336 77.1204 21.9577 77.1983 21.5587C77.2763 21.1597 77.2453 20.7693 77.1053 20.3876C76.9703 20.01 76.7289 19.6729 76.381 19.3762L75.0288 18.2229L75.6869 17.4512L77.0612 18.6234C77.4336 18.941 77.7226 19.3017 77.9282 19.7056C78.138 20.1046 78.2602 20.522 78.2948 20.9578C78.3385 21.3928 78.2927 21.8235 78.1576 22.2499C78.0266 22.6714 77.8044 23.0659 77.491 23.4333C77.1818 23.7959 76.8273 24.0775 76.4276 24.2783C76.0278 24.479 75.6101 24.5967 75.1743 24.6313C74.7427 24.661 74.3113 24.6061 73.88 24.4668C73.4529 24.3226 73.0556 24.0937 72.6882 23.7803L71.2992 22.5956ZM70.7186 22.1004L75.1063 16.956L75.9515 17.6769L71.5637 22.8213L70.7186 22.1004Z" fill="white"/>
<path d="M79.4684 31.821L84.2904 26.5864L84.8222 27.5395L81.09 31.5356L80.9488 31.2826L86.2907 30.1713L86.6672 30.8461L82.9162 34.8084L82.775 34.5554L88.1357 33.4778L88.6675 34.4309L81.6805 35.7855L81.304 35.1107L85.0419 31.1446L85.1831 31.3976L79.8449 32.4958L79.4684 31.821Z" fill="white"/>
<path d="M82.6111 38.5819L89.0318 36.4623L89.38 37.5171L82.9594 39.6367L82.6111 38.5819Z" fill="white"/>
<path d="M84.0357 44.2095L90.5207 43.1668L90.697 44.2635L84.212 45.3062L84.0357 44.2095ZM89.3604 41.1227L90.3618 40.9617L91.2374 46.4072L90.236 46.5682L89.3604 41.1227Z" fill="white"/>
<path d="M84.5588 49.2808L91.314 49.571L91.2663 50.6808L84.5111 50.3905L84.5588 49.2808ZM84.3743 53.5752L91.1295 53.8654L91.0818 54.9752L84.3266 54.6849L84.3743 53.5752ZM87.5176 50.1717L88.5309 50.2152L88.3688 53.9885L87.3555 53.9449L87.5176 50.1717Z" fill="white"/>
<path d="M82.5868 61.3333L83.5309 61.7039L82.8815 63.3583C82.7121 63.7899 82.6567 64.204 82.7155 64.6007C82.7719 65.0033 82.9296 65.3592 83.1887 65.6685C83.4514 65.9861 83.8016 66.2307 84.2392 66.4025C84.6708 66.5719 85.0879 66.6284 85.4905 66.572C85.8931 66.5156 86.252 66.359 86.5673 66.1023C86.8802 65.8516 87.1201 65.5134 87.2872 65.0878L87.9366 63.4334L88.8807 63.804L88.2207 65.4854C88.0419 65.941 87.7951 66.3318 87.4803 66.6579C87.1715 66.9863 86.8167 67.2379 86.4161 67.4127C86.019 67.5958 85.597 67.693 85.1498 67.7043C84.7086 67.7179 84.2633 67.6364 83.8137 67.4599C83.3701 67.2858 82.9883 67.0425 82.6682 66.7301C82.3481 66.4177 82.1007 66.0611 81.9259 65.6604C81.7571 65.2621 81.6683 64.8364 81.6594 64.3832C81.6565 63.9324 81.7433 63.4823 81.9197 63.0327L82.5868 61.3333ZM82.8657 60.623L89.1596 63.0937L88.7537 64.1277L82.4598 61.657L82.8657 60.623Z" fill="white"/>
<path d="M79.8835 67.2504L85.5749 70.9008L84.9752 71.8358L79.2838 68.1854L79.8835 67.2504ZM79.4715 67.8927L80.3253 68.4402L78.281 71.6274L77.4273 71.0799L79.4715 67.8927ZM81.9676 69.4936L82.7888 70.0203L80.9219 72.9311L80.1007 72.4044L81.9676 69.4936ZM84.3092 70.9955L85.163 71.5431L83.1448 74.6896L82.2911 74.142L84.3092 70.9955Z" fill="white"/>
<path d="M76.3247 72.436L81.108 77.2148L80.5619 77.7615L75.3021 76.48L75.6571 76.1246L76.9437 81.3832L76.3975 81.9299L71.6142 77.1511L72.3992 76.3652L75.8023 79.765L75.5769 79.8949L74.6257 75.9954L75.1718 75.4487L79.0723 76.3962L78.9426 76.6216L75.5396 73.2219L76.3247 72.436Z" fill="white"/>
<path d="M67.3004 79.7544C67.7114 79.5008 68.1424 79.3408 68.5933 79.2745C69.0442 79.2081 69.4867 79.2264 69.9209 79.3292C70.3585 79.4375 70.764 79.6224 71.1372 79.884C71.5084 80.1544 71.8207 80.4951 72.0744 80.9061C72.328 81.3171 72.4907 81.7463 72.5625 82.1939C72.6289 82.6447 72.6134 83.0856 72.516 83.5165C72.4166 83.9562 72.2371 84.3582 71.9777 84.7226C71.7162 85.0958 71.3799 85.4093 70.9689 85.6629C70.5579 85.9165 70.1297 86.0748 69.6843 86.1378C69.2367 86.2096 68.7942 86.1913 68.3566 86.083C67.9224 85.9802 67.5197 85.7936 67.1485 85.5232C66.7753 85.2617 66.4619 84.9254 66.2082 84.5144C65.9546 84.1034 65.7929 83.6697 65.7232 83.2133C65.6514 82.7658 65.6669 82.3249 65.7697 81.8907C65.8671 81.4599 66.0465 81.0578 66.308 80.6846C66.5641 80.3147 66.8949 80.0047 67.3004 79.7544ZM67.8748 80.6485C67.4857 80.8886 67.2 81.1859 67.0178 81.5405C66.8301 81.8985 66.7487 82.2816 66.7737 82.69C66.7965 83.1072 66.9331 83.5185 67.1833 83.9241C67.3693 84.2255 67.5877 84.4691 67.8385 84.6548C68.0872 84.8494 68.355 84.983 68.642 85.0557C68.9323 85.1338 69.2285 85.1478 69.5305 85.0976C69.827 85.0509 70.1205 84.9379 70.4109 84.7586C70.7946 84.5219 71.0802 84.2246 71.2679 83.8666C71.4536 83.5175 71.5366 83.1371 71.5172 82.7254C71.4922 82.3171 71.3546 81.9101 71.1044 81.5046C70.9184 81.2032 70.6993 80.9524 70.4472 80.7524C70.1931 80.5611 69.9252 80.4275 69.6437 80.3515C69.3568 80.2789 69.0606 80.2649 68.7552 80.3095C68.4532 80.3597 68.1598 80.4727 67.8748 80.6485Z" fill="white"/>
<path d="M60.789 82.7016C61.2689 82.5328 61.7386 82.4905 62.1982 82.5745C62.6579 82.6586 63.0663 82.8494 63.4235 83.147C63.7768 83.4528 64.0379 83.8456 64.2067 84.3255L65.5978 88.2801L64.5499 88.6487L63.162 84.7032C63.0531 84.3934 62.8942 84.1455 62.6854 83.9596C62.4727 83.7818 62.2316 83.6687 61.9619 83.6202C61.6944 83.5777 61.421 83.6057 61.1415 83.704C60.856 83.8044 60.6253 83.9538 60.4493 84.1522C60.2755 84.3567 60.1644 84.5938 60.1159 84.8634C60.0695 85.1391 60.0997 85.4288 60.2066 85.7326L61.5976 89.6872L60.5497 90.0558L59.1555 86.0921C58.9867 85.6122 58.9454 85.1454 59.0316 84.6919C59.1178 84.2383 59.3107 83.836 59.6104 83.4848C59.9101 83.1336 60.303 82.8726 60.789 82.7016Z" fill="white"/>
<path d="M56.1866 84.0092L57.3483 90.6701L56.254 90.861L55.0923 84.2001L56.1866 84.0092Z" fill="white"/>
<defs>
<linearGradient id="paint0_linear_504_17760" x1="0" y1="50" x2="100" y2="50" gradientUnits="userSpaceOnUse">
<stop stop-color="#2E0797"/>
<stop offset="1" stop-color="#726EFC"/>
</linearGradient>
</defs>
</svg>
