<svg width="46" height="46" viewBox="0 0 46 46" fill="none" xmlns="http://www.w3.org/2000/svg">
<path d="M22.3151 3.49622C22.5625 3.35511 22.7721 3.28516 22.9855 3.28516H23C23.2179 3.28839 23.435 3.364 23.6961 3.50956L33.6218 9.09143C34.5267 9.6478 35.1278 10.6303 35.1278 11.7487V16.6606L22.9178 9.78568C22.8174 9.73149 22.7107 9.70279 22.6102 9.70279C22.5334 9.70279 22.4604 9.71977 22.3969 9.75333C22.3342 9.78648 22.2807 9.83784 22.2408 9.90698C22.1947 9.98744 22.1669 10.0946 22.1669 10.2288L22.1665 18.0139L22.1669 18.0859L22.0934 18.0952L22.0876 18.096L22.0075 18.1061L21.927 18.1166L21.9166 18.1182L21.8382 18.13L21.761 18.1417L21.7402 18.1453L21.6601 18.1591L21.5816 18.1728L21.5771 18.174L21.4953 18.1894L21.4152 18.206L21.4019 18.2084L21.3239 18.2254L21.245 18.244L21.2388 18.2452C20.8818 18.3285 20.5344 18.4377 20.1985 18.5699C20.1301 18.5966 20.0649 18.6237 20.0035 18.6499C19.9391 18.677 19.8752 18.7057 19.8121 18.7349L19.81 18.7353L19.7378 18.7692L19.6656 18.8044L19.6548 18.8089L19.5909 18.8408L19.5261 18.8739L19.4975 18.8885L19.4348 18.9213L19.3733 18.9544L19.3522 18.9657C19.3252 18.9803 19.2949 18.9973 19.2629 19.0155L19.2447 19.0256L19.2272 19.0357L19.2073 19.047L19.1434 19.0838L19.0786 19.1226L19.0695 19.1279L19.0039 19.1683L18.9379 19.2091L18.9304 19.2148C18.7329 19.3393 18.5419 19.4736 18.3572 19.6163C18.3173 19.6474 18.2816 19.6753 18.2505 19.7004C18.219 19.7255 18.1829 19.755 18.1455 19.7865L18.1443 19.7873L18.138 19.7926L18.0787 19.8423L18.0214 19.8925L18.0127 19.8998L17.9608 19.9458L17.9093 19.9919L17.8836 20.0158L17.8333 20.0619L17.784 20.1084L17.7657 20.1258L17.7175 20.1723L17.6698 20.2196L17.6412 20.2479L17.5997 20.2899L17.5586 20.3324L17.5183 20.3744L17.4822 20.4129L17.4461 20.4517L17.3992 20.503L17.3647 20.541L17.3315 20.5782L17.2962 20.6191L17.2572 20.6635L17.2194 20.708L17.192 20.742L17.1522 20.7897L17.114 20.8366L17.0916 20.8653C17.0027 20.9769 16.9164 21.0921 16.8338 21.2106L16.7852 21.2806L16.7379 21.3497L16.7242 21.3707L16.6669 21.4581L16.6283 21.5191L16.5864 21.5866L16.5794 21.598L16.5789 21.5992L16.5412 21.6618C16.5254 21.6875 16.5145 21.7063 16.5045 21.7236C16.5019 21.7282 16.4993 21.7326 16.4967 21.7371L16.4934 21.7431L16.4557 21.809L16.4328 21.8499L16.4096 21.8911L16.373 21.9594L16.3324 22.0367L16.2938 22.1123L16.2535 22.1927L16.2195 22.2643L16.1825 22.3436L16.156 22.4026L16.1107 22.5045L16.08 22.5781L16.048 22.6553C16.0378 22.6809 16.0301 22.7004 16.0235 22.7173C16.02 22.7263 16.0168 22.7346 16.0136 22.7426L16.0094 22.754L16.009 22.7556L15.9854 22.8166C15.9675 22.8648 15.9526 22.906 15.9376 22.948L15.9272 22.9776L15.9023 23.0507L15.8778 23.1264L15.8538 23.2024L15.8376 23.2561L15.8214 23.3087L15.8056 23.3645L15.7981 23.3904L15.7761 23.4713L15.7575 23.5448L15.7321 23.6439L15.7164 23.713C15.7101 23.7393 15.7039 23.7664 15.6948 23.8101L15.6782 23.8877L15.6595 23.9844L15.6462 24.06L15.6296 24.1554L15.6172 24.2359L15.6031 24.3321L15.5927 24.4101L15.5815 24.5051L15.5723 24.5884L15.5636 24.6847L15.557 24.7655L15.5512 24.8565L15.5503 24.867L15.5491 24.8808L15.5454 24.943L15.5416 25.0449L15.5408 25.0623L15.5387 25.123L15.5371 25.2127L15.5362 25.3029L15.5371 25.3959L15.5387 25.4897L15.5391 25.4925L15.5416 25.5831L15.5462 25.6765V25.6777L15.5466 25.6806L15.5516 25.7691L15.5582 25.8617L15.5661 25.9547L15.5748 26.042L15.5752 26.0457C15.5873 26.1658 15.6035 26.2867 15.6226 26.4088L15.6367 26.4969L15.6529 26.5846V26.5867L15.6537 26.5891L15.6541 26.5923L15.6699 26.6776L15.6877 26.7654L15.6881 26.7674C15.706 26.8511 15.7247 26.9344 15.7454 27.0169L15.7579 27.0654L15.7707 27.1143V27.1155L15.7716 27.1184L15.7952 27.2053L15.8193 27.2906L15.8197 27.2918C15.8294 27.3254 15.84 27.359 15.8501 27.3921C15.8522 27.3989 15.8542 27.4056 15.8563 27.4123L15.8633 27.4358L15.8708 27.4596L15.8716 27.4612L15.872 27.4629L15.8998 27.5482L15.9277 27.6303L15.9289 27.6327L15.958 27.7156L15.9878 27.7964L15.9887 27.7973L15.9895 27.8001L16.0198 27.8797L16.0509 27.9586L16.0559 27.9699L16.0875 28.0467L16.1211 28.1248L16.1227 28.1288L16.1535 28.1971L10.866 31.1706V11.7487C10.866 10.5952 11.5044 9.58715 12.4558 9.04089L12.5106 9.01056L22.3151 3.49622Z" fill="#0D0E1F"/>
<path d="M23.8339 12.113L41.1014 21.824C42.1267 22.4006 42.7037 23.4438 42.7136 24.5193V35.6086C42.7161 35.8945 42.6713 36.1092 42.5592 36.292C42.4476 36.4743 42.2715 36.6195 42.0113 36.7671L32.086 42.3493C31.1387 42.8345 29.9653 42.8507 28.9703 42.2907L24.7305 39.9067L24.6031 39.8348L24.7305 39.7636L36.821 32.9728C36.9193 32.9149 36.9974 32.8393 37.048 32.7544C37.0862 32.6893 37.1086 32.6194 37.1099 32.5494C37.1115 32.4799 37.0933 32.4087 37.0518 32.3412C37.0028 32.2611 36.9218 32.1847 36.8023 32.1176L29.881 28.225L29.8167 28.1891L29.8453 28.1223L29.8474 28.1167L29.8789 28.0443L29.9092 27.9711L29.942 27.8894L29.9698 27.8183L29.9769 27.7993L30.0051 27.7245L30.0321 27.6513L30.0334 27.6472L30.0599 27.5704L30.0857 27.4948L30.0902 27.4823L30.1143 27.4075L30.1375 27.3323L30.1392 27.3266C30.243 26.9837 30.3202 26.6356 30.3708 26.2862C30.3808 26.2151 30.3895 26.1472 30.397 26.0821C30.4049 26.0137 30.4115 25.9458 30.4177 25.8779V25.8758L30.424 25.7982L30.4289 25.7194L30.4294 25.708L30.4335 25.6381L30.4368 25.5669L30.4381 25.5358L30.4401 25.4663L30.4418 25.3745C30.4422 25.3445 30.4426 25.3106 30.4422 25.2742V25.2119L30.441 25.1395L30.4393 25.0656L30.4389 25.055L30.4364 24.9798L30.4327 24.9034L30.4318 24.8941C30.419 24.6657 30.3953 24.4368 30.3609 24.21C30.3538 24.1606 30.3463 24.1166 30.3397 24.0778C30.3331 24.0389 30.3248 23.9937 30.3156 23.9464V23.9447L30.314 23.9366L30.299 23.8622L30.2832 23.7887L30.2812 23.7777L30.2662 23.7106L30.2509 23.6439L30.2426 23.6103L30.2272 23.5457L30.2102 23.4802L30.204 23.4559L30.1687 23.3281L30.1575 23.2901L30.1409 23.2335L30.1068 23.1235L30.0906 23.0738L30.074 23.0233L30.052 22.9586L30.0184 22.8635L29.9997 22.8134L29.9798 22.7584L29.9591 22.7042L29.9433 22.6638L29.9204 22.6068L29.8976 22.551L29.8835 22.5178C29.8287 22.3872 29.7694 22.257 29.7054 22.1276L29.6299 21.9772L29.6291 21.9768L29.6286 21.976L29.6178 21.9554L29.5934 21.9089L29.5685 21.8632L29.5336 21.7997L29.495 21.731L29.4879 21.7193L29.4875 21.7185L29.4506 21.655C29.4315 21.6222 29.4186 21.6012 29.4057 21.5802L29.402 21.5741L29.3626 21.509L29.3381 21.4698L29.3119 21.4294L29.27 21.3643L29.2218 21.2911L29.1737 21.2211L29.1218 21.1471L29.0761 21.0824L29.0238 21.0117L28.9844 20.9599L28.9745 20.947L28.9163 20.871L28.8665 20.8079L28.8138 20.7424C28.7864 20.7096 28.7698 20.6894 28.7532 20.67L28.7453 20.6603L28.7445 20.6599L28.7017 20.609C28.6681 20.5697 28.6386 20.5366 28.6088 20.503L28.5876 20.4796L28.5353 20.4217L28.4805 20.3631L28.4245 20.3049L28.346 20.2244L28.3041 20.1832L28.2846 20.1642L28.2244 20.1052L28.1683 20.0526L28.0928 19.9814L28.0392 19.9337C28.0189 19.9151 27.9977 19.8965 27.9637 19.867L27.9031 19.814L27.8263 19.7506L27.7657 19.7008L27.6893 19.6394L27.6242 19.5888L27.5453 19.5286L27.4814 19.4809L27.4025 19.4238L27.3328 19.3745L27.2518 19.3191L27.1829 19.273L27.1161 19.2298L27.1049 19.2225L27.0962 19.2164L27.0849 19.2091L27.031 19.1752L26.9426 19.1202L26.8745 19.0789L26.7952 19.0324L26.7159 18.9868L26.6329 18.9411L26.5482 18.8954L26.5457 18.895L26.464 18.8513L26.3789 18.8084L26.3776 18.8076L26.3747 18.8068L26.2934 18.7668L26.2079 18.726L26.1215 18.6863L26.0393 18.6495L26.0356 18.6479C25.9231 18.599 25.8077 18.5517 25.6894 18.5068L25.6043 18.4749L25.518 18.4441L25.5163 18.4437L25.5134 18.4425L25.5109 18.4413L25.4266 18.4122L25.3399 18.3835L25.3391 18.3831L25.3374 18.3827C25.2544 18.356 25.1705 18.3305 25.0871 18.3063L25.0381 18.2925L24.9879 18.2792L24.9871 18.2784L24.9846 18.2776L24.8953 18.2541L24.8069 18.2319L24.8057 18.2315C24.7637 18.2214 24.7218 18.2112 24.6799 18.2019L24.6558 18.1967L24.6309 18.191L24.6297 18.1906L24.6272 18.1902L24.5379 18.1712L24.4508 18.1534L24.4483 18.153L24.3603 18.1364L24.2727 18.1211L24.269 18.1207L24.1834 18.1061L24.0971 18.0936L24.0847 18.0916L24.0008 18.0802L23.9149 18.0693L23.9099 18.0685L23.8339 18.0604V12.113Z" fill="#0D0E1F"/>
<path d="M9.26208 19.3697L9.25461 33.1074C9.25669 33.2194 9.28492 33.3237 9.33514 33.4082C9.37416 33.4733 9.42522 33.5267 9.48624 33.5627C9.54767 33.5991 9.62031 33.6189 9.70125 33.6181C9.79631 33.6165 9.90506 33.5861 10.0242 33.5194L17.0098 29.5909L17.055 29.6483L17.0588 29.6523L17.1073 29.715L17.1572 29.7777L17.1634 29.7858L17.2132 29.846L17.2626 29.9051L17.2759 29.9212L17.3282 29.9819L17.3796 30.0409L17.383 30.0446L17.4378 30.1052L17.4921 30.165L17.5013 30.1748L17.5556 30.2322L17.6113 30.2896L17.6154 30.294C17.8682 30.5532 18.1389 30.7922 18.4244 31.0093C18.4826 31.0534 18.539 31.095 18.593 31.1338C18.6494 31.1743 18.7067 31.2143 18.7644 31.2531L18.7656 31.2539L18.8321 31.298L18.8993 31.3417L18.9089 31.3481L18.969 31.3865L19.0309 31.4246L19.0583 31.4415L19.1185 31.4779L19.1787 31.5131L19.1994 31.5256C19.2256 31.5406 19.2559 31.558 19.2887 31.5758L19.3061 31.5859L19.3239 31.5956L19.3439 31.6065L19.4086 31.6425L19.4759 31.6777L19.485 31.6829L19.5535 31.7181L19.6228 31.7529L19.6315 31.7569C19.8412 31.8608 20.0562 31.9555 20.2753 32.0391C20.3231 32.0577 20.3654 32.0739 20.4036 32.0873C20.4414 32.1014 20.4854 32.1168 20.5323 32.133L20.5335 32.1338L20.5418 32.1362L20.6153 32.1609L20.6888 32.1851L20.6996 32.1883L20.7664 32.209L20.8332 32.2292L20.8673 32.2397L20.9328 32.2583L20.9993 32.2769L21.0242 32.2834L21.0893 32.3008L21.1553 32.3177L21.1948 32.3274L21.2533 32.3416L21.3106 32.3553L21.3683 32.3679L21.4737 32.3905L21.5426 32.4043L21.5937 32.414L21.6435 32.4237L21.6975 32.433L21.7564 32.4435L21.8145 32.4532L21.8589 32.4597L21.9212 32.469L21.9822 32.4779L22.0183 32.4827C22.1619 32.5017 22.3076 32.5167 22.4542 32.5272L22.5405 32.5337L22.626 32.5385L22.6268 32.5381H22.6281L22.6513 32.5397L22.7049 32.5421L22.758 32.5442L22.8315 32.5466L22.912 32.5482H22.9274L23.0021 32.549C23.0403 32.549 23.0656 32.549 23.0913 32.5486L23.098 32.5482L23.1756 32.5474L23.2715 32.545L23.3508 32.5417L23.4396 32.5377L23.5259 32.532L23.6181 32.5256L23.6982 32.5191L23.787 32.5106L23.853 32.5033L23.8696 32.5017L23.9659 32.4904L24.132 32.4681C24.1674 32.4631 24.1917 32.4588 24.2134 32.4553C24.2179 32.4546 24.2223 32.4539 24.2266 32.4532L24.2391 32.4508L24.2403 32.4504L24.3063 32.4398C24.3582 32.4314 24.4026 32.4233 24.447 32.4144L24.4782 32.4087L24.5558 32.3933L24.6355 32.3764L24.7152 32.3582L24.7712 32.3452L24.826 32.3323L24.8837 32.3177L24.9103 32.3109L24.9933 32.289L25.068 32.2688L25.1689 32.2401L25.2378 32.2191C25.2648 32.2106 25.2917 32.2029 25.3353 32.1888L25.4125 32.1633L25.5076 32.1309L25.5815 32.1051L25.6745 32.0711L25.7521 32.0412L25.8455 32.0048L25.9198 31.9745L26.0094 31.9369L26.0883 31.9025L26.1776 31.862L26.2535 31.8269L26.3253 31.7921L26.3378 31.7864L26.3469 31.7816L26.3594 31.7759L26.4166 31.748L26.51 31.7003L26.5254 31.6922L26.5802 31.6639L26.6611 31.6207L26.7417 31.5758L26.8239 31.5289L26.9065 31.4799L26.9081 31.4787L26.9878 31.431L27.0688 31.3805L27.07 31.3801L27.0721 31.3781L27.148 31.3299L27.2273 31.2778L27.3058 31.2248L27.3797 31.1739L27.3826 31.1714C27.4826 31.1011 27.5826 31.0275 27.6814 30.9503L27.7528 30.8941L27.823 30.8367L27.8242 30.8354L27.8267 30.8338L27.8288 30.8318L27.8969 30.7756L27.9662 30.7166L27.967 30.7162L27.9674 30.7149C28.0334 30.6579 28.0978 30.6009 28.1609 30.5423L28.1978 30.5075L28.2348 30.4719L28.2356 30.4715L28.2377 30.4699L28.3032 30.406L28.3668 30.343L28.368 30.3421C28.3983 30.3114 28.4278 30.2815 28.4568 30.2512L28.4743 30.2334L28.4913 30.2152L28.4925 30.2136L28.4938 30.2124L28.556 30.1464L28.615 30.0818L28.6166 30.0797L28.6756 30.0138L28.7329 29.9479L28.7333 29.9471L28.7354 29.9447L28.7906 29.88L28.8449 29.8137L28.8528 29.804L28.9051 29.7389L28.9578 29.6718L28.9608 29.6681L29.006 29.6083L29.072 29.6451L34.2935 32.5814L34.1669 32.6533L17.0264 42.2927C16.0011 42.8693 14.7849 42.8345 13.8235 42.3053L13.7696 42.2745L3.96466 36.7606C3.70938 36.6191 3.54085 36.4743 3.43459 36.2883C3.32874 36.1031 3.28723 35.882 3.28599 35.5888L3.28516 24.4247C3.32791 23.3835 3.90074 22.3852 4.8953 21.8256L9.26208 19.3697Z" fill="#0D0E1F"/>
<path d="M22.999 30.9808C19.7566 30.9808 17.1271 28.4058 17.1271 25.2308C17.1271 22.0559 19.7566 19.4808 22.999 19.4808C26.2422 19.4808 28.8718 22.0559 28.8718 25.2308C28.8718 28.4058 26.2422 30.9808 22.999 30.9808Z" fill="#0D0E1F"/>
</svg>
